<?xml version="1.0" encoding="utf-8"?>
<!-- Generator: Adobe Illustrator 27.1.1, SVG Export Plug-In . SVG Version: 6.00 Build 0)  -->
<svg version="1.1" id="Layer_1" xmlns="http://www.w3.org/2000/svg" xmlns:xlink="http://www.w3.org/1999/xlink" x="0px" y="0px"
	 viewBox="0 0 1080 1080" style="enable-background:new 0 0 1080 1080;" xml:space="preserve">
<style type="text/css">
	.st0{fill:#fff;}
</style>
<path class="st0" d="M369.4,633l4.8,3.6c-9.3,12.9-26.3,29.3-57.4,29c-36.5,0-65.8-31.7-65.8-71.8s29.3-71.8,65.8-71.8
	s65.8,31.7,65.8,71.8v3H257c1.4,35.1,27.2,62.8,59.8,62.8C345.5,660,360.7,644.7,369.4,633L369.4,633z M257,590.9h119.6
	c0-33.5-26.6-62.8-59.8-62.8S258.4,555.8,257,590.9L257,590.9z"/>
<path class="st0" d="M470.6,663.5h-38.7v-142h6v137.2l33.1-0.1v5L470.6,663.5L470.6,663.5z"/>
<path class="st0" d="M499.6,525.2l-2.2-4.2h8.1l0.7,1.8l67.4,131l66.7-131l0.7-1.8h8.2l-2.2,4.2l-70,137.5l-0.7,1.8h-5.2l-0.7-1.8
	L499.6,525.2L499.6,525.2z"/>
<path class="st0" d="M831.2,485.9h-3v-6h6.3v6H831.2L831.2,485.9z M828.1,525.1v-3h6v143.2h-6V525.1L828.1,525.1z M612.5,664.7h-3
	v-6h6.3v6H612.5L612.5,664.7z"/>
<path class="st0" d="M791.4,660.3l2.2,4.2h-8.2l-0.7-1.8l-67.4-131l-66.7,131l-0.7,1.8h-8.2l2.2-4.2l70-137.5l0.7-1.8h5.2l0.7,1.8
	L791.4,660.3L791.4,660.3z"/>
</svg>
