<?xml version="1.0" encoding="UTF-8" standalone="no"?>
<!DOCTYPE svg PUBLIC "-//W3C//DTD SVG 1.1//EN" "http://www.w3.org/Graphics/SVG/1.1/DTD/svg11.dtd">
<svg width="100%" height="100%" viewBox="0 0 373 100" version="1.1" xmlns="http://www.w3.org/2000/svg" xmlns:xlink="http://www.w3.org/1999/xlink" xml:space="preserve" xmlns:serif="http://www.serif.com/" style="fill-rule:evenodd;clip-rule:evenodd;stroke-linejoin:round;stroke-miterlimit:2;">
    <g transform="matrix(0.492633,0,0,0.492633,-18.6075,-8.50115)">
        <path d="M332.38,213.172L48.778,213.172L48.778,24.103L332.38,24.103L332.38,213.172ZM43.106,18.61L43.106,218.894L338.051,218.894L338.051,18.61L43.106,18.61Z" style="fill:white;fill-rule:nonzero;"/>
        <path d="M184.536,65.298L190.521,60.931L196.505,65.298L194.228,58.235L200.307,53.868L192.814,53.868L190.521,46.72L188.228,53.876L180.74,53.868L186.814,58.235L184.536,65.298Z" style="fill:white;fill-rule:nonzero;"/>
        <path d="M153.568,73.618L159.551,69.251L165.532,73.618L163.258,66.555L169.333,62.188L161.84,62.188L159.548,55.032L157.255,62.196L149.767,62.188L155.84,66.555L153.568,73.618Z" style="fill:white;fill-rule:nonzero;"/>
        <path d="M136.892,77.743L134.599,84.907L127.111,84.899L133.185,89.266L130.907,96.329L136.892,91.962L142.875,96.329L140.599,89.266L146.672,84.899L139.185,84.899L136.892,77.743Z" style="fill:white;fill-rule:nonzero;"/>
        <path d="M128.578,122.892L134.561,127.258L132.286,120.197L138.361,115.829L130.871,115.829L128.578,108.673L126.286,115.845L118.794,115.829L124.872,120.197L122.595,127.258L128.578,122.892Z" style="fill:white;fill-rule:nonzero;"/>
        <path d="M139.185,146.852L136.892,139.696L134.599,146.86L127.111,146.852L133.185,151.218L130.907,158.282L136.892,153.907L142.875,158.282L140.599,151.218L146.672,146.852L139.185,146.852Z" style="fill:white;fill-rule:nonzero;"/>
        <path d="M161.887,169.554L159.594,162.407L157.306,169.563L149.814,169.554L155.887,173.921L153.615,180.985L159.599,176.618L165.578,180.985L163.306,173.921L169.379,169.554L161.887,169.554Z" style="fill:white;fill-rule:nonzero;"/>
        <path d="M192.818,177.782L190.525,170.626L188.236,177.79L180.743,177.782L186.818,182.149L184.544,189.212L190.529,184.844L196.508,189.212L194.232,182.149L200.31,177.782L192.818,177.782Z" style="fill:white;fill-rule:nonzero;"/>
        <path d="M223.747,169.554L221.458,162.407L219.161,169.563L211.677,169.554L217.747,173.921L215.475,180.985L221.458,176.618L227.443,180.985L225.161,173.921L231.24,169.554L223.747,169.554Z" style="fill:white;fill-rule:nonzero;"/>
        <path d="M246.458,146.852L244.161,139.696L241.865,146.86L234.38,146.852L240.458,151.218L238.177,158.282L244.161,153.907L250.146,158.282L247.865,151.218L253.943,146.852L246.458,146.852Z" style="fill:white;fill-rule:nonzero;"/>
        <path d="M262.169,115.743L254.677,115.743L252.38,108.587L250.091,115.751L242.6,115.743L248.677,120.11L246.404,127.172L252.38,122.798L258.364,127.172L256.091,120.11L262.169,115.743Z" style="fill:white;fill-rule:nonzero;"/>
        <path d="M238.176,96.235L244.16,91.868L250.146,96.235L247.865,89.172L253.943,84.813L246.457,84.813L244.16,77.657L241.865,84.821L234.379,84.813L240.457,89.172L238.176,96.235Z" style="fill:white;fill-rule:nonzero;"/>
        <path d="M221.544,55.04L219.255,62.204L211.763,62.188L217.833,66.563L215.561,73.626L221.552,69.251L227.529,73.626L225.255,66.563L231.333,62.188L223.833,62.188L221.544,55.04Z" style="fill:white;fill-rule:nonzero;"/>
        <path d="M367.49,66.326L367.49,24.093L396.443,24.093L396.443,31.237L376.017,31.237L376.017,41.234L393.648,41.234L393.648,48.378L376.017,48.378L376.017,66.326L367.49,66.326Z" style="fill:white;fill-rule:nonzero;"/>
        <path d="M403.413,66.326L403.413,35.732L411.509,35.732L411.509,66.326L403.413,66.326ZM403.413,31.583L403.413,24.093L411.509,24.093L411.509,31.583L403.413,31.583Z" style="fill:white;fill-rule:nonzero;"/>
        <path d="M447.636,66.326L439.54,66.326L439.54,50.712C439.54,47.409 439.367,45.272 439.022,44.302C438.676,43.333 438.115,42.579 437.336,42.041C436.559,41.503 435.622,41.234 434.528,41.234C433.125,41.234 431.867,41.618 430.753,42.386C429.64,43.155 428.876,44.172 428.463,45.44C428.05,46.708 427.844,49.051 427.844,52.469L427.844,66.326L419.749,66.326L419.749,35.732L427.268,35.732L427.268,40.226C429.937,36.769 433.298,35.04 437.351,35.04C439.137,35.04 440.769,35.362 442.248,36.005C443.727,36.649 444.846,37.47 445.605,38.468C446.363,39.467 446.891,40.6 447.189,41.868C447.487,43.135 447.636,44.95 447.636,47.313L447.636,66.326Z" style="fill:white;fill-rule:nonzero;"/>
        <path d="M472.728,51.634C471.691,51.98 470.048,52.393 467.801,52.873C465.554,53.353 464.085,53.823 463.394,54.284C462.337,55.033 461.809,55.984 461.809,57.136C461.809,58.27 462.231,59.249 463.076,60.075C463.921,60.901 464.996,61.314 466.303,61.314C467.762,61.314 469.156,60.834 470.48,59.873C471.46,59.144 472.103,58.251 472.41,57.194C472.621,56.503 472.728,55.187 472.728,53.247L472.728,51.634ZM461.896,45.065L454.549,43.74C455.374,40.783 456.796,38.593 458.813,37.172C460.829,35.751 463.825,35.04 467.801,35.04C471.411,35.04 474.1,35.468 475.867,36.322C477.634,37.177 478.878,38.262 479.598,39.577C480.319,40.893 480.679,43.308 480.679,46.823L480.592,56.272C480.592,58.961 480.722,60.944 480.981,62.221C481.24,63.499 481.725,64.867 482.436,66.326L474.427,66.326C474.215,65.789 473.956,64.992 473.65,63.935C473.515,63.455 473.419,63.138 473.361,62.984C471.978,64.329 470.499,65.337 468.925,66.009C467.35,66.681 465.669,67.018 463.883,67.018C460.733,67.018 458.251,66.163 456.436,64.454C454.621,62.745 453.714,60.584 453.714,57.972C453.714,56.243 454.126,54.702 454.952,53.348C455.778,51.994 456.935,50.957 458.424,50.236C459.912,49.517 462.058,48.888 464.863,48.35C468.646,47.639 471.268,46.977 472.728,46.362L472.728,45.555C472.728,44 472.343,42.891 471.575,42.228C470.807,41.565 469.357,41.234 467.225,41.234C465.784,41.234 464.661,41.518 463.855,42.084C463.048,42.65 462.395,43.645 461.896,45.065Z" style="fill:white;fill-rule:nonzero;"/>
        <path d="M516.489,66.326L508.393,66.326L508.393,50.712C508.393,47.409 508.22,45.272 507.874,44.302C507.529,43.333 506.967,42.579 506.189,42.041C505.411,41.503 504.475,41.234 503.38,41.234C501.978,41.234 500.72,41.618 499.606,42.386C498.492,43.155 497.729,44.172 497.316,45.44C496.903,46.708 496.697,49.051 496.697,52.469L496.697,66.326L488.602,66.326L488.602,35.732L496.12,35.732L496.12,40.226C498.789,36.769 502.151,35.04 506.203,35.04C507.99,35.04 509.621,35.362 511.101,36.005C512.578,36.649 513.698,37.47 514.456,38.468C515.215,39.467 515.742,40.6 516.041,41.868C516.339,43.135 516.489,44.95 516.489,47.313L516.489,66.326Z" style="fill:white;fill-rule:nonzero;"/>
        <path d="M551.376,44.777L543.396,46.218C543.126,44.624 542.517,43.423 541.567,42.617C540.615,41.81 539.381,41.407 537.865,41.407C535.848,41.407 534.24,42.103 533.039,43.495C531.838,44.888 531.239,47.217 531.239,50.482C531.239,54.111 531.848,56.675 533.068,58.173C534.287,59.671 535.924,60.42 537.98,60.42C539.516,60.42 540.775,59.984 541.753,59.109C542.734,58.236 543.425,56.733 543.827,54.601L551.779,55.955C550.953,59.605 549.368,62.36 547.026,64.223C544.682,66.086 541.542,67.018 537.605,67.018C533.13,67.018 529.563,65.606 526.903,62.783C524.242,59.96 522.913,56.051 522.913,51.058C522.913,46.007 524.247,42.074 526.917,39.261C529.586,36.447 533.198,35.04 537.749,35.04C541.475,35.04 544.438,35.842 546.637,37.445C548.835,39.049 550.415,41.493 551.376,44.777Z" style="fill:white;fill-rule:nonzero;"/>
        <path d="M563.936,51.029C563.936,54.064 564.656,56.387 566.097,58.001C567.536,59.614 569.313,60.42 571.426,60.42C573.538,60.42 575.31,59.614 576.741,58.001C578.172,56.387 578.888,54.045 578.888,50.971C578.888,47.975 578.172,45.67 576.741,44.057C575.31,42.444 573.538,41.637 571.426,41.637C569.313,41.637 567.536,42.444 566.097,44.057C564.656,45.67 563.936,47.995 563.936,51.029ZM555.639,50.597C555.639,47.908 556.302,45.306 557.626,42.79C558.952,40.274 560.829,38.353 563.259,37.028C565.688,35.703 568.402,35.04 571.398,35.04C576.026,35.04 579.819,36.543 582.777,39.549C585.734,42.555 587.213,46.353 587.213,50.942C587.213,55.571 585.72,59.408 582.734,62.451C579.746,65.496 575.988,67.018 571.454,67.018C568.651,67.018 565.976,66.384 563.432,65.116C560.887,63.849 558.952,61.99 557.626,59.542C556.302,57.093 555.639,54.111 555.639,50.597Z" style="fill:white;fill-rule:nonzero;"/>
        <path d="M601.962,66.326L589.632,35.732L598.131,35.732L603.893,51.346L605.564,56.56C606.005,55.235 606.284,54.361 606.4,53.939C606.668,53.074 606.956,52.21 607.263,51.346L613.083,35.732L621.408,35.732L609.251,66.326L601.962,66.326Z" style="fill:white;fill-rule:nonzero;"/>
        <path d="M634.489,31.986L638.463,23.373L647.538,23.373L639.615,31.986L634.489,31.986ZM643.246,51.634C642.209,51.98 640.567,52.393 638.32,52.873C636.073,53.353 634.604,53.823 633.912,54.284C632.856,55.033 632.327,55.984 632.327,57.136C632.327,58.27 632.749,59.249 633.595,60.075C634.44,60.901 635.515,61.314 636.822,61.314C638.281,61.314 639.674,60.834 640.998,59.873C641.979,59.144 642.621,58.251 642.929,57.194C643.14,56.503 643.246,55.187 643.246,53.247L643.246,51.634ZM632.414,45.065L625.068,43.74C625.893,40.783 627.315,38.593 629.331,37.172C631.348,35.751 634.344,35.04 638.32,35.04C641.93,35.04 644.618,35.468 646.386,36.322C648.153,37.177 649.397,38.262 650.116,39.577C650.837,40.893 651.198,43.308 651.198,46.823L651.111,56.272C651.111,58.961 651.24,60.944 651.499,62.221C651.759,63.499 652.243,64.867 652.954,66.326L644.946,66.326C644.734,65.789 644.475,64.992 644.168,63.935C644.033,63.455 643.938,63.138 643.879,62.984C642.496,64.329 641.018,65.337 639.444,66.009C637.868,66.681 636.188,67.018 634.402,67.018C631.251,67.018 628.77,66.163 626.954,64.454C625.14,62.745 624.233,60.584 624.233,57.972C624.233,56.243 624.645,54.702 625.471,53.348C626.296,51.994 627.453,50.957 628.943,50.236C630.431,49.517 632.576,48.888 635.381,48.35C639.164,47.639 641.786,46.977 643.246,46.362L643.246,45.555C643.246,44 642.862,42.891 642.094,42.228C641.325,41.565 639.875,41.234 637.743,41.234C636.303,41.234 635.18,41.518 634.373,42.084C633.567,42.65 632.913,43.645 632.414,45.065Z" style="fill:white;fill-rule:nonzero;"/>
        <path d="M687.007,66.326L678.911,66.326L678.911,50.712C678.911,47.409 678.739,45.272 678.393,44.302C678.047,43.333 677.486,42.579 676.707,42.041C675.93,41.503 674.993,41.234 673.899,41.234C672.496,41.234 671.239,41.618 670.124,42.386C669.011,43.155 668.247,44.172 667.834,45.44C667.421,46.708 667.215,49.051 667.215,52.469L667.215,66.326L659.12,66.326L659.12,35.732L666.639,35.732L666.639,40.226C669.308,36.769 672.669,35.04 676.722,35.04C678.508,35.04 680.14,35.362 681.619,36.005C683.098,36.649 684.217,37.47 684.976,38.468C685.734,39.467 686.262,40.6 686.56,41.868C686.858,43.135 687.007,44.95 687.007,47.313L687.007,66.326Z" style="fill:white;fill-rule:nonzero;"/>
        <path d="M701.641,51.029C701.641,54.064 702.361,56.387 703.802,58.001C705.241,59.614 707.018,60.42 709.131,60.42C711.243,60.42 713.015,59.614 714.447,58.001C715.877,56.387 716.593,54.045 716.593,50.971C716.593,47.975 715.877,45.67 714.447,44.057C713.015,42.444 711.243,41.637 709.131,41.637C707.018,41.637 705.241,42.444 703.802,44.057C702.361,45.67 701.641,47.995 701.641,51.029ZM693.344,50.597C693.344,47.908 694.007,45.306 695.331,42.79C696.657,40.274 698.534,38.353 700.964,37.028C703.393,35.703 706.107,35.04 709.103,35.04C713.731,35.04 717.524,36.543 720.482,39.549C723.439,42.555 724.918,46.353 724.918,50.942C724.918,55.571 723.425,59.408 720.439,62.451C717.451,65.496 713.693,67.018 709.159,67.018C706.356,67.018 703.681,66.384 701.137,65.116C698.592,63.849 696.657,61.99 695.331,59.542C694.007,57.093 693.344,54.111 693.344,50.597Z" style="fill:white;fill-rule:nonzero;"/>
        <path d="M367.433,137.126L367.433,94.893L398.747,94.893L398.747,102.037L375.96,102.037L375.96,111.4L397.163,111.4L397.163,118.515L375.96,118.515L375.96,130.009L399.554,130.009L399.554,137.126L367.433,137.126Z" style="fill:white;fill-rule:nonzero;"/>
        <path d="M415.139,137.126L402.809,106.531L411.308,106.531L417.07,122.145L418.74,127.359C419.182,126.034 419.461,125.161 419.576,124.738C419.845,123.874 420.133,123.009 420.44,122.145L426.26,106.531L434.585,106.531L422.428,137.126L415.139,137.126Z" style="fill:white;fill-rule:nonzero;"/>
        <path d="M447.29,137.126L439.195,137.126L439.195,106.531L446.714,106.531L446.714,110.881C448,108.826 449.157,107.472 450.186,106.819C451.213,106.166 452.379,105.839 453.686,105.839C455.53,105.839 457.306,106.349 459.015,107.366L456.509,114.424C455.145,113.541 453.877,113.099 452.706,113.099C451.573,113.099 450.613,113.412 449.825,114.036C449.037,114.66 448.418,115.788 447.967,117.421C447.516,119.053 447.29,122.472 447.29,127.676L447.29,137.126Z" style="fill:white;fill-rule:nonzero;"/>
        <path d="M468.925,121.828C468.925,124.863 469.645,127.186 471.086,128.8C472.526,130.413 474.302,131.219 476.415,131.219C478.528,131.219 480.299,130.413 481.731,128.8C483.161,127.186 483.877,124.844 483.877,121.771C483.877,118.775 483.161,116.47 481.731,114.857C480.299,113.243 478.528,112.437 476.415,112.437C474.302,112.437 472.526,113.243 471.086,114.857C469.645,116.47 468.925,118.794 468.925,121.828ZM460.628,121.396C460.628,118.708 461.291,116.105 462.615,113.589C463.942,111.073 465.819,109.152 468.248,107.827C470.677,106.502 473.391,105.839 476.387,105.839C481.015,105.839 484.808,107.342 487.766,110.348C490.723,113.354 492.202,117.152 492.202,121.742C492.202,126.371 490.709,130.207 487.723,133.251C484.736,136.295 480.977,137.817 476.444,137.817C473.64,137.817 470.965,137.183 468.421,135.916C465.876,134.648 463.942,132.79 462.615,130.341C461.291,127.892 460.628,124.911 460.628,121.396Z" style="fill:white;fill-rule:nonzero;"/>
        <path d="M506.32,121.31C506.32,124.748 507,127.288 508.365,128.929C509.728,130.572 511.39,131.393 513.349,131.393C515.231,131.393 516.794,130.639 518.044,129.132C519.292,127.624 519.917,125.151 519.917,121.713C519.917,118.506 519.273,116.124 517.987,114.568C516.698,113.013 515.106,112.235 513.203,112.235C511.226,112.235 509.584,112.999 508.279,114.525C506.972,116.052 506.32,118.314 506.32,121.31ZM498.31,106.531L505.859,106.531L505.859,111.025C506.837,109.489 508.163,108.24 509.833,107.28C511.505,106.32 513.357,105.839 515.393,105.839C518.947,105.839 521.961,107.232 524.44,110.017C526.917,112.802 528.156,116.681 528.156,121.655C528.156,126.764 526.907,130.735 524.411,133.568C521.914,136.401 518.888,137.817 515.336,137.817C513.646,137.817 512.115,137.48 510.741,136.808C509.367,136.136 507.922,134.984 506.406,133.351L506.406,148.764L498.31,148.764L498.31,106.531Z" style="fill:white;fill-rule:nonzero;"/>
        <path d="M531.728,128.396L539.852,127.158C540.198,128.733 540.899,129.928 541.954,130.746C543.011,131.561 544.49,131.968 546.392,131.968C548.485,131.968 550.06,131.585 551.116,130.816C551.826,130.279 552.182,129.558 552.182,128.656C552.182,128.042 551.99,127.532 551.606,127.129C551.202,126.745 550.299,126.389 548.898,126.063C542.367,124.623 538.229,123.307 536.482,122.116C534.062,120.465 532.851,118.17 532.851,115.231C532.851,112.581 533.898,110.353 535.991,108.547C538.084,106.742 541.33,105.839 545.729,105.839C549.915,105.839 553.027,106.522 555.063,107.885C557.098,109.249 558.5,111.265 559.269,113.935L551.634,115.346C551.308,114.156 550.689,113.243 549.777,112.609C548.864,111.976 547.563,111.659 545.872,111.659C543.741,111.659 542.214,111.957 541.292,112.552C540.677,112.975 540.37,113.522 540.37,114.194C540.37,114.77 540.639,115.26 541.177,115.663C541.906,116.201 544.427,116.96 548.74,117.939C553.051,118.919 556.061,120.119 557.771,121.54C559.46,122.981 560.306,124.988 560.306,127.561C560.306,130.365 559.134,132.775 556.791,134.792C554.448,136.808 550.982,137.817 546.392,137.817C542.224,137.817 538.925,136.972 536.495,135.282C534.066,133.591 532.477,131.296 531.728,128.396Z" style="fill:white;fill-rule:nonzero;"/>
        <path d="M567.105,137.126L567.105,94.893L575.199,94.893L575.199,117.305L584.677,106.531L594.646,106.531L584.188,117.709L595.394,137.126L586.665,137.126L578.974,123.384L575.199,127.331L575.199,137.126L567.105,137.126Z" style="fill:white;fill-rule:nonzero;"/>
        <path d="M606.63,121.828C606.63,124.863 607.35,127.186 608.791,128.8C610.231,130.413 612.007,131.219 614.12,131.219C616.233,131.219 618.004,130.413 619.436,128.8C620.866,127.186 621.582,124.844 621.582,121.771C621.582,118.775 620.866,116.47 619.436,114.857C618.004,113.243 616.233,112.437 614.12,112.437C612.007,112.437 610.231,113.243 608.791,114.857C607.35,116.47 606.63,118.794 606.63,121.828ZM598.333,121.396C598.333,118.708 598.996,116.105 600.321,113.589C601.647,111.073 603.524,109.152 605.953,107.827C608.382,106.502 611.096,105.839 614.092,105.839C618.72,105.839 622.513,107.342 625.471,110.348C628.428,113.354 629.907,117.152 629.907,121.742C629.907,126.371 628.414,130.207 625.428,133.251C622.441,136.295 618.682,137.817 614.149,137.817C611.345,137.817 608.67,137.183 606.126,135.916C603.581,134.648 601.647,132.79 600.321,130.341C598.996,127.892 598.333,124.911 598.333,121.396Z" style="fill:white;fill-rule:nonzero;"/>
        <path d="M656.383,137.126L656.383,132.545C655.269,134.177 653.805,135.464 651.99,136.405C650.175,137.346 648.259,137.817 646.242,137.817C644.187,137.817 642.343,137.365 640.711,136.463C639.078,135.56 637.898,134.293 637.167,132.66C636.438,131.028 636.073,128.772 636.073,125.89L636.073,106.531L644.168,106.531L644.168,120.589C644.168,124.892 644.317,127.528 644.615,128.498C644.912,129.468 645.454,130.236 646.242,130.802C647.03,131.369 648.029,131.652 649.239,131.652C650.621,131.652 651.861,131.274 652.954,130.514C654.05,129.755 654.798,128.815 655.202,127.691C655.605,126.567 655.807,123.816 655.807,119.437L655.807,106.531L663.902,106.531L663.902,137.126L656.383,137.126Z" style="fill:white;fill-rule:nonzero;"/>
        <path d="M708.815,137.126L708.815,132.545C707.7,134.177 706.237,135.464 704.421,136.405C702.607,137.346 700.691,137.817 698.674,137.817C696.618,137.817 694.775,137.365 693.143,136.463C691.51,135.56 690.329,134.293 689.599,132.66C688.869,131.028 688.505,128.772 688.505,125.89L688.505,106.531L696.6,106.531L696.6,120.589C696.6,124.892 696.748,127.528 697.046,128.498C697.344,129.468 697.886,130.236 698.674,130.802C699.461,131.369 700.46,131.652 701.67,131.652C703.053,131.652 704.292,131.274 705.386,130.514C706.482,129.755 707.23,128.815 707.634,127.691C708.036,126.567 708.239,123.816 708.239,119.437L708.239,106.531L716.333,106.531L716.333,137.126L708.815,137.126Z" style="fill:white;fill-rule:nonzero;"/>
        <path d="M752.546,137.126L744.45,137.126L744.45,121.511C744.45,118.208 744.278,116.071 743.932,115.101C743.586,114.132 743.025,113.378 742.246,112.84C741.469,112.302 740.532,112.033 739.438,112.033C738.035,112.033 736.778,112.418 735.663,113.186C734.55,113.954 733.786,114.972 733.373,116.239C732.96,117.507 732.754,119.85 732.754,123.269L732.754,137.126L724.659,137.126L724.659,106.531L732.178,106.531L732.178,111.025C734.847,107.568 738.208,105.839 742.261,105.839C744.047,105.839 745.679,106.161 747.158,106.804C748.637,107.448 749.756,108.269 750.515,109.268C751.273,110.267 751.801,111.4 752.099,112.667C752.397,113.935 752.546,115.75 752.546,118.112L752.546,137.126Z" style="fill:white;fill-rule:nonzero;"/>
        <path d="M760.755,137.126L760.755,106.531L768.851,106.531L768.851,137.126L760.755,137.126ZM760.755,102.382L760.755,94.893L768.851,94.893L768.851,102.382L760.755,102.382Z" style="fill:white;fill-rule:nonzero;"/>
        <path d="M777.148,137.126L777.148,106.531L785.243,106.531L785.243,137.126L777.148,137.126ZM776.543,102.786L780.519,94.172L789.593,94.172L781.671,102.786L776.543,102.786Z" style="fill:white;fill-rule:nonzero;"/>
        <path d="M372.075,213.106L372.075,184.444L391.251,213.106L396.198,213.106L396.198,176.59L391.557,176.59L391.557,205.252L372.381,176.59L367.434,176.59L367.434,213.106L372.075,213.106Z" style="fill:white;fill-rule:nonzero;"/>
        <path d="M419.055,208.67C417.882,209.537 416.505,209.996 414.873,209.996C412.629,209.996 410.793,209.231 409.314,207.701C407.835,206.12 407.019,203.927 406.866,201.02L426.603,201.02L426.603,199.847C426.603,195.461 425.481,192.095 423.237,189.698C420.993,187.301 418.137,186.077 414.618,186.077C410.946,186.077 407.988,187.301 405.693,189.749C403.398,192.197 402.276,195.665 402.276,200.102C402.276,204.386 403.398,207.701 405.693,210.098C407.937,212.495 410.997,213.668 414.873,213.668C417.933,213.668 420.432,212.903 422.421,211.424C424.359,209.945 425.736,207.854 426.45,205.151L421.809,204.539C421.146,206.426 420.228,207.803 419.055,208.67ZM409.467,191.84C410.844,190.463 412.578,189.749 414.618,189.749C416.913,189.749 418.749,190.616 420.177,192.35C421.095,193.472 421.656,195.104 421.86,197.348L407.121,197.348C407.274,195.053 408.039,193.217 409.467,191.84Z" style="fill:white;fill-rule:nonzero;"/>
        <path d="M434.515,213.107L441.604,203.009L442.879,204.947L448.336,213.107L453.793,213.107L444.205,199.388L453.181,186.638L447.724,186.638L443.338,192.86C442.726,193.727 442.063,194.696 441.298,195.767C440.839,195.002 440.227,194.033 439.462,192.911L435.28,186.638L429.772,186.638L438.748,199.388L429.058,213.107L434.515,213.107Z" style="fill:white;fill-rule:nonzero;"/>
        <path d="M465.421,209.282C464.758,209.282 464.248,209.18 463.891,208.976C463.534,208.721 463.279,208.466 463.126,208.058C462.973,207.701 462.871,206.885 462.871,205.61L462.871,190.106L467.359,190.106L467.359,186.638L462.871,186.638L462.871,177.407L458.383,180.11L458.383,186.638L455.068,186.638L455.068,190.106L458.383,190.106L458.383,205.355C458.383,208.058 458.587,209.792 458.944,210.659C459.301,211.475 459.913,212.189 460.831,212.699C461.698,213.209 462.973,213.464 464.605,213.464C465.574,213.464 466.696,213.311 467.971,213.056L467.359,209.129C466.543,209.231 465.88,209.282 465.421,209.282Z" style="fill:white;fill-rule:nonzero;"/>
        <path d="M500.144,198.776L500.144,205.61C499.124,206.528 497.594,207.395 495.605,208.211C493.616,209.027 491.576,209.435 489.485,209.435C487.088,209.435 484.844,208.925 482.702,207.854C480.56,206.783 478.928,205.151 477.806,202.958C476.684,200.765 476.123,198.011 476.123,194.747C476.123,192.095 476.582,189.647 477.5,187.403C478.061,186.077 478.826,184.853 479.795,183.782C480.815,182.66 482.09,181.793 483.722,181.13C485.303,180.467 487.241,180.11 489.434,180.11C491.27,180.11 492.953,180.416 494.432,181.079C495.962,181.691 497.135,182.558 497.951,183.629C498.767,184.7 499.43,186.128 499.991,188.015L504.326,186.791C503.714,184.343 502.796,182.354 501.572,180.824C500.348,179.294 498.665,178.121 496.574,177.254C494.432,176.387 492.035,175.979 489.383,175.979C485.762,175.979 482.549,176.744 479.744,178.223C476.99,179.702 474.848,181.997 473.369,185.057C471.89,188.168 471.125,191.483 471.125,195.002C471.125,198.623 471.89,201.836 473.369,204.743C474.848,207.65 477.092,209.894 479.999,211.424C482.906,212.954 486.17,213.719 489.791,213.719C492.443,213.719 495.044,213.26 497.543,212.291C500.042,211.322 502.49,209.894 504.887,208.007L504.887,194.492L489.434,194.492L489.434,198.776L500.144,198.776Z" style="fill:white;fill-rule:nonzero;"/>
        <path d="M526.757,208.67C525.584,209.537 524.207,209.996 522.575,209.996C520.331,209.996 518.495,209.231 517.016,207.701C515.537,206.12 514.721,203.927 514.568,201.02L534.305,201.02L534.305,199.847C534.305,195.461 533.183,192.095 530.939,189.698C528.695,187.301 525.839,186.077 522.32,186.077C518.648,186.077 515.69,187.301 513.395,189.749C511.1,192.197 509.978,195.665 509.978,200.102C509.978,204.386 511.1,207.701 513.395,210.098C515.639,212.495 518.699,213.668 522.575,213.668C525.635,213.668 528.134,212.903 530.123,211.424C532.061,209.945 533.438,207.854 534.152,205.151L529.511,204.539C528.848,206.426 527.93,207.803 526.757,208.67ZM517.169,191.84C518.546,190.463 520.28,189.749 522.32,189.749C524.615,189.749 526.451,190.616 527.879,192.35C528.797,193.472 529.358,195.104 529.562,197.348L514.823,197.348C514.976,195.053 515.741,193.217 517.169,191.84Z" style="fill:white;fill-rule:nonzero;"/>
        <path d="M544.309,213.107L544.309,198.674C544.309,195.257 545.023,192.962 546.4,191.789C547.777,190.565 549.409,189.953 551.296,189.953C552.52,189.953 553.54,190.208 554.407,190.769C555.325,191.279 555.937,192.044 556.294,192.911C556.651,193.829 556.804,195.206 556.804,197.042L556.804,213.107L561.292,213.107L561.292,196.838C561.292,194.798 561.19,193.319 561.037,192.503C560.782,191.228 560.323,190.106 559.66,189.188C558.997,188.27 557.977,187.505 556.651,186.944C555.325,186.383 553.846,186.077 552.265,186.077C548.593,186.077 545.788,187.505 543.85,190.412L543.85,186.638L539.821,186.638L539.821,213.107L544.309,213.107Z" style="fill:white;fill-rule:nonzero;"/>
        <path d="M583.484,208.67C582.311,209.537 580.934,209.996 579.302,209.996C577.058,209.996 575.222,209.231 573.743,207.701C572.264,206.12 571.448,203.927 571.295,201.02L591.032,201.02L591.032,199.847C591.032,195.461 589.91,192.095 587.666,189.698C585.422,187.301 582.566,186.077 579.047,186.077C575.375,186.077 572.417,187.301 570.122,189.749C567.827,192.197 566.705,195.665 566.705,200.102C566.705,204.386 567.827,207.701 570.122,210.098C572.366,212.495 575.426,213.668 579.302,213.668C582.362,213.668 584.861,212.903 586.85,211.424C588.788,209.945 590.165,207.854 590.879,205.151L586.238,204.539C585.575,206.426 584.657,207.803 583.484,208.67ZM573.896,191.84C575.273,190.463 577.007,189.749 579.047,189.749C581.342,189.749 583.178,190.616 584.606,192.35C585.524,193.472 586.085,195.104 586.289,197.348L571.55,197.348C571.703,195.053 572.468,193.217 573.896,191.84Z" style="fill:white;fill-rule:nonzero;"/>
        <path d="M600.985,213.107L600.985,199.286C600.985,197.399 601.24,195.665 601.75,194.033C602.056,193.013 602.617,192.197 603.382,191.585C604.147,191.024 605.065,190.718 606.034,190.718C607.105,190.718 608.176,191.024 609.298,191.636L610.879,187.505C609.298,186.536 607.768,186.077 606.289,186.077C605.218,186.077 604.249,186.383 603.382,186.995C602.515,187.556 601.546,188.831 600.526,190.667L600.526,186.638L596.497,186.638L596.497,213.107L600.985,213.107Z" style="fill:white;fill-rule:nonzero;"/>
        <path d="M631.688,213.107L636.38,213.107C635.819,212.087 635.462,211.016 635.258,209.894C635.105,208.823 635.003,206.171 635.003,202.04L635.003,196.073C635.003,194.084 634.952,192.707 634.799,191.942C634.493,190.718 634.034,189.698 633.371,188.882C632.708,188.066 631.688,187.403 630.26,186.893C628.832,186.332 626.996,186.077 624.752,186.077C622.457,186.077 620.468,186.383 618.734,186.995C617,187.658 615.674,188.525 614.756,189.698C613.838,190.82 613.175,192.35 612.767,194.237L617.153,194.849C617.612,192.962 618.377,191.636 619.397,190.922C620.417,190.157 621.947,189.8 624.089,189.8C626.333,189.8 628.067,190.31 629.189,191.33C630.056,192.044 630.464,193.319 630.464,195.155L630.464,196.328C628.73,196.94 626.078,197.45 622.406,197.858C620.672,198.062 619.346,198.317 618.428,198.521C617.255,198.878 616.184,199.337 615.215,200C614.246,200.663 613.481,201.53 612.869,202.601C612.308,203.621 612.002,204.845 612.002,206.12C612.002,208.313 612.767,210.149 614.348,211.526C615.929,212.954 618.173,213.668 621.08,213.668C622.814,213.668 624.497,213.362 626.027,212.801C627.557,212.189 629.138,211.22 630.821,209.792C630.974,211.067 631.229,212.138 631.688,213.107ZM630.464,201.479C630.464,203.468 630.209,204.947 629.699,205.916C629.087,207.242 628.118,208.262 626.741,209.027C625.415,209.792 623.885,210.149 622.151,210.149C620.366,210.149 619.04,209.741 618.173,208.976C617.255,208.16 616.796,207.191 616.796,205.967C616.796,205.202 617,204.488 617.408,203.876C617.816,203.213 618.428,202.754 619.193,202.397C619.958,202.091 621.284,201.785 623.12,201.53C626.384,201.071 628.832,200.51 630.464,199.847L630.464,201.479Z" style="fill:white;fill-rule:nonzero;"/>
        <path d="M649.698,209.282C649.035,209.282 648.525,209.18 648.168,208.976C647.811,208.721 647.556,208.466 647.403,208.058C647.25,207.701 647.148,206.885 647.148,205.61L647.148,190.106L651.636,190.106L651.636,186.638L647.148,186.638L647.148,177.407L642.66,180.11L642.66,186.638L639.345,186.638L639.345,190.106L642.66,190.106L642.66,205.355C642.66,208.058 642.864,209.792 643.221,210.659C643.578,211.475 644.19,212.189 645.108,212.699C645.975,213.209 647.25,213.464 648.882,213.464C649.851,213.464 650.973,213.311 652.248,213.056L651.636,209.129C650.82,209.231 650.157,209.282 649.698,209.282Z" style="fill:white;fill-rule:nonzero;"/>
        <path d="M660.553,181.691L660.553,176.591L656.065,176.591L656.065,181.691L660.553,181.691ZM660.553,213.107L660.553,186.638L656.065,186.638L656.065,213.107L660.553,213.107Z" style="fill:white;fill-rule:nonzero;"/>
        <path d="M669.129,210.098C671.424,212.495 674.433,213.668 678.105,213.668C680.451,213.668 682.542,213.107 684.531,212.036C686.469,210.965 687.948,209.486 688.968,207.497C689.988,205.559 690.498,202.907 690.498,199.49C690.498,195.308 689.325,192.044 687.03,189.647C684.735,187.25 681.777,186.077 678.105,186.077C674.841,186.077 672.087,187.046 669.792,189.035C667.089,191.381 665.712,195.002 665.712,199.847C665.712,204.335 666.834,207.752 669.129,210.098ZM672.546,192.299C674.025,190.616 675.861,189.8 678.105,189.8C680.349,189.8 682.185,190.616 683.664,192.299C685.143,193.982 685.908,196.481 685.908,199.745C685.908,203.213 685.143,205.763 683.664,207.446C682.185,209.129 680.349,209.996 678.105,209.996C675.861,209.996 674.025,209.18 672.546,207.497C671.067,205.814 670.302,203.264 670.302,199.898C670.302,196.532 671.067,193.982 672.546,192.299Z" style="fill:white;fill-rule:nonzero;"/>
        <path d="M700.247,213.107L700.247,198.674C700.247,195.257 700.961,192.962 702.338,191.789C703.715,190.565 705.347,189.953 707.234,189.953C708.458,189.953 709.478,190.208 710.345,190.769C711.263,191.279 711.875,192.044 712.232,192.911C712.589,193.829 712.742,195.206 712.742,197.042L712.742,213.107L717.23,213.107L717.23,196.838C717.23,194.798 717.128,193.319 716.975,192.503C716.72,191.228 716.261,190.106 715.598,189.188C714.935,188.27 713.915,187.505 712.589,186.944C711.263,186.383 709.784,186.077 708.203,186.077C704.531,186.077 701.726,187.505 699.788,190.412L699.788,186.638L695.759,186.638L695.759,213.107L700.247,213.107Z" style="fill:white;fill-rule:nonzero;"/>
        <path d="M752.02,213.107L752.02,208.823L729.631,208.823L729.631,196.379L749.776,196.379L749.776,192.095L729.631,192.095L729.631,180.875L751.153,180.875L751.153,176.591L724.786,176.591L724.786,213.107L752.02,213.107Z" style="fill:white;fill-rule:nonzero;"/>
        <path d="M782.62,197.654C782.62,202.244 781.855,205.355 780.376,206.987C778.846,208.568 776.347,209.384 772.777,209.384C770.737,209.384 769.003,208.976 767.575,208.16C766.147,207.344 765.127,206.171 764.515,204.692C763.954,203.162 763.648,200.867 763.648,197.654L763.648,176.591L758.803,176.591L758.803,197.705C758.803,201.53 759.262,204.59 760.18,206.834C761.098,209.078 762.679,210.761 764.821,211.934C767.014,213.107 769.819,213.719 773.236,213.719C776.755,213.719 779.56,213.056 781.753,211.679C783.895,210.353 785.374,208.568 786.241,206.426C787.057,204.284 787.465,201.326 787.465,197.705L787.465,176.591L782.62,176.591L782.62,197.654Z" style="fill:white;fill-rule:nonzero;"/>
    </g>
</svg>
