<?xml version="1.0" encoding="UTF-8" standalone="no"?>
<!DOCTYPE svg PUBLIC "-//W3C//DTD SVG 1.1//EN" "http://www.w3.org/Graphics/SVG/1.1/DTD/svg11.dtd">
<svg width="100%" height="100%" viewBox="0 0 106 55" version="1.1" xmlns="http://www.w3.org/2000/svg" xmlns:xlink="http://www.w3.org/1999/xlink" xml:space="preserve" xmlns:serif="http://www.serif.com/" style="fill-rule:evenodd;clip-rule:evenodd;stroke-linejoin:round;stroke-miterlimit:2;">
    <g id="Artboard1" transform="matrix(0.103366,0,0,0.0710379,0,0)">
        <rect x="0" y="0" width="1024" height="768" style="fill:none;"/>
        <g transform="matrix(1,0,0,1,0.541849,4.90487)">
            <g transform="matrix(9.67438,0,0,14.077,-33.8036,-43.8909)">
                <path d="M53.883,5.869C35.605,5.869 36.874,23.304 36.874,32.886L41.275,32.886C46.905,39.61 56.817,40.416 63.439,34.698C64.073,34.135 64.668,33.531 65.223,32.886L70.972,32.886C70.932,23.304 69.465,5.869 53.883,5.869ZM53.209,35.866C45.954,35.866 40.046,29.866 40.046,22.498C40.046,15.13 45.954,9.131 53.209,9.131C60.465,9.131 66.373,15.13 66.373,22.498C66.373,29.866 60.505,35.866 53.209,35.866Z" style="fill:white;fill-rule:nonzero;"/>
            </g>
            <g transform="matrix(9.67438,0,0,14.077,-33.8036,-43.8909)">
                <path d="M45.953,29.223C47.202,29.223 48.213,28.195 48.213,26.928C48.213,25.66 47.202,24.633 45.953,24.633C44.705,24.633 43.693,25.66 43.693,26.928C43.693,28.195 44.705,29.223 45.953,29.223Z" style="fill:white;fill-rule:nonzero;"/>
            </g>
            <g transform="matrix(9.67438,0,0,14.077,-33.8036,-43.8909)">
                <path d="M60.703,27.571C61.951,27.571 62.963,26.543 62.963,25.276C62.963,24.008 61.951,22.981 60.703,22.981C59.455,22.981 58.443,24.008 58.443,25.276C58.443,26.543 59.455,27.571 60.703,27.571Z" style="fill:white;fill-rule:nonzero;"/>
            </g>
            <g transform="matrix(9.67438,0,0,14.077,-33.8036,-43.8909)">
                <path d="M6.582,53.945L6.582,40.94L9.833,40.94L9.833,51.167L15.186,51.167L15.186,53.945L6.582,53.945Z" style="fill:white;fill-rule:nonzero;"/>
            </g>
            <g transform="matrix(9.67438,0,0,14.077,-33.8036,-43.8909)">
                <path d="M18.12,42.872C16.97,42.872 16.256,42.268 16.256,41.181C16.256,40.053 16.97,39.449 18.12,39.449C19.269,39.449 19.983,40.053 19.983,41.181C19.983,42.268 19.269,42.872 18.12,42.872ZM16.534,53.904L16.534,44.442L19.666,44.039L19.666,53.904L16.534,53.904Z" style="fill:white;fill-rule:nonzero;"/>
            </g>
            <g transform="matrix(9.67438,0,0,14.077,-33.8036,-43.8909)">
                <path d="M25.613,54.227C23.274,54.227 22.005,53.261 22.124,50.724L22.283,47.06L20.856,46.818L20.935,44.805L22.362,44.322L22.402,42.107L25.455,42.107L25.415,44.403L27.794,44.403L27.715,46.899L25.177,46.899L25.058,50.362C25.019,51.247 25.534,51.61 26.287,51.61C26.684,51.61 27.12,51.489 27.517,51.368L27.873,53.865C27.199,54.106 26.565,54.227 25.613,54.227Z" style="fill:white;fill-rule:nonzero;"/>
            </g>
            <g transform="matrix(9.67438,0,0,14.077,-33.8036,-43.8909)">
                <path d="M33.305,54.227C30.966,54.227 29.697,53.261 29.816,50.724L29.975,47.06L28.547,46.818L28.627,44.805L30.054,44.322L30.094,42.107L33.147,42.107L33.107,44.403L35.486,44.403L35.407,46.899L32.869,46.899L32.75,50.362C32.711,51.247 33.226,51.61 33.979,51.61C34.376,51.61 34.812,51.489 35.208,51.368L35.565,53.865C34.891,54.106 34.297,54.227 33.305,54.227Z" style="fill:white;fill-rule:nonzero;"/>
            </g>
            <g transform="matrix(9.67438,0,0,14.077,-33.8036,-43.8909)">
                <path d="M37.033,53.904L37.033,40.174L40.165,39.772L40.165,53.864L37.033,53.864L37.033,53.904Z" style="fill:white;fill-rule:nonzero;"/>
            </g>
            <g transform="matrix(9.67438,0,0,14.077,-33.8036,-43.8909)">
                <path d="M44.804,49.838C44.923,51.126 45.795,51.851 47.301,51.851C48.332,51.851 49.443,51.488 50.394,50.925L50.711,53.381C49.76,53.864 48.372,54.186 47.024,54.186C43.812,54.186 41.711,52.374 41.711,49.153C41.711,46.012 43.852,43.959 46.865,43.959C49.562,43.959 51.029,45.61 51.029,47.985C51.029,48.509 50.949,49.274 50.83,49.676L44.804,49.797L44.804,49.838ZM48.134,48.187L48.134,47.985C48.134,46.858 47.658,46.133 46.667,46.133C45.597,46.133 44.923,47.1 44.843,48.187L48.134,48.187Z" style="fill:white;fill-rule:nonzero;"/>
            </g>
            <g transform="matrix(9.67438,0,0,14.077,-33.8036,-43.8909)">
                <path d="M63.994,54.225C59.91,54.225 57.135,51.769 57.135,47.501C57.135,43.233 59.831,40.656 64.034,40.656C65.659,40.656 67.602,41.019 68.831,41.784L67.8,44.562C66.611,43.837 65.342,43.475 64.113,43.475C61.813,43.475 60.346,45.045 60.346,47.421C60.346,49.998 61.615,51.568 64.073,51.568C64.826,51.568 65.58,51.407 66.135,51.165L66.135,49.273L63.003,49.273L63.003,46.656L69.109,46.656L69.109,53.058C67.681,53.782 65.857,54.225 63.994,54.225Z" style="fill:white;fill-rule:nonzero;"/>
            </g>
            <g transform="matrix(9.67438,0,0,14.077,-33.8036,-43.8909)">
                <path d="M74.342,53.904L71.21,53.904L71.21,44.442L74.342,44.039L74.342,45.449C74.897,44.482 75.611,43.959 76.642,43.959C77.157,43.959 77.712,44.08 78.228,44.362L77.594,47.18C77.237,46.979 76.801,46.898 76.404,46.898C75.611,46.898 74.937,47.301 74.342,48.308L74.342,53.904Z" style="fill:white;fill-rule:nonzero;"/>
            </g>
            <g transform="matrix(9.67438,0,0,14.077,-33.8036,-43.8909)">
                <path d="M81.638,49.838C81.757,51.126 82.629,51.851 84.135,51.851C85.166,51.851 86.277,51.488 87.228,50.925L87.545,53.381C86.594,53.864 85.206,54.186 83.858,54.186C80.646,54.186 78.545,52.374 78.545,49.153C78.545,46.012 80.686,43.959 83.699,43.959C86.395,43.959 87.863,45.61 87.863,47.985C87.863,48.509 87.783,49.274 87.664,49.676L81.638,49.797L81.638,49.838ZM84.928,48.187L84.928,47.985C84.928,46.858 84.453,46.133 83.461,46.133C82.391,46.133 81.717,47.1 81.638,48.187L84.928,48.187Z" style="fill:white;fill-rule:nonzero;"/>
            </g>
            <g transform="matrix(9.67438,0,0,14.077,-33.8036,-43.8909)">
                <path d="M93.453,54.227C91.114,54.227 89.845,53.261 89.964,50.724L90.122,47.06L88.695,46.818L88.774,44.805L90.202,44.322L90.241,42.107L93.294,42.107L93.255,44.403L95.634,44.403L95.554,46.899L93.017,46.899L92.898,50.362C92.858,51.247 93.374,51.61 94.127,51.61C94.524,51.61 94.96,51.489 95.356,51.368L95.713,53.865C94.999,54.106 94.405,54.227 93.453,54.227Z" style="fill:white;fill-rule:nonzero;"/>
            </g>
            <g transform="matrix(9.67438,0,0,14.077,-33.8036,-43.8909)">
                <path d="M102.216,52.737C101.542,53.542 100.788,54.226 99.48,54.226C97.854,54.226 96.585,53.059 96.585,51.569C96.585,49.757 97.934,48.267 102.216,48.146L102.216,47.945C102.216,46.939 101.7,46.455 100.55,46.455C99.559,46.455 98.409,46.858 97.339,47.422L96.704,45.086C97.696,44.563 99.282,43.959 101.066,43.959C104.357,43.959 105.427,45.489 105.388,48.187L105.348,51.045C105.348,51.69 105.467,51.77 106.141,51.851L105.824,54.146C103.762,54.428 102.731,53.864 102.295,52.817L102.216,52.817L102.216,52.737ZM102.216,49.596C100.273,49.838 99.559,50.2 99.559,51.045C99.559,51.649 100.035,52.092 100.749,52.092C101.383,52.092 101.898,51.811 102.216,51.448L102.216,49.596Z" style="fill:white;fill-rule:nonzero;"/>
            </g>
        </g>
    </g>
</svg>
