<?xml version="1.0" encoding="UTF-8" standalone="no"?>
<!DOCTYPE svg PUBLIC "-//W3C//DTD SVG 1.1//EN" "http://www.w3.org/Graphics/SVG/1.1/DTD/svg11.dtd">
<svg width="100%" height="100%" viewBox="0 0 261 86" version="1.1" xmlns="http://www.w3.org/2000/svg" xmlns:xlink="http://www.w3.org/1999/xlink" xml:space="preserve" xmlns:serif="http://www.serif.com/" style="fill-rule:evenodd;clip-rule:evenodd;stroke-linejoin:round;stroke-miterlimit:2;">
    <g id="Artboard1" transform="matrix(0.254639,0,0,0.111526,0,0)">
        <rect x="0" y="0" width="1024" height="768" style="fill:none;"/>
        <g transform="matrix(0.756677,0,0,1.72766,-39.742,21.8472)">
            <path d="M559.07,199.716L559.07,241.325C559.07,245.798 555.787,248.934 551.466,248.934C546.991,248.934 543.711,245.798 543.711,241.325L543.711,199.119C543.711,189.723 538.639,184.504 528.944,184.504C523.876,184.504 518.953,185.251 514.327,186.591L514.327,241.325C514.327,245.798 511.047,248.934 506.724,248.934C502.249,248.934 498.969,245.798 498.969,241.325L498.969,183.014C498.969,178.838 501.357,175.556 505.68,174.214C512.987,171.828 520.742,170.336 528.944,170.336C548.927,170.336 559.07,180.477 559.07,199.716Z" style="fill:rgb(246,247,251);fill-rule:nonzero;"/>
            <path d="M592.321,199.864L592.321,202.548L621.702,202.548L621.702,200.308C621.702,190.319 617.376,184.504 607.086,184.504C596.798,184.504 592.321,190.319 592.321,199.864ZM637.064,200.308L637.064,207.617C637.064,211.944 633.633,216.716 627.668,216.716L592.321,216.716L592.321,219.552C592.321,227.305 596.2,234.912 607.086,234.912C613.65,234.912 618.272,233.271 622.15,231.78C624.384,230.887 625.88,230.437 627.367,230.437C631.394,230.437 634.377,233.57 634.377,237.445C634.377,240.13 633.186,242.518 630.351,243.86C623.641,247.287 612.754,248.934 607.086,248.934C587.85,248.934 576.961,236.107 576.961,218.954L576.961,200.308C576.961,182.269 588.595,170.336 607.086,170.336C625.43,170.336 637.064,182.416 637.064,200.308Z" style="fill:rgb(246,247,251);fill-rule:nonzero;"/>
            <path d="M748.613,177.941C748.613,178.838 748.463,179.883 748.165,180.927L730.118,241.024C728.479,246.395 725.199,248.934 720.427,248.934C715.506,248.934 712.374,246.245 710.88,241.175L699.1,199.567L687.316,241.175C685.825,246.245 682.545,248.934 677.475,248.934C672.998,248.934 669.72,246.395 668.079,241.024L650.034,180.927C649.735,179.883 649.588,178.838 649.588,177.941C649.588,173.915 652.271,170.336 657.193,170.336C660.324,170.336 663.307,171.828 664.351,175.707L677.622,226.263L690.298,177.349C691.493,172.871 694.626,170.336 699.1,170.336C703.573,170.336 706.704,172.871 707.899,177.349L720.724,226.263L733.85,175.707C734.893,171.828 737.875,170.336 741.155,170.336C746.075,170.336 748.613,173.915 748.613,177.941Z" style="fill:rgb(246,247,251);fill-rule:nonzero;"/>
            <path d="M779.179,149.011L779.179,171.828L793.791,171.828C798.716,171.828 801.398,174.96 801.398,179.135C801.398,183.311 798.716,186.443 793.791,186.443L779.179,186.443L779.179,225.815C779.179,231.78 782.011,234.615 786.787,234.615C790.515,234.615 791.855,233.867 794.239,233.867C798.27,233.867 801.398,236.254 801.398,240.877C801.398,244.752 798.716,247.289 794.986,248.034C792.003,248.631 789.47,248.934 786.337,248.934C773.661,248.934 763.817,240.877 763.817,225.367L763.817,149.011C763.817,144.536 767.099,141.402 771.572,141.402C775.895,141.402 779.179,144.536 779.179,149.011Z" style="fill:rgb(246,247,251);fill-rule:nonzero;"/>
            <path d="M827.644,200.609L827.644,218.66C827.644,229.244 833.758,234.912 843.751,234.912C853.744,234.912 859.709,229.244 859.709,218.66L859.709,200.609C859.709,190.174 853.744,184.504 843.751,184.504C833.758,184.504 827.644,190.174 827.644,200.609ZM875.067,201.505L875.067,217.759C875.067,237.298 863.738,248.934 843.751,248.934C824.364,248.934 812.281,237.896 812.281,217.759L812.281,201.505C812.281,181.52 824.065,170.336 843.751,170.336C863.588,170.336 875.067,181.819 875.067,201.505Z" style="fill:rgb(246,247,251);fill-rule:nonzero;"/>
            <path d="M953.81,199.716L953.81,241.325C953.81,245.798 950.526,248.934 946.201,248.934C941.726,248.934 938.448,245.798 938.448,241.325L938.448,199.119C938.448,189.723 933.376,184.504 923.681,184.504C918.613,184.504 913.692,185.251 909.065,186.591L909.065,241.325C909.065,245.798 905.787,248.934 901.46,248.934C896.989,248.934 893.707,245.798 893.707,241.325L893.707,183.014C893.707,178.838 896.091,175.556 900.418,174.214C907.727,171.828 915.482,170.336 923.681,170.336C943.666,170.336 953.81,180.477 953.81,199.716Z" style="fill:rgb(246,247,251);fill-rule:nonzero;"/>
            <path d="M1110.84,198.673L1110.84,241.175C1110.84,245.798 1107.71,248.934 1103.24,248.934C1098.76,248.934 1095.48,245.798 1095.48,241.175L1095.48,198.075C1095.48,189.124 1089.81,184.504 1082.36,184.504C1077.58,184.504 1073.41,186.142 1069.53,188.678L1069.53,241.175C1069.53,245.798 1066.4,248.934 1061.92,248.934C1057.45,248.934 1054.17,245.798 1054.17,241.175L1054.17,193.75C1054.17,189.872 1052.08,187.483 1049.69,186.142C1047.6,184.952 1045.22,184.504 1042.24,184.504C1037.17,184.504 1032.84,185.251 1028.22,186.591L1028.22,241.175C1028.22,245.798 1025.09,248.934 1020.61,248.934C1016.14,248.934 1012.86,245.798 1012.86,241.175L1012.86,183.014C1012.86,178.838 1015.39,175.556 1019.57,174.214C1026.88,171.828 1034.78,170.336 1042.84,170.336C1050.44,170.336 1056.71,172.425 1061.63,176.749C1067.59,172.726 1075.5,170.336 1082.2,170.336C1100.25,170.336 1110.84,180.927 1110.84,198.673Z" style="fill:rgb(246,247,251);fill-rule:nonzero;"/>
            <path d="M1144.09,199.864L1144.09,202.548L1173.47,202.548L1173.47,200.308C1173.47,190.319 1169.14,184.504 1158.85,184.504C1148.56,184.504 1144.09,190.319 1144.09,199.864ZM1188.83,200.308L1188.83,207.617C1188.83,211.944 1185.4,216.716 1179.44,216.716L1144.09,216.716L1144.09,219.552C1144.09,227.305 1147.97,234.912 1158.85,234.912C1165.42,234.912 1170.04,233.271 1173.92,231.78C1176.16,230.887 1177.65,230.437 1179.14,230.437C1183.17,230.437 1186.15,233.57 1186.15,237.449C1186.15,240.13 1184.96,242.518 1182.12,243.86C1175.41,247.289 1164.53,248.934 1158.85,248.934C1139.62,248.934 1128.73,236.107 1128.73,218.954L1128.73,200.308C1128.73,182.269 1140.37,170.336 1158.85,170.336C1177.2,170.336 1188.83,182.416 1188.83,200.308Z" style="fill:rgb(246,247,251);fill-rule:nonzero;"/>
            <path d="M1221.04,199.119L1221.04,220.147C1221.04,229.543 1226.25,234.912 1235.8,234.912C1240.87,234.912 1245.94,234.169 1250.56,232.823L1250.56,189.576C1246.24,186.441 1241.32,184.504 1235.8,184.504C1226.11,184.504 1221.04,189.576 1221.04,199.119ZM1265.93,149.009L1265.93,236.254C1265.93,240.283 1263.39,243.711 1259.51,245.05C1252.06,247.588 1244,248.934 1235.8,248.934C1217.31,248.934 1205.67,239.09 1205.67,219.251L1205.67,200.015C1205.67,180.477 1217.31,170.336 1234.31,170.336C1239.08,170.336 1245.49,171.828 1250.56,174.662L1250.56,149.009C1250.56,144.536 1253.84,141.402 1258.17,141.402C1262.64,141.402 1265.93,144.536 1265.93,149.009Z" style="fill:rgb(246,247,251);fill-rule:nonzero;"/>
            <path d="M1302.76,177.941L1302.76,241.322C1302.76,245.798 1299.63,248.934 1295.15,248.934C1290.68,248.934 1287.4,245.798 1287.4,241.322L1287.4,177.941C1287.4,173.467 1290.68,170.336 1295.15,170.336C1299.63,170.336 1302.76,173.467 1302.76,177.941ZM1304.1,150.352C1304.1,155.422 1300.07,159.449 1295.15,159.449C1290.24,159.449 1286.21,155.422 1286.21,150.352C1286.21,145.43 1290.24,141.402 1295.15,141.402C1300.07,141.402 1304.1,145.43 1304.1,150.352Z" style="fill:rgb(246,247,251);fill-rule:nonzero;"/>
            <path d="M1350.62,215.075C1341.38,215.075 1335.26,217.465 1335.26,225.07C1335.26,232.974 1341.38,234.912 1350.92,234.912C1355.69,234.912 1360.17,234.315 1364.64,233.12L1364.64,215.075L1350.62,215.075ZM1380.01,194.793L1380.01,237.001C1380.01,240.431 1378.06,244.011 1374.04,245.354C1368.07,247.436 1359.42,248.934 1351.07,248.934C1332.28,248.934 1319.9,241.92 1319.9,224.772C1319.9,207.467 1334.07,200.909 1351.07,200.909L1364.64,200.909L1364.64,194.941C1364.64,189.124 1360.32,184.504 1351.52,184.504C1346.45,184.504 1342.27,185.251 1338.39,187.192C1335.86,188.381 1333.92,189.425 1331.53,189.425C1327.95,189.425 1324.38,186.441 1324.38,182.269C1324.38,179.734 1325.71,177.494 1327.95,176.153C1332.13,173.618 1340.48,170.336 1350.92,170.336C1366.88,170.336 1380.01,178.392 1380.01,194.793Z" style="fill:rgb(246,247,251);fill-rule:nonzero;"/>
            <path d="M138.435,278.884L78.329,105.564L258.573,1.496L258.58,70.775L138.435,140.14L198.69,174.872L198.597,174.927L213.547,235.452L138.435,278.884Z" style="fill:rgb(0,170,231);fill-rule:nonzero;"/>
            <path d="M298.507,186.364L258.593,140.288L258.586,140.292L258.58,70.775L258.593,70.767L438.832,105.365L298.507,186.364Z" style="fill:rgb(240,86,98);fill-rule:nonzero;"/>
            <path d="M198.69,174.872L138.435,140.14L258.58,70.775L258.586,140.292L198.69,174.872Z" style="fill:rgb(76,75,105);fill-rule:nonzero;"/>
            <path d="M78.323,313.686L213.549,235.459L232.85,313.603L78.323,313.686ZM348.824,313.541L378.747,278.992L298.525,186.384L378.747,140.14L438.832,313.491L348.824,313.541Z" style="fill:rgb(250,199,4);fill-rule:nonzero;"/>
            <path d="M258.573,417.744L232.85,313.603L348.824,313.541L258.573,417.744ZM213.549,235.459L213.547,235.452L258.593,209.403L298.507,186.364L298.525,186.384L258.593,209.403L213.549,235.459Z" style="fill:rgb(80,184,72);fill-rule:nonzero;"/>
            <path d="M213.547,235.452L198.597,174.927L198.69,174.872L258.593,209.403L213.547,235.452Z" style="fill:rgb(0,158,78);fill-rule:nonzero;"/>
            <path d="M258.593,209.403L258.586,140.292L258.593,140.288L298.507,186.364L258.593,209.403Z" style="fill:rgb(114,79,58);fill-rule:nonzero;"/>
            <path d="M258.593,209.403L198.69,174.872L258.586,140.292L258.593,209.403Z" style="fill:rgb(55,75,61);fill-rule:nonzero;"/>
            <path d="M232.85,313.603L213.549,235.459L258.593,209.403L298.525,186.384L378.747,278.992L348.824,313.541L232.85,313.603Z" style="fill:rgb(93,155,67);fill-rule:nonzero;"/>
        </g>
    </g>
</svg>
