<?xml version="1.0" encoding="UTF-8" standalone="no"?>
<!DOCTYPE svg PUBLIC "-//W3C//DTD SVG 1.1//EN" "http://www.w3.org/Graphics/SVG/1.1/DTD/svg11.dtd">
<svg width="100%" height="100%" viewBox="0 0 157 71" version="1.1" xmlns="http://www.w3.org/2000/svg" xmlns:xlink="http://www.w3.org/1999/xlink" xml:space="preserve" xmlns:serif="http://www.serif.com/" style="fill-rule:evenodd;clip-rule:evenodd;stroke-linejoin:round;stroke-miterlimit:2;">
    <g id="Artboard1" transform="matrix(0.152828,0,0,0.0915439,0,0)">
        <rect x="0" y="0" width="1024" height="768" style="fill:none;"/>
        <g transform="matrix(6.54329,0,0,10.9237,24.4913,-19.1794)">
            <path d="M77.918,61.236C74.376,60.795 71.596,59.011 69.579,55.884C67.561,52.757 66.552,48.545 66.552,43.252C66.552,37.867 67.561,33.601 69.579,30.454C71.596,27.308 74.376,25.5 77.918,25.033L77.918,26.65C75.427,27.103 73.532,28.692 72.235,31.417C70.937,34.142 70.288,38.101 70.288,43.29C70.288,48.233 70.923,52.077 72.196,54.823C73.468,57.566 75.375,59.173 77.918,59.64L77.918,61.236Z" style="fill:rgb(239,65,54);fill-rule:nonzero;"/>
            <path d="M0.01,59.64C2.553,59.173 4.461,57.566 5.733,54.823C7.005,52.077 7.64,48.233 7.64,43.29C7.64,38.101 6.991,34.142 5.694,31.417C4.397,28.693 2.502,27.103 0.01,26.65L0.01,25.033C3.553,25.5 6.333,27.308 8.35,30.454C10.368,33.601 11.377,37.867 11.377,43.252C11.377,48.545 10.368,52.757 8.35,55.884C6.333,59.01 3.553,60.795 0.01,61.236L0.01,59.64Z" style="fill:rgb(239,65,54);fill-rule:nonzero;"/>
            <path d="M41.039,40.19L29.821,40.19L29.821,38.655C30.178,38.624 30.569,38.594 30.995,38.562C31.421,38.532 31.776,38.469 32.055,38.376C32.49,38.237 32.812,37.992 33.021,37.642C33.229,37.294 33.334,36.84 33.334,36.282L33.334,24.483C33.334,22.853 32.95,21.597 32.18,20.712C31.409,19.828 30.472,19.385 29.369,19.385C28.545,19.385 27.792,19.514 27.107,19.769C26.422,20.025 25.817,20.339 25.287,20.712C24.774,21.069 24.366,21.452 24.063,21.865C23.76,22.276 23.539,22.605 23.397,22.853L23.397,36.048C23.397,36.576 23.506,37.01 23.724,37.351C23.941,37.693 24.265,37.957 24.701,38.143C25.028,38.299 25.379,38.414 25.761,38.492C26.14,38.57 26.532,38.623 26.935,38.655L26.935,40.19L15.696,40.19L15.696,38.655C16.053,38.624 16.42,38.594 16.8,38.562C17.18,38.532 17.51,38.471 17.79,38.377C18.224,38.237 18.546,37.994 18.755,37.644C18.965,37.295 19.07,36.842 19.07,36.285L19.07,22.129C19.07,21.6 18.956,21.116 18.731,20.674C18.506,20.234 18.193,19.874 17.789,19.595C17.494,19.409 17.145,19.273 16.742,19.186C16.338,19.101 15.905,19.044 15.44,19.012L15.44,17.478L23.073,16.964L23.397,17.292L23.397,20.525L23.514,20.525C23.887,20.153 24.352,19.709 24.911,19.186C25.469,18.666 25.995,18.246 26.492,17.919C27.067,17.546 27.748,17.237 28.54,16.989C29.331,16.74 30.222,16.615 31.216,16.615C33.42,16.615 35.052,17.303 36.114,18.675C37.176,20.048 37.708,21.876 37.708,24.156L37.708,36.094C37.708,36.637 37.801,37.075 37.987,37.409C38.173,37.742 38.492,38.002 38.943,38.188C39.315,38.344 39.636,38.452 39.908,38.514C40.179,38.577 40.555,38.622 41.038,38.653L41.038,40.19L41.039,40.19Z" style="fill:white;fill-rule:nonzero;"/>
            <path d="M62.778,6.958C62.778,7.656 62.592,8.246 62.22,8.727C61.847,9.207 61.28,9.447 60.52,9.447C60.039,9.447 59.617,9.348 59.252,9.145C58.886,8.944 58.549,8.672 58.238,8.331C57.929,7.99 57.643,7.601 57.379,7.167C57.115,6.733 56.89,6.384 56.704,6.12C55.665,6.167 54.861,6.89 54.295,8.292C53.729,9.692 53.447,11.926 53.447,14.991L53.447,17.337L57.888,17.337L57.888,19.571L53.447,19.571L53.447,36.047C53.447,36.59 53.551,37.034 53.761,37.373C53.969,37.716 54.299,37.971 54.75,38.143C55.123,38.281 55.618,38.395 56.239,38.48C56.86,38.566 57.396,38.623 57.846,38.654L57.846,40.19L45.744,40.19L45.744,38.654C46.101,38.623 46.468,38.593 46.849,38.561C47.228,38.531 47.557,38.468 47.838,38.375C48.273,38.236 48.594,37.991 48.804,37.641C49.013,37.292 49.116,36.839 49.116,36.281L49.116,19.571L44.803,19.571L44.803,17.337L49.117,17.337L49.117,15.874C49.117,12.39 50.021,9.567 51.828,7.407C53.636,5.245 55.897,4.166 58.612,4.166C59.993,4.166 61.032,4.437 61.732,4.979C62.428,5.523 62.778,6.183 62.778,6.958Z" style="fill:white;fill-rule:nonzero;"/>
            <path d="M41.039,69.651L29.821,69.651L29.821,68.115C30.178,68.084 30.569,68.054 30.995,68.022C31.421,67.992 31.775,67.929 32.055,67.836C32.49,67.697 32.811,67.452 33.021,67.103C33.229,66.755 33.334,66.301 33.334,65.742L33.334,53.943C33.334,52.314 32.95,51.058 32.18,50.173C31.409,49.288 30.472,48.846 29.369,48.846C28.544,48.846 27.792,48.974 27.106,49.229C26.422,49.485 25.817,49.8 25.286,50.173C24.774,50.529 24.366,50.913 24.062,51.325C23.759,51.736 23.538,52.066 23.397,52.314L23.397,65.508C23.397,66.037 23.505,66.471 23.724,66.812C23.94,67.154 24.265,67.417 24.701,67.604C25.027,67.759 25.379,67.874 25.76,67.952C26.14,68.03 26.532,68.083 26.935,68.115L26.935,69.651L15.696,69.651L15.696,68.115C16.052,68.084 16.42,68.054 16.8,68.022C17.179,67.992 17.51,67.931 17.789,67.837C18.224,67.697 18.546,67.454 18.755,67.105C18.965,66.755 19.07,66.302 19.07,65.745L19.07,51.589C19.07,51.061 18.956,50.577 18.731,50.135C18.506,49.695 18.193,49.334 17.788,49.055C17.494,48.869 17.145,48.734 16.742,48.647C16.337,48.562 15.904,48.505 15.439,48.473L15.439,46.938L23.072,46.425L23.397,46.752L23.397,49.986L23.514,49.986C23.887,49.614 24.352,49.169 24.911,48.647C25.469,48.127 25.995,47.706 26.492,47.38C27.067,47.007 27.748,46.697 28.54,46.449C29.331,46.202 30.222,46.076 31.216,46.076C33.419,46.076 35.051,46.763 36.114,48.136C37.176,49.508 37.708,51.336 37.708,53.616L37.708,65.554C37.708,66.098 37.801,66.536 37.987,66.87C38.173,67.203 38.492,67.462 38.942,67.648C39.315,67.804 39.636,67.912 39.908,67.974C40.178,68.037 40.554,68.083 41.038,68.113L41.038,69.651L41.039,69.651Z" style="fill:white;fill-rule:nonzero;"/>
            <path d="M62.489,69.651L43.917,69.651L43.917,68.418L56.923,48.59L53.706,48.59C52.353,48.59 51.296,48.613 50.535,48.659C49.773,48.707 49.074,48.862 48.436,49.124C48.001,49.295 47.592,49.785 47.212,50.592C46.832,51.397 46.5,52.453 46.22,53.756L44.802,53.756L44.802,46.705L62.348,46.705L62.348,47.661L49.157,67.766C49.716,67.781 50.329,67.792 50.995,67.801C51.662,67.808 52.383,67.813 53.158,67.813C53.779,67.813 54.425,67.804 55.101,67.79C55.774,67.774 56.638,67.736 57.695,67.673C58.314,67.643 58.783,67.433 59.101,67.045C59.42,66.657 59.663,66.216 59.835,65.718C60.005,65.267 60.211,64.649 60.451,63.857C60.691,63.066 60.905,62.298 61.092,61.554L62.489,61.554L62.489,69.651Z" style="fill:white;fill-rule:nonzero;"/>
            <path d="M93.972,28.09C93.874,28.093 93.722,28.122 93.518,28.175C93.313,28.228 93.167,28.283 93.079,28.339C92.952,28.427 92.866,28.596 92.822,28.847C92.778,29.097 92.756,29.414 92.756,29.8L92.756,35.293L92.297,35.293L87.748,29.154L87.748,33.026C87.748,33.46 87.775,33.793 87.83,34.024C87.885,34.258 87.969,34.424 88.081,34.522C88.163,34.6 88.33,34.672 88.584,34.738C88.838,34.806 89.005,34.841 89.086,34.845L89.086,35.221L86.008,35.221L86.008,34.845C86.102,34.838 86.263,34.802 86.489,34.742C86.715,34.679 86.856,34.625 86.912,34.574C87.036,34.477 87.12,34.326 87.166,34.123C87.212,33.92 87.234,33.575 87.234,33.084L87.234,29.388C87.234,29.225 87.207,29.063 87.149,28.901C87.092,28.739 87.018,28.613 86.922,28.524C86.795,28.409 86.623,28.309 86.406,28.226C86.19,28.143 86.014,28.098 85.88,28.091L85.88,27.715L88.025,27.715L92.244,33.438L92.244,29.868C92.244,29.432 92.215,29.095 92.159,28.862C92.102,28.627 92.021,28.47 91.915,28.392C91.817,28.326 91.655,28.261 91.43,28.197C91.207,28.133 91.037,28.098 90.92,28.091L90.92,27.715L93.971,27.715L93.971,28.09L93.972,28.09Z" style="fill:white;fill-rule:nonzero;"/>
            <path d="M99.065,35.124C98.899,35.185 98.753,35.232 98.628,35.269C98.502,35.307 98.36,35.325 98.202,35.325C97.928,35.325 97.708,35.261 97.544,35.132C97.38,35.003 97.275,34.815 97.23,34.569L97.198,34.569C96.968,34.822 96.723,35.017 96.459,35.151C96.196,35.284 95.88,35.352 95.51,35.352C95.119,35.352 94.797,35.231 94.545,34.991C94.292,34.753 94.166,34.438 94.166,34.051C94.166,33.85 94.194,33.67 94.251,33.511C94.308,33.353 94.393,33.209 94.505,33.082C94.594,32.977 94.71,32.883 94.854,32.8C94.998,32.717 95.134,32.651 95.262,32.601C95.42,32.541 95.741,32.431 96.226,32.268C96.711,32.105 97.039,31.979 97.208,31.888L97.208,31.364C97.208,31.317 97.198,31.229 97.179,31.099C97.159,30.968 97.119,30.844 97.054,30.729C96.984,30.597 96.884,30.484 96.755,30.387C96.626,30.289 96.444,30.241 96.207,30.241C96.045,30.241 95.895,30.268 95.755,30.322C95.616,30.378 95.519,30.436 95.462,30.495C95.462,30.566 95.479,30.669 95.513,30.806C95.546,30.945 95.563,31.073 95.563,31.187C95.563,31.311 95.507,31.423 95.397,31.526C95.286,31.629 95.132,31.68 94.934,31.68C94.758,31.68 94.628,31.617 94.546,31.492C94.464,31.366 94.421,31.226 94.421,31.073C94.421,30.909 94.479,30.754 94.593,30.607C94.707,30.458 94.857,30.326 95.04,30.209C95.199,30.111 95.391,30.026 95.616,29.959C95.842,29.889 96.063,29.856 96.278,29.856C96.574,29.856 96.833,29.875 97.053,29.916C97.274,29.957 97.473,30.043 97.653,30.179C97.833,30.308 97.969,30.485 98.063,30.71C98.156,30.933 98.203,31.222 98.203,31.575C98.203,32.077 98.197,32.526 98.187,32.915C98.176,33.305 98.17,33.729 98.17,34.192C98.17,34.33 98.194,34.439 98.242,34.52C98.29,34.602 98.363,34.671 98.461,34.726C98.515,34.758 98.597,34.776 98.713,34.779C98.827,34.783 98.945,34.784 99.065,34.784L99.065,35.124ZM97.218,32.332C96.919,32.422 96.657,32.508 96.43,32.593C96.204,32.678 95.994,32.784 95.8,32.911C95.625,33.031 95.485,33.173 95.384,33.338C95.281,33.501 95.23,33.696 95.23,33.923C95.23,34.216 95.307,34.433 95.46,34.569C95.613,34.706 95.808,34.776 96.045,34.776C96.295,34.776 96.515,34.715 96.706,34.593C96.897,34.471 97.057,34.327 97.188,34.161L97.218,32.332Z" style="fill:white;fill-rule:nonzero;"/>
            <path d="M105.114,35.124L103.29,35.241L103.21,35.167L103.21,34.681L103.167,34.67C102.985,34.873 102.758,35.041 102.489,35.173C102.22,35.303 101.943,35.368 101.658,35.368C101.362,35.368 101.075,35.302 100.799,35.169C100.523,35.038 100.282,34.852 100.078,34.611C99.871,34.369 99.706,34.076 99.585,33.734C99.464,33.391 99.403,33.014 99.403,32.601C99.403,32.223 99.468,31.865 99.599,31.527C99.729,31.189 99.908,30.892 100.137,30.638C100.351,30.403 100.615,30.214 100.927,30.073C101.237,29.933 101.556,29.862 101.88,29.862C102.123,29.862 102.362,29.892 102.596,29.955C102.83,30.015 103.031,30.095 103.2,30.19L103.2,28.371C103.2,28.222 103.175,28.087 103.126,27.965C103.076,27.843 103.007,27.75 102.92,27.688C102.822,27.62 102.688,27.573 102.52,27.542C102.353,27.512 102.173,27.49 101.979,27.477L101.979,27.148L104.116,27.031L104.195,27.111L104.195,34.139C104.195,34.263 104.219,34.368 104.267,34.454C104.314,34.54 104.384,34.613 104.475,34.674C104.542,34.716 104.639,34.742 104.766,34.754C104.893,34.764 105.009,34.771 105.115,34.774L105.115,35.124L105.114,35.124ZM103.199,34.211L103.199,31.161C103.171,31.068 103.125,30.969 103.062,30.863C102.999,30.757 102.92,30.661 102.825,30.572C102.723,30.484 102.604,30.41 102.466,30.352C102.329,30.295 102.169,30.266 101.986,30.266C101.775,30.266 101.58,30.319 101.402,30.429C101.224,30.539 101.066,30.696 100.929,30.901C100.799,31.098 100.696,31.35 100.621,31.654C100.545,31.959 100.507,32.297 100.507,32.666C100.507,32.962 100.535,33.231 100.592,33.474C100.649,33.717 100.744,33.939 100.877,34.147C101,34.346 101.158,34.504 101.35,34.625C101.542,34.743 101.769,34.804 102.034,34.804C102.315,34.804 102.548,34.742 102.733,34.618C102.917,34.494 103.073,34.359 103.199,34.211Z" style="fill:white;fill-rule:nonzero;"/>
            <path d="M110.614,35.124C110.448,35.185 110.303,35.232 110.177,35.269C110.051,35.307 109.909,35.325 109.752,35.325C109.477,35.325 109.257,35.261 109.093,35.132C108.93,35.003 108.824,34.815 108.779,34.569L108.747,34.569C108.517,34.822 108.272,35.017 108.008,35.151C107.746,35.284 107.429,35.352 107.059,35.352C106.668,35.352 106.347,35.231 106.094,34.991C105.842,34.753 105.715,34.438 105.715,34.051C105.715,33.85 105.743,33.67 105.8,33.511C105.856,33.353 105.942,33.209 106.055,33.082C106.143,32.977 106.259,32.883 106.403,32.8C106.548,32.717 106.684,32.651 106.811,32.601C106.969,32.541 107.291,32.431 107.775,32.268C108.259,32.105 108.588,31.979 108.757,31.888L108.757,31.364C108.757,31.317 108.747,31.229 108.728,31.099C108.709,30.968 108.668,30.844 108.603,30.729C108.533,30.597 108.433,30.484 108.304,30.387C108.174,30.289 107.993,30.241 107.756,30.241C107.594,30.241 107.444,30.268 107.305,30.322C107.165,30.378 107.068,30.436 107.011,30.495C107.011,30.566 107.028,30.669 107.062,30.806C107.095,30.945 107.112,31.073 107.112,31.187C107.112,31.311 107.057,31.423 106.946,31.526C106.835,31.629 106.681,31.68 106.483,31.68C106.308,31.68 106.178,31.617 106.095,31.492C106.013,31.366 105.971,31.226 105.971,31.073C105.971,30.909 106.028,30.754 106.142,30.607C106.256,30.458 106.406,30.326 106.589,30.209C106.748,30.111 106.94,30.026 107.165,29.959C107.391,29.889 107.612,29.856 107.827,29.856C108.123,29.856 108.382,29.875 108.602,29.916C108.823,29.957 109.022,30.043 109.202,30.179C109.382,30.308 109.519,30.485 109.612,30.71C109.705,30.933 109.753,31.222 109.753,31.575C109.753,32.077 109.746,32.526 109.736,32.915C109.726,33.305 109.72,33.729 109.72,34.192C109.72,34.33 109.743,34.439 109.792,34.52C109.839,34.602 109.912,34.671 110.011,34.726C110.064,34.758 110.147,34.776 110.262,34.779C110.376,34.783 110.494,34.784 110.614,34.784L110.614,35.124ZM108.768,32.332C108.468,32.422 108.205,32.508 107.979,32.593C107.753,32.678 107.544,32.784 107.35,32.911C107.174,33.031 107.034,33.173 106.933,33.338C106.831,33.501 106.779,33.696 106.779,33.923C106.779,34.216 106.856,34.433 107.009,34.569C107.163,34.706 107.357,34.776 107.594,34.776C107.844,34.776 108.064,34.715 108.255,34.593C108.446,34.471 108.607,34.327 108.737,34.161L108.768,32.332Z" style="fill:white;fill-rule:nonzero;"/>
            <path d="M113.387,35.358C112.632,35.358 112.041,35.108 111.615,34.607C111.189,34.106 110.976,33.434 110.976,32.593C110.976,32.226 111.033,31.883 111.147,31.564C111.261,31.244 111.428,30.955 111.647,30.693C111.855,30.443 112.116,30.24 112.429,30.088C112.743,29.934 113.086,29.857 113.456,29.857C113.967,29.857 114.382,29.98 114.703,30.225C115.023,30.47 115.185,30.803 115.185,31.227C115.185,31.403 115.142,31.56 115.058,31.696C114.974,31.831 114.834,31.898 114.641,31.898C114.433,31.898 114.272,31.845 114.156,31.741C114.042,31.634 113.985,31.517 113.985,31.387C113.985,31.23 114.006,31.066 114.048,30.899C114.091,30.732 114.115,30.61 114.123,30.532C114.059,30.424 113.965,30.351 113.84,30.314C113.715,30.277 113.581,30.258 113.437,30.258C113.268,30.258 113.107,30.296 112.954,30.367C112.8,30.44 112.651,30.573 112.507,30.766C112.377,30.945 112.272,31.182 112.191,31.481C112.11,31.78 112.07,32.139 112.07,32.555C112.07,33.21 112.214,33.745 112.505,34.16C112.796,34.575 113.177,34.781 113.649,34.781C113.99,34.781 114.276,34.698 114.506,34.532C114.737,34.365 114.951,34.117 115.147,33.783L115.486,34.005C115.253,34.421 114.946,34.751 114.565,34.993C114.186,35.236 113.793,35.358 113.387,35.358ZM115.079,27.235L113.815,29.092C113.755,29.17 113.704,29.223 113.662,29.257C113.619,29.291 113.522,29.308 113.371,29.308C113.212,29.308 113.107,29.288 113.056,29.251C113.005,29.212 112.951,29.151 112.894,29.07L111.642,27.235L111.896,27.066L113.35,28.51L114.825,27.066L115.079,27.235Z" style="fill:white;fill-rule:nonzero;"/>
            <path d="M121.637,35.222L119.089,35.222L119.089,34.872C119.17,34.865 119.258,34.858 119.355,34.852C119.452,34.845 119.533,34.83 119.596,34.809C119.694,34.777 119.768,34.721 119.815,34.642C119.863,34.564 119.887,34.461 119.887,34.335L119.887,31.652C119.887,31.283 119.799,30.997 119.624,30.795C119.45,30.594 119.237,30.494 118.985,30.494C118.798,30.494 118.628,30.523 118.472,30.581C118.316,30.639 118.178,30.71 118.058,30.795C117.941,30.877 117.849,30.965 117.78,31.059C117.711,31.151 117.66,31.226 117.629,31.284L117.629,34.281C117.629,34.401 117.653,34.501 117.703,34.577C117.753,34.655 117.826,34.716 117.925,34.758C117.999,34.792 118.079,34.819 118.165,34.838C118.252,34.855 118.34,34.867 118.433,34.874L118.433,35.223L115.878,35.223L115.878,34.874C115.96,34.867 116.043,34.86 116.13,34.854C116.216,34.847 116.292,34.832 116.354,34.811C116.453,34.779 116.526,34.723 116.574,34.646C116.622,34.566 116.645,34.463 116.645,34.336L116.645,31.119C116.645,30.999 116.62,30.888 116.569,30.788C116.517,30.689 116.446,30.606 116.354,30.543C116.287,30.501 116.208,30.471 116.117,30.451C116.026,30.432 115.926,30.419 115.82,30.412L115.82,30.06L117.554,29.943L117.63,30.017L117.63,30.752L117.656,30.752C117.741,30.667 117.846,30.566 117.973,30.447C118.099,30.33 118.22,30.234 118.332,30.16C118.462,30.075 118.618,30.004 118.798,29.948C118.977,29.893 119.18,29.863 119.406,29.863C119.906,29.863 120.278,30.019 120.519,30.332C120.76,30.643 120.881,31.059 120.881,31.578L120.881,34.291C120.881,34.415 120.902,34.513 120.945,34.589C120.987,34.666 121.059,34.725 121.161,34.767C121.246,34.803 121.319,34.826 121.381,34.841C121.442,34.855 121.528,34.865 121.637,34.872L121.637,35.222Z" style="fill:white;fill-rule:nonzero;"/>
            <path d="M124.851,35.222L122.332,35.222L122.332,34.872C122.413,34.865 122.496,34.858 122.583,34.852C122.67,34.846 122.745,34.83 122.808,34.809C122.907,34.777 122.98,34.721 123.027,34.644C123.076,34.564 123.099,34.461 123.099,34.335L123.099,31.117C123.099,31.006 123.073,30.902 123.022,30.809C122.971,30.715 122.899,30.637 122.808,30.574C122.741,30.532 122.644,30.494 122.517,30.466C122.391,30.436 122.275,30.417 122.168,30.411L122.168,30.06L124.009,29.943L124.082,30.017L124.082,34.269C124.082,34.393 124.106,34.494 124.153,34.575C124.201,34.657 124.275,34.717 124.377,34.756C124.454,34.787 124.529,34.814 124.604,34.833C124.677,34.852 124.76,34.865 124.851,34.872L124.851,35.222ZM124.653,27.498C124.653,27.632 124.623,27.742 124.561,27.827C124.499,27.911 124.408,28.001 124.288,28.096C124.113,28.238 123.882,28.417 123.598,28.637C123.315,28.855 123.008,29.093 122.681,29.35L122.481,29.181C122.797,28.713 123.019,28.382 123.144,28.189C123.27,27.996 123.404,27.784 123.549,27.551C123.658,27.372 123.764,27.25 123.866,27.184C123.968,27.12 124.086,27.086 124.22,27.086C124.347,27.086 124.451,27.13 124.531,27.216C124.612,27.302 124.653,27.397 124.653,27.498Z" style="fill:white;fill-rule:nonzero;"/>
            <path d="M131.989,27.668C131.989,27.828 131.947,27.961 131.863,28.071C131.778,28.179 131.649,28.235 131.476,28.235C131.366,28.235 131.27,28.211 131.188,28.165C131.105,28.119 131.028,28.057 130.958,27.981C130.887,27.903 130.822,27.815 130.762,27.715C130.702,27.617 130.65,27.537 130.608,27.478C130.372,27.489 130.189,27.653 130.06,27.971C129.931,28.288 129.867,28.797 129.867,29.494L129.867,30.027L131.21,30.027L131.21,30.535L129.867,30.535L129.867,34.278C129.867,34.402 129.89,34.504 129.939,34.581C129.987,34.658 130.061,34.717 130.163,34.756C130.248,34.786 130.362,34.813 130.502,34.832C130.643,34.85 130.765,34.864 130.867,34.871L130.867,35.221L128.116,35.221L128.116,34.871C128.198,34.864 128.281,34.857 128.368,34.851C128.454,34.845 128.53,34.829 128.593,34.808C128.692,34.776 128.764,34.72 128.812,34.641C128.86,34.563 128.884,34.46 128.884,34.334L128.884,30.535L127.853,30.535L127.853,30.028L128.884,30.028L128.884,29.694C128.884,28.903 129.088,28.261 129.501,27.77C129.911,27.279 130.425,27.033 131.042,27.033C131.355,27.033 131.592,27.096 131.75,27.219C131.91,27.342 131.989,27.492 131.989,27.668Z" style="fill:white;fill-rule:nonzero;"/>
            <path d="M136.547,32.56C136.547,32.926 136.49,33.287 136.373,33.642C136.256,33.995 136.09,34.297 135.875,34.544C135.632,34.824 135.349,35.034 135.028,35.173C134.707,35.31 134.347,35.378 133.949,35.378C133.615,35.378 133.3,35.316 133,35.19C132.7,35.066 132.434,34.883 132.201,34.643C131.971,34.407 131.788,34.119 131.652,33.779C131.516,33.438 131.449,33.057 131.449,32.635C131.449,31.819 131.686,31.154 132.161,30.634C132.635,30.116 133.257,29.857 134.027,29.857C134.758,29.857 135.36,30.103 135.834,30.595C136.31,31.087 136.547,31.741 136.547,32.56ZM135.452,32.57C135.452,32.306 135.426,32.027 135.373,31.733C135.319,31.438 135.24,31.188 135.134,30.985C135.021,30.764 134.873,30.59 134.689,30.459C134.506,30.325 134.281,30.259 134.017,30.259C133.744,30.259 133.512,30.327 133.32,30.46C133.127,30.594 132.971,30.778 132.85,31.011C132.738,31.226 132.658,31.471 132.613,31.747C132.566,32.021 132.544,32.287 132.544,32.544C132.544,32.883 132.571,33.196 132.626,33.484C132.68,33.772 132.768,34.027 132.888,34.254C133.009,34.48 133.16,34.657 133.341,34.785C133.523,34.914 133.749,34.978 134.017,34.978C134.459,34.978 134.808,34.765 135.066,34.339C135.323,33.911 135.452,33.322 135.452,32.57Z" style="fill:white;fill-rule:nonzero;"/>
            <path d="M142.857,35.222L140.308,35.222L140.308,34.872C140.39,34.865 140.478,34.858 140.575,34.852C140.672,34.845 140.753,34.83 140.816,34.809C140.915,34.777 140.988,34.721 141.036,34.642C141.084,34.564 141.108,34.461 141.108,34.335L141.108,31.652C141.108,31.283 141.019,30.997 140.844,30.795C140.67,30.594 140.456,30.494 140.205,30.494C140.018,30.494 139.847,30.523 139.692,30.581C139.536,30.639 139.398,30.71 139.277,30.795C139.161,30.877 139.069,30.965 138.999,31.059C138.931,31.151 138.88,31.226 138.849,31.284L138.849,34.281C138.849,34.401 138.873,34.501 138.922,34.577C138.973,34.655 139.046,34.716 139.145,34.758C139.219,34.792 139.299,34.819 139.385,34.838C139.472,34.855 139.56,34.867 139.653,34.874L139.653,35.223L137.098,35.223L137.098,34.874C137.18,34.867 137.263,34.86 137.349,34.854C137.436,34.847 137.511,34.832 137.574,34.811C137.672,34.779 137.746,34.723 137.794,34.646C137.841,34.566 137.865,34.463 137.865,34.336L137.865,31.119C137.865,30.999 137.84,30.888 137.788,30.788C137.736,30.689 137.665,30.606 137.574,30.543C137.507,30.501 137.428,30.471 137.336,30.451C137.245,30.432 137.146,30.419 137.04,30.412L137.04,30.06L138.775,29.943L138.85,30.017L138.85,30.752L138.876,30.752C138.96,30.667 139.066,30.566 139.193,30.447C139.319,30.33 139.439,30.234 139.552,30.16C139.682,30.075 139.838,30.004 140.017,29.948C140.197,29.893 140.399,29.863 140.625,29.863C141.126,29.863 141.498,30.019 141.738,30.332C141.98,30.643 142.101,31.059 142.101,31.578L142.101,34.291C142.101,34.415 142.122,34.513 142.165,34.589C142.207,34.666 142.279,34.725 142.381,34.767C142.466,34.803 142.539,34.826 142.6,34.841C142.662,34.855 142.748,34.865 142.857,34.872L142.857,35.222Z" style="fill:white;fill-rule:nonzero;"/>
            <path d="M148.999,35.124L147.175,35.241L147.095,35.167L147.095,34.681L147.053,34.67C146.87,34.873 146.643,35.041 146.374,35.173C146.105,35.303 145.828,35.368 145.543,35.368C145.247,35.368 144.96,35.302 144.684,35.169C144.408,35.038 144.167,34.852 143.964,34.611C143.756,34.369 143.591,34.076 143.47,33.734C143.349,33.391 143.288,33.014 143.288,32.601C143.288,32.223 143.353,31.865 143.484,31.527C143.615,31.189 143.793,30.892 144.023,30.638C144.237,30.403 144.5,30.214 144.812,30.073C145.123,29.933 145.441,29.862 145.765,29.862C146.008,29.862 146.247,29.892 146.481,29.955C146.716,30.015 146.917,30.095 147.086,30.19L147.086,28.371C147.086,28.222 147.06,28.087 147.011,27.965C146.962,27.843 146.892,27.75 146.805,27.688C146.707,27.62 146.573,27.573 146.406,27.542C146.238,27.512 146.058,27.49 145.864,27.477L145.864,27.148L148.001,27.031L148.08,27.111L148.08,34.139C148.08,34.263 148.104,34.368 148.152,34.454C148.2,34.54 148.269,34.613 148.361,34.674C148.427,34.716 148.524,34.742 148.652,34.754C148.778,34.764 148.894,34.771 149,34.774L149,35.124L148.999,35.124ZM147.085,34.211L147.085,31.161C147.056,31.068 147.01,30.969 146.947,30.863C146.884,30.757 146.805,30.661 146.711,30.572C146.608,30.484 146.489,30.41 146.351,30.352C146.214,30.295 146.054,30.266 145.871,30.266C145.66,30.266 145.464,30.319 145.286,30.429C145.11,30.539 144.951,30.696 144.814,30.901C144.684,31.098 144.581,31.35 144.506,31.654C144.431,31.959 144.393,32.297 144.393,32.666C144.393,32.962 144.42,33.231 144.477,33.474C144.535,33.717 144.629,33.939 144.762,34.147C144.885,34.346 145.043,34.504 145.234,34.625C145.427,34.743 145.655,34.804 145.919,34.804C146.2,34.804 146.433,34.742 146.618,34.618C146.802,34.494 146.958,34.359 147.085,34.211Z" style="fill:white;fill-rule:nonzero;"/>
            <path d="M91.698,46.919L89.149,46.919L89.149,46.569C89.231,46.562 89.319,46.555 89.416,46.549C89.513,46.542 89.594,46.527 89.658,46.507C89.756,46.475 89.829,46.418 89.877,46.34C89.925,46.262 89.949,46.158 89.949,46.032L89.949,43.349C89.949,42.98 89.861,42.694 89.686,42.493C89.511,42.292 89.298,42.191 89.046,42.191C88.859,42.191 88.689,42.22 88.533,42.278C88.377,42.337 88.239,42.408 88.119,42.493C88.002,42.574 87.91,42.662 87.841,42.756C87.772,42.849 87.721,42.923 87.69,42.981L87.69,45.978C87.69,46.099 87.714,46.198 87.763,46.275C87.814,46.353 87.887,46.413 87.986,46.456C88.06,46.489 88.14,46.516 88.226,46.535C88.313,46.553 88.401,46.564 88.494,46.571L88.494,46.921L85.939,46.921L85.939,46.571C86.021,46.564 86.104,46.557 86.19,46.551C86.277,46.545 86.352,46.529 86.415,46.508C86.513,46.476 86.587,46.42 86.635,46.343C86.682,46.263 86.706,46.16 86.706,46.034L86.706,42.817C86.706,42.696 86.681,42.586 86.629,42.486C86.578,42.386 86.507,42.303 86.415,42.241C86.348,42.198 86.269,42.168 86.177,42.148C86.086,42.13 85.987,42.116 85.881,42.109L85.881,41.757L87.616,41.64L87.691,41.715L87.691,42.449L87.717,42.449C87.802,42.364 87.907,42.263 88.034,42.144C88.16,42.027 88.281,41.931 88.393,41.857C88.523,41.772 88.679,41.701 88.858,41.645C89.038,41.59 89.24,41.561 89.466,41.561C89.967,41.561 90.339,41.717 90.58,42.029C90.821,42.34 90.942,42.756 90.942,43.276L90.942,45.989C90.942,46.112 90.963,46.21 91.006,46.287C91.048,46.363 91.12,46.422 91.222,46.464C91.307,46.5 91.38,46.523 91.441,46.539C91.503,46.553 91.589,46.562 91.698,46.569L91.698,46.919Z" style="fill:white;fill-rule:nonzero;"/>
            <path d="M96.762,45.693C96.543,46.108 96.25,46.439 95.883,46.686C95.516,46.932 95.095,47.056 94.62,47.056C94.199,47.056 93.831,46.982 93.517,46.835C93.202,46.686 92.941,46.485 92.737,46.231C92.533,45.977 92.38,45.681 92.28,45.343C92.179,45.005 92.129,44.646 92.129,44.27C92.129,43.931 92.183,43.6 92.291,43.274C92.399,42.947 92.556,42.654 92.764,42.393C92.965,42.142 93.215,41.94 93.512,41.787C93.81,41.633 94.143,41.557 94.515,41.557C94.895,41.557 95.221,41.616 95.493,41.736C95.765,41.856 95.984,42.02 96.154,42.228C96.317,42.425 96.437,42.658 96.516,42.926C96.595,43.196 96.636,43.485 96.636,43.799L96.636,44.148L93.183,44.148C93.183,44.49 93.215,44.801 93.28,45.08C93.345,45.359 93.448,45.605 93.589,45.818C93.727,46.023 93.906,46.184 94.128,46.303C94.351,46.421 94.615,46.48 94.922,46.48C95.235,46.48 95.507,46.408 95.734,46.26C95.961,46.113 96.181,45.847 96.393,45.465L96.762,45.693ZM95.592,43.704C95.592,43.506 95.575,43.296 95.541,43.072C95.508,42.846 95.454,42.658 95.38,42.506C95.299,42.345 95.188,42.213 95.047,42.112C94.905,42.011 94.724,41.958 94.502,41.958C94.131,41.958 93.824,42.112 93.579,42.419C93.334,42.728 93.201,43.157 93.18,43.704L95.592,43.704Z" style="fill:white;fill-rule:nonzero;"/>
            <path d="M101.477,46.921L97.257,46.921L97.257,46.64L100.213,42.135L99.482,42.135C99.175,42.135 98.933,42.14 98.76,42.15C98.588,42.161 98.428,42.196 98.283,42.255C98.185,42.294 98.091,42.406 98.006,42.59C97.918,42.774 97.844,43.012 97.779,43.309L97.457,43.309L97.457,41.705L101.446,41.705L101.446,41.923L98.447,46.493C98.574,46.496 98.713,46.498 98.865,46.5C99.017,46.501 99.18,46.503 99.357,46.503C99.497,46.503 99.644,46.501 99.798,46.498C99.952,46.494 100.148,46.484 100.388,46.471C100.529,46.464 100.635,46.417 100.707,46.329C100.779,46.241 100.835,46.139 100.874,46.028C100.913,45.924 100.959,45.784 101.013,45.605C101.068,45.424 101.116,45.25 101.159,45.081L101.476,45.081L101.476,46.921L101.477,46.921Z" style="fill:white;fill-rule:nonzero;"/>
            <path d="M107.105,46.824C106.94,46.884 106.794,46.932 106.669,46.969C106.543,47.006 106.401,47.025 106.243,47.025C105.969,47.025 105.748,46.961 105.584,46.832C105.42,46.703 105.315,46.515 105.27,46.268L105.238,46.268C105.008,46.522 104.763,46.717 104.5,46.85C104.237,46.984 103.921,47.051 103.55,47.051C103.159,47.051 102.837,46.931 102.585,46.691C102.333,46.453 102.207,46.138 102.207,45.75C102.207,45.55 102.235,45.37 102.292,45.211C102.348,45.053 102.433,44.909 102.545,44.782C102.634,44.677 102.75,44.583 102.894,44.5C103.038,44.416 103.174,44.351 103.302,44.301C103.46,44.241 103.782,44.131 104.267,43.968C104.751,43.805 105.079,43.678 105.248,43.588L105.248,43.064C105.248,43.017 105.238,42.929 105.219,42.798C105.2,42.668 105.159,42.544 105.094,42.429C105.024,42.297 104.924,42.183 104.795,42.086C104.666,41.989 104.485,41.941 104.248,41.941C104.086,41.941 103.936,41.968 103.796,42.022C103.657,42.078 103.559,42.136 103.502,42.195C103.502,42.266 103.519,42.369 103.553,42.506C103.586,42.645 103.603,42.772 103.603,42.887C103.603,43.011 103.548,43.123 103.437,43.225C103.326,43.329 103.172,43.38 102.974,43.38C102.798,43.38 102.668,43.317 102.586,43.192C102.504,43.066 102.461,42.926 102.461,42.772C102.461,42.609 102.519,42.454 102.633,42.306C102.747,42.157 102.897,42.026 103.08,41.909C103.239,41.811 103.431,41.726 103.657,41.658C103.883,41.589 104.104,41.555 104.319,41.555C104.615,41.555 104.873,41.575 105.093,41.616C105.314,41.657 105.513,41.742 105.693,41.878C105.873,42.008 106.01,42.185 106.104,42.409C106.197,42.634 106.244,42.921 106.244,43.275C106.244,43.777 106.238,44.226 106.228,44.615C106.217,45.005 106.211,45.429 106.211,45.892C106.211,46.03 106.235,46.139 106.283,46.22C106.331,46.301 106.404,46.371 106.502,46.426C106.556,46.458 106.638,46.475 106.754,46.479C106.868,46.482 106.986,46.484 107.105,46.484L107.105,46.824ZM105.258,44.032C104.959,44.122 104.697,44.208 104.471,44.293C104.245,44.378 104.035,44.484 103.841,44.611C103.665,44.731 103.525,44.873 103.424,45.038C103.322,45.201 103.27,45.396 103.27,45.623C103.27,45.916 103.347,46.132 103.5,46.269C103.654,46.406 103.849,46.475 104.086,46.475C104.336,46.475 104.556,46.415 104.747,46.293C104.937,46.17 105.097,46.027 105.228,45.861L105.258,44.032ZM105.682,39.198C105.682,39.331 105.652,39.441 105.59,39.526C105.529,39.611 105.438,39.7 105.318,39.795C105.142,39.937 104.912,40.117 104.628,40.336C104.345,40.554 104.038,40.792 103.711,41.05L103.51,40.881C103.827,40.412 104.048,40.081 104.174,39.888C104.3,39.695 104.434,39.483 104.578,39.25C104.688,39.071 104.793,38.949 104.896,38.883C104.998,38.819 105.116,38.785 105.25,38.785C105.376,38.785 105.481,38.829 105.561,38.915C105.641,39.002 105.682,39.096 105.682,39.198Z" style="fill:white;fill-rule:nonzero;"/>
            <path d="M112.595,42.027C112.436,42.056 112.286,42.114 112.143,42.199C112,42.285 111.878,42.438 111.776,42.657C111.568,43.129 111.353,43.621 111.131,44.134C110.909,44.646 110.678,45.187 110.438,45.75C110.367,45.913 110.292,46.103 110.212,46.327C110.133,46.548 110.06,46.762 109.992,46.966L109.58,46.966C109.245,46.137 108.937,45.383 108.655,44.7C108.373,44.018 108.08,43.319 107.777,42.604C107.706,42.44 107.592,42.314 107.435,42.224C107.278,42.133 107.121,42.076 106.961,42.053L106.961,41.703L109.375,41.703L109.375,42.074C109.269,42.077 109.137,42.099 108.978,42.14C108.819,42.18 108.741,42.236 108.741,42.305C108.741,42.317 108.75,42.344 108.767,42.388C108.785,42.432 108.802,42.481 108.82,42.539C108.964,42.898 109.168,43.401 109.432,44.043C109.696,44.688 109.91,45.209 110.075,45.603C110.201,45.299 110.361,44.924 110.554,44.471C110.747,44.021 110.954,43.517 111.176,42.961C111.211,42.866 111.245,42.778 111.276,42.695C111.308,42.612 111.325,42.528 111.325,42.444C111.325,42.383 111.295,42.328 111.236,42.281C111.179,42.233 111.109,42.192 111.028,42.157C110.947,42.121 110.867,42.096 110.79,42.077C110.713,42.06 110.65,42.048 110.6,42.04L110.6,41.701L112.595,41.701L112.595,42.027Z" style="fill:white;fill-rule:nonzero;"/>
            <path d="M115.689,46.92L113.17,46.92L113.17,46.57C113.252,46.563 113.335,46.556 113.422,46.55C113.508,46.544 113.584,46.528 113.647,46.507C113.746,46.475 113.818,46.419 113.866,46.342C113.914,46.262 113.938,46.159 113.938,46.033L113.938,42.816C113.938,42.704 113.912,42.601 113.861,42.507C113.81,42.413 113.738,42.335 113.647,42.272C113.58,42.23 113.483,42.193 113.356,42.164C113.229,42.134 113.113,42.115 113.008,42.109L113.008,41.758L114.847,41.641L114.921,41.715L114.921,45.967C114.921,46.091 114.944,46.192 114.992,46.273C115.04,46.355 115.114,46.416 115.216,46.455C115.294,46.485 115.369,46.512 115.443,46.531C115.516,46.55 115.598,46.563 115.689,46.57L115.689,46.92ZM115.026,39.583C115.026,39.784 114.96,39.96 114.827,40.109C114.696,40.26 114.532,40.335 114.339,40.335C114.159,40.335 114.003,40.264 113.871,40.119C113.739,39.977 113.673,39.814 113.673,39.63C113.673,39.437 113.739,39.268 113.871,39.123C114.003,38.979 114.159,38.906 114.339,38.906C114.539,38.906 114.704,38.974 114.833,39.111C114.962,39.246 115.026,39.404 115.026,39.583Z" style="fill:white;fill-rule:nonzero;"/>
            <path d="M119.802,44.363C119.948,44.49 120.058,44.637 120.136,44.803C120.213,44.97 120.252,45.172 120.252,45.411C120.252,45.894 120.071,46.29 119.709,46.596C119.348,46.901 118.88,47.056 118.306,47.056C118.003,47.056 117.723,47.002 117.467,46.892C117.211,46.782 117.029,46.682 116.919,46.59L116.814,46.934L116.418,46.934L116.364,45.12L116.73,45.12C116.757,45.258 116.818,45.419 116.909,45.604C117,45.787 117.112,45.952 117.242,46.101C117.379,46.257 117.545,46.389 117.737,46.493C117.929,46.6 118.145,46.653 118.385,46.653C118.724,46.653 118.983,46.577 119.167,46.422C119.35,46.267 119.442,46.047 119.442,45.759C119.442,45.612 119.412,45.483 119.354,45.377C119.296,45.269 119.21,45.174 119.098,45.094C118.981,45.013 118.838,44.939 118.669,44.874C118.5,44.808 118.311,44.744 118.103,44.68C117.939,44.631 117.754,44.564 117.55,44.476C117.348,44.389 117.174,44.29 117.029,44.173C116.873,44.049 116.747,43.897 116.649,43.718C116.55,43.539 116.501,43.327 116.501,43.084C116.501,42.658 116.659,42.295 116.976,41.999C117.293,41.702 117.719,41.555 118.252,41.555C118.456,41.555 118.666,41.582 118.879,41.635C119.092,41.688 119.265,41.752 119.4,41.825L119.522,41.551L119.903,41.551L119.982,43.227L119.617,43.227C119.542,42.853 119.383,42.546 119.138,42.311C118.893,42.076 118.595,41.957 118.242,41.957C117.953,41.957 117.726,42.03 117.559,42.175C117.394,42.321 117.311,42.497 117.311,42.704C117.311,42.863 117.338,42.995 117.393,43.1C117.447,43.206 117.529,43.296 117.639,43.37C117.746,43.439 117.878,43.507 118.038,43.568C118.2,43.629 118.397,43.7 118.634,43.776C118.867,43.851 119.086,43.937 119.293,44.037C119.497,44.136 119.667,44.244 119.802,44.363Z" style="fill:white;fill-rule:nonzero;"/>
            <path d="M123.353,46.92L120.807,46.92L120.807,46.57C120.888,46.563 120.974,46.556 121.067,46.547C121.158,46.538 121.233,46.525 121.294,46.508C121.393,46.476 121.466,46.419 121.516,46.34C121.566,46.261 121.59,46.158 121.59,46.031L121.59,39.987C121.59,39.86 121.563,39.742 121.508,39.63C121.454,39.518 121.381,39.432 121.294,39.367C121.231,39.325 121.115,39.286 120.946,39.25C120.777,39.217 120.64,39.195 120.538,39.188L120.538,38.849L122.5,38.732L122.575,38.812L122.575,45.968C122.575,46.092 122.597,46.193 122.643,46.273C122.689,46.353 122.764,46.413 122.865,46.456C122.943,46.489 123.02,46.516 123.096,46.535C123.172,46.553 123.258,46.564 123.353,46.571L123.353,46.92Z" style="fill:white;fill-rule:nonzero;"/>
            <path d="M128.422,45.694C128.204,46.109 127.911,46.44 127.545,46.687C127.177,46.934 126.755,47.058 126.28,47.058C125.861,47.058 125.493,46.983 125.178,46.836C124.863,46.687 124.602,46.486 124.398,46.232C124.193,45.978 124.041,45.682 123.94,45.344C123.84,45.006 123.79,44.648 123.79,44.271C123.79,43.932 123.843,43.601 123.952,43.275C124.059,42.948 124.217,42.655 124.424,42.394C124.626,42.144 124.876,41.941 125.173,41.788C125.471,41.634 125.804,41.558 126.175,41.558C126.555,41.558 126.881,41.617 127.154,41.737C127.426,41.858 127.645,42.021 127.815,42.229C127.978,42.426 128.098,42.66 128.177,42.927C128.257,43.197 128.296,43.486 128.296,43.801L128.296,44.149L124.844,44.149C124.844,44.492 124.876,44.802 124.941,45.082C125.006,45.361 125.109,45.606 125.25,45.82C125.388,46.024 125.567,46.185 125.789,46.304C126.011,46.423 126.276,46.481 126.582,46.481C126.897,46.481 127.168,46.409 127.395,46.262C127.623,46.114 127.843,45.848 128.054,45.466L128.422,45.694ZM127.254,43.705C127.254,43.507 127.236,43.297 127.202,43.073C127.17,42.848 127.115,42.66 127.041,42.507C126.96,42.346 126.848,42.215 126.707,42.113C126.566,42.012 126.385,41.959 126.162,41.959C125.792,41.959 125.485,42.113 125.24,42.421C124.995,42.729 124.862,43.158 124.841,43.705L127.254,43.705ZM127.438,39.198C127.438,39.331 127.408,39.441 127.346,39.526C127.285,39.611 127.194,39.7 127.074,39.795C126.898,39.937 126.667,40.117 126.384,40.336C126.1,40.554 125.794,40.792 125.466,41.05L125.266,40.881C125.583,40.412 125.804,40.081 125.929,39.888C126.055,39.695 126.189,39.483 126.334,39.25C126.443,39.071 126.548,38.949 126.651,38.883C126.753,38.819 126.872,38.785 127.006,38.785C127.132,38.785 127.237,38.829 127.318,38.915C127.398,39.001 127.438,39.096 127.438,39.198Z" style="fill:white;fill-rule:nonzero;"/>
            <path d="M90.101,58.619L85.88,58.619L85.88,58.339L88.836,53.834L88.105,53.834C87.798,53.834 87.557,53.839 87.384,53.849C87.211,53.86 87.052,53.895 86.906,53.954C86.808,53.993 86.715,54.105 86.629,54.288C86.541,54.473 86.467,54.711 86.403,55.007L86.081,55.007L86.081,53.404L90.069,53.404L90.069,53.622L87.071,58.192C87.197,58.195 87.337,58.197 87.489,58.198C87.641,58.2 87.803,58.202 87.98,58.202C88.12,58.202 88.268,58.2 88.421,58.197C88.575,58.193 88.771,58.183 89.011,58.17C89.152,58.163 89.259,58.116 89.331,58.028C89.402,57.939 89.458,57.838 89.497,57.726C89.536,57.623 89.583,57.483 89.636,57.304C89.692,57.123 89.74,56.949 89.783,56.78L90.1,56.78L90.1,58.619L90.101,58.619ZM89.736,50.633L88.471,52.49C88.412,52.568 88.36,52.622 88.318,52.656C88.275,52.689 88.178,52.707 88.027,52.707C87.868,52.707 87.763,52.687 87.712,52.649C87.661,52.611 87.608,52.55 87.551,52.468L86.298,50.634L86.552,50.465L88.006,51.909L89.481,50.465L89.736,50.633Z" style="fill:white;fill-rule:nonzero;"/>
            <path d="M96.51,58.522L94.808,58.639L94.729,58.564L94.729,57.904L94.698,57.904C94.613,57.992 94.517,58.087 94.413,58.186C94.307,58.286 94.184,58.378 94.047,58.458C93.888,58.553 93.736,58.626 93.588,58.675C93.44,58.724 93.231,58.749 92.96,58.749C92.499,58.749 92.147,58.599 91.906,58.298C91.665,57.998 91.545,57.558 91.545,56.985L91.545,54.492C91.545,54.365 91.52,54.258 91.473,54.171C91.424,54.085 91.354,54.01 91.262,53.946C91.199,53.904 91.118,53.873 91.023,53.855C90.928,53.835 90.826,53.822 90.719,53.815L90.719,53.466L92.46,53.34L92.539,53.414L92.539,57.037C92.539,57.414 92.624,57.699 92.793,57.888C92.962,58.079 93.165,58.173 93.401,58.173C93.595,58.173 93.768,58.143 93.92,58.083C94.071,58.024 94.198,57.953 94.301,57.872C94.395,57.799 94.479,57.719 94.552,57.637C94.624,57.554 94.679,57.478 94.718,57.408L94.718,54.456C94.718,54.339 94.693,54.236 94.644,54.145C94.595,54.056 94.525,53.98 94.438,53.915C94.374,53.873 94.279,53.847 94.154,53.839C94.03,53.83 93.888,53.822 93.734,53.815L93.734,53.467L95.632,53.341L95.712,53.415L95.712,57.551C95.712,57.672 95.737,57.773 95.786,57.858C95.836,57.943 95.905,58.014 95.993,58.075C96.056,58.114 96.131,58.139 96.22,58.151C96.309,58.163 96.405,58.171 96.51,58.174L96.51,58.522Z" style="fill:white;fill-rule:nonzero;"/>
            <path d="M101.196,54.075C101.196,54.257 101.152,54.416 101.063,54.555C100.975,54.694 100.84,54.765 100.656,54.765C100.459,54.765 100.309,54.712 100.205,54.611C100.101,54.507 100.048,54.396 100.048,54.272C100.048,54.193 100.055,54.122 100.066,54.06C100.079,53.995 100.09,53.933 100.101,53.868C99.936,53.868 99.742,53.936 99.52,54.069C99.297,54.203 99.108,54.395 98.954,54.642L98.954,57.676C98.954,57.8 98.978,57.901 99.025,57.979C99.073,58.055 99.148,58.114 99.25,58.153C99.339,58.187 99.451,58.214 99.592,58.233C99.73,58.25 99.852,58.262 99.954,58.269L99.954,58.618L97.204,58.618L97.204,58.269C97.285,58.262 97.368,58.255 97.455,58.249C97.541,58.243 97.617,58.227 97.679,58.206C97.778,58.174 97.852,58.118 97.899,58.041C97.947,57.961 97.97,57.858 97.97,57.731L97.97,54.514C97.97,54.406 97.945,54.298 97.894,54.192C97.842,54.086 97.771,54.001 97.679,53.938C97.612,53.896 97.534,53.865 97.442,53.846C97.351,53.827 97.251,53.814 97.146,53.807L97.146,53.458L98.88,53.341L98.955,53.416L98.955,54.151L98.981,54.151C99.199,53.865 99.443,53.648 99.71,53.501C99.979,53.352 100.224,53.277 100.446,53.277C100.668,53.277 100.849,53.35 100.988,53.496C101.126,53.639 101.196,53.834 101.196,54.075Z" style="fill:white;fill-rule:nonzero;"/>
            <path d="M107.579,58.618L105.031,58.618L105.031,58.268C105.112,58.261 105.2,58.254 105.297,58.248C105.395,58.241 105.475,58.227 105.538,58.206C105.636,58.174 105.71,58.118 105.757,58.039C105.805,57.961 105.829,57.858 105.829,57.731L105.829,55.048C105.829,54.679 105.741,54.394 105.566,54.192C105.392,53.991 105.179,53.89 104.928,53.89C104.741,53.89 104.57,53.919 104.414,53.977C104.258,54.036 104.12,54.107 104,54.192C103.883,54.274 103.791,54.362 103.722,54.455C103.653,54.548 103.601,54.622 103.57,54.68L103.57,57.678C103.57,57.798 103.595,57.898 103.645,57.974C103.695,58.052 103.769,58.112 103.867,58.155C103.941,58.189 104.022,58.215 104.107,58.234C104.194,58.252 104.282,58.263 104.375,58.27L104.375,58.62L101.82,58.62L101.82,58.27C101.902,58.263 101.985,58.256 102.072,58.25C102.158,58.244 102.234,58.228 102.296,58.208C102.395,58.176 102.468,58.119 102.516,58.042C102.564,57.963 102.587,57.859 102.587,57.733L102.587,54.516C102.587,54.395 102.562,54.285 102.511,54.185C102.459,54.085 102.388,54.002 102.296,53.94C102.229,53.897 102.151,53.867 102.059,53.847C101.968,53.829 101.868,53.815 101.762,53.808L101.762,53.456L103.497,53.34L103.571,53.414L103.571,54.149L103.597,54.149C103.683,54.064 103.789,53.962 103.915,53.844C104.041,53.727 104.162,53.631 104.274,53.556C104.404,53.471 104.56,53.4 104.74,53.345C104.919,53.289 105.122,53.26 105.348,53.26C105.848,53.26 106.22,53.416 106.461,53.728C106.702,54.039 106.823,54.455 106.823,54.975L106.823,57.688C106.823,57.812 106.845,57.91 106.887,57.986C106.929,58.062 107.001,58.121 107.104,58.163C107.188,58.199 107.261,58.222 107.323,58.238C107.384,58.252 107.47,58.261 107.579,58.268L107.579,58.618Z" style="fill:white;fill-rule:nonzero;"/>
            <path d="M113.118,58.522C112.952,58.583 112.806,58.631 112.68,58.668C112.555,58.705 112.412,58.723 112.255,58.723C111.98,58.723 111.76,58.659 111.597,58.53C111.433,58.402 111.327,58.214 111.282,57.967L111.25,57.967C111.02,58.221 110.775,58.416 110.511,58.549C110.249,58.682 109.933,58.75 109.563,58.75C109.171,58.75 108.85,58.63 108.598,58.39C108.346,58.152 108.218,57.836 108.218,57.449C108.218,57.248 108.246,57.069 108.304,56.909C108.36,56.752 108.445,56.608 108.558,56.481C108.646,56.376 108.762,56.281 108.906,56.198C109.051,56.115 109.187,56.049 109.314,56C109.473,55.939 109.794,55.829 110.278,55.666C110.763,55.504 111.092,55.377 111.26,55.286L111.26,54.763C111.26,54.715 111.25,54.628 111.231,54.497C111.212,54.366 111.171,54.243 111.106,54.127C111.036,53.995 110.936,53.882 110.807,53.785C110.678,53.688 110.496,53.639 110.259,53.639C110.097,53.639 109.947,53.666 109.808,53.721C109.668,53.776 109.571,53.834 109.514,53.893C109.514,53.964 109.531,54.067 109.565,54.204C109.598,54.344 109.615,54.471 109.615,54.585C109.615,54.709 109.56,54.822 109.449,54.924C109.338,55.027 109.184,55.078 108.987,55.078C108.811,55.078 108.681,55.016 108.599,54.89C108.516,54.765 108.474,54.624 108.474,54.471C108.474,54.308 108.531,54.152 108.645,54.005C108.76,53.856 108.91,53.724 109.092,53.607C109.252,53.509 109.443,53.425 109.668,53.357C109.894,53.288 110.115,53.254 110.33,53.254C110.627,53.254 110.885,53.274 111.105,53.315C111.326,53.355 111.525,53.441 111.706,53.577C111.885,53.707 112.022,53.884 112.115,54.108C112.208,54.332 112.256,54.62 112.256,54.973C112.256,55.476 112.25,55.925 112.239,56.313C112.229,56.703 112.223,57.128 112.223,57.59C112.223,57.729 112.246,57.837 112.295,57.919C112.342,58 112.415,58.069 112.514,58.125C112.568,58.157 112.65,58.174 112.765,58.178C112.879,58.181 112.998,58.183 113.118,58.183L113.118,58.522ZM111.271,55.73C110.971,55.821 110.71,55.906 110.483,55.991C110.256,56.076 110.047,56.183 109.853,56.309C109.677,56.429 109.538,56.572 109.436,56.736C109.334,56.9 109.282,57.095 109.282,57.322C109.282,57.615 109.359,57.831 109.512,57.968C109.666,58.105 109.861,58.174 110.097,58.174C110.347,58.174 110.567,58.113 110.759,57.991C110.949,57.869 111.11,57.725 111.24,57.56L111.271,55.73Z" style="fill:white;fill-rule:nonzero;"/>
            <path d="M116.247,58.619L113.702,58.619L113.702,58.269C113.783,58.262 113.869,58.255 113.961,58.246C114.052,58.237 114.128,58.224 114.188,58.207C114.287,58.175 114.361,58.118 114.411,58.04C114.46,57.96 114.485,57.857 114.485,57.73L114.485,51.686C114.485,51.56 114.458,51.441 114.402,51.329C114.349,51.217 114.276,51.131 114.188,51.067C114.125,51.024 114.009,50.985 113.84,50.95C113.671,50.916 113.534,50.894 113.432,50.887L113.432,50.549L115.395,50.432L115.469,50.511L115.469,57.667C115.469,57.791 115.492,57.892 115.538,57.972C115.584,58.052 115.658,58.112 115.76,58.155C115.838,58.189 115.915,58.216 115.99,58.234C116.066,58.252 116.152,58.263 116.247,58.27L116.247,58.619Z" style="fill:white;fill-rule:nonzero;"/>
            <path d="M119.466,58.619L116.947,58.619L116.947,58.269C117.029,58.262 117.112,58.255 117.198,58.249C117.285,58.243 117.36,58.227 117.424,58.207C117.522,58.175 117.596,58.118 117.644,58.041C117.692,57.961 117.716,57.858 117.716,57.732L117.716,54.515C117.716,54.403 117.69,54.3 117.639,54.206C117.587,54.112 117.515,54.034 117.424,53.972C117.357,53.929 117.26,53.892 117.133,53.863C117.006,53.833 116.89,53.814 116.784,53.808L116.784,53.457L118.625,53.34L118.699,53.415L118.699,57.666C118.699,57.79 118.722,57.891 118.77,57.973C118.817,58.054 118.892,58.115 118.993,58.154C119.07,58.184 119.146,58.211 119.219,58.23C119.293,58.249 119.375,58.262 119.466,58.269L119.466,58.619ZM118.804,51.282C118.804,51.483 118.738,51.66 118.605,51.808C118.474,51.959 118.31,52.034 118.117,52.034C117.936,52.034 117.781,51.963 117.649,51.818C117.516,51.676 117.45,51.513 117.45,51.33C117.45,51.137 117.516,50.968 117.649,50.822C117.781,50.678 117.936,50.606 118.117,50.606C118.317,50.606 118.482,50.673 118.61,50.81C118.739,50.945 118.804,51.103 118.804,51.282Z" style="fill:white;fill-rule:nonzero;"/>
            <path d="M123.579,56.063C123.724,56.189 123.835,56.336 123.912,56.503C123.99,56.669 124.029,56.871 124.029,57.111C124.029,57.593 123.848,57.989 123.486,58.295C123.125,58.601 122.657,58.755 122.082,58.755C121.779,58.755 121.499,58.701 121.244,58.591C120.988,58.481 120.806,58.382 120.696,58.29L120.592,58.633L120.195,58.633L120.141,56.819L120.507,56.819C120.534,56.957 120.595,57.118 120.686,57.303C120.777,57.486 120.889,57.651 121.019,57.8C121.156,57.956 121.322,58.088 121.513,58.193C121.706,58.299 121.921,58.352 122.161,58.352C122.501,58.352 122.761,58.276 122.944,58.122C123.127,57.966 123.219,57.746 123.219,57.458C123.219,57.311 123.189,57.183 123.131,57.076C123.073,56.968 122.988,56.873 122.875,56.794C122.758,56.712 122.615,56.638 122.446,56.574C122.277,56.507 122.087,56.443 121.88,56.38C121.715,56.33 121.531,56.263 121.327,56.175C121.125,56.089 120.951,55.989 120.806,55.872C120.65,55.748 120.524,55.597 120.426,55.417C120.327,55.238 120.278,55.027 120.278,54.783C120.278,54.357 120.436,53.994 120.754,53.698C121.071,53.402 121.495,53.254 122.029,53.254C122.233,53.254 122.443,53.281 122.656,53.334C122.869,53.387 123.042,53.451 123.177,53.524L123.299,53.25L123.68,53.25L123.758,54.926L123.394,54.926C123.319,54.552 123.16,54.246 122.915,54.01C122.67,53.775 122.372,53.656 122.018,53.656C121.729,53.656 121.502,53.729 121.336,53.875C121.171,54.02 121.088,54.196 121.088,54.403C121.088,54.562 121.115,54.694 121.17,54.799C121.224,54.905 121.306,54.995 121.415,55.069C121.522,55.138 121.654,55.206 121.815,55.267C121.976,55.328 122.173,55.399 122.411,55.475C122.644,55.55 122.863,55.636 123.07,55.736C123.274,55.835 123.445,55.943 123.579,56.063Z" style="fill:white;fill-rule:nonzero;"/>
            <path d="M128.013,58.392C127.784,58.488 127.567,58.568 127.364,58.632C127.159,58.698 126.909,58.73 126.612,58.73C126.174,58.73 125.868,58.62 125.689,58.4C125.512,58.18 125.422,57.869 125.422,57.466L125.422,53.934L124.48,53.934L124.48,53.426L125.443,53.426L125.443,51.803L126.405,51.803L126.405,53.426L127.902,53.426L127.902,53.934L126.416,53.934L126.416,56.849C126.416,57.067 126.424,57.25 126.439,57.395C126.456,57.542 126.493,57.669 126.553,57.779C126.609,57.88 126.694,57.958 126.807,58.011C126.921,58.065 127.073,58.091 127.262,58.091C127.351,58.091 127.48,58.082 127.65,58.067C127.821,58.053 127.942,58.032 128.012,58.007L128.012,58.392L128.013,58.392Z" style="fill:white;fill-rule:nonzero;"/>
            <path d="M131.2,58.619L128.681,58.619L128.681,58.269C128.763,58.262 128.846,58.255 128.932,58.249C129.019,58.243 129.094,58.227 129.158,58.207C129.257,58.175 129.33,58.118 129.378,58.041C129.426,57.961 129.449,57.858 129.449,57.732L129.449,54.515C129.449,54.403 129.424,54.3 129.372,54.206C129.321,54.112 129.249,54.034 129.158,53.972C129.091,53.929 128.994,53.892 128.867,53.863C128.74,53.833 128.624,53.814 128.518,53.808L128.518,53.457L130.359,53.34L130.433,53.415L130.433,57.666C130.433,57.79 130.456,57.891 130.504,57.973C130.551,58.054 130.626,58.115 130.727,58.154C130.804,58.184 130.88,58.211 130.953,58.23C131.027,58.249 131.109,58.262 131.2,58.269L131.2,58.619ZM130.537,51.282C130.537,51.483 130.472,51.66 130.339,51.808C130.207,51.959 130.044,52.034 129.851,52.034C129.67,52.034 129.514,51.963 129.383,51.818C129.25,51.676 129.184,51.513 129.184,51.33C129.184,51.137 129.25,50.968 129.383,50.822C129.514,50.678 129.67,50.606 129.851,50.606C130.051,50.606 130.216,50.673 130.344,50.81C130.473,50.945 130.537,51.103 130.537,51.282Z" style="fill:white;fill-rule:nonzero;"/>
            <path d="M137.467,58.619L135.894,58.619C135.619,58.22 135.324,57.795 135.01,57.34C134.696,56.887 134.37,56.442 134.03,56.014L133.595,56.419L133.595,57.657C133.595,57.783 133.618,57.889 133.665,57.971C133.71,58.054 133.784,58.115 133.887,58.154C133.972,58.188 134.053,58.215 134.131,58.234C134.208,58.251 134.297,58.262 134.4,58.269L134.4,58.619L131.846,58.619L131.846,58.269C131.927,58.262 132.01,58.255 132.098,58.246C132.186,58.237 132.26,58.224 132.318,58.207C132.416,58.175 132.49,58.118 132.539,58.04C132.589,57.961 132.613,57.857 132.613,57.73L132.613,51.666C132.613,51.534 132.585,51.412 132.531,51.297C132.476,51.182 132.404,51.096 132.317,51.035C132.242,50.979 132.127,50.942 131.97,50.925C131.813,50.906 131.688,50.894 131.593,50.887L131.593,50.549L133.522,50.432L133.596,50.511L133.596,56.028C133.872,55.753 134.17,55.458 134.488,55.144C134.808,54.828 135.076,54.547 135.296,54.301C135.323,54.269 135.355,54.227 135.387,54.175C135.421,54.124 135.439,54.082 135.439,54.049C135.439,53.955 135.361,53.884 135.208,53.838C135.054,53.792 134.908,53.76 134.766,53.742L134.766,53.403L137.06,53.403L137.06,53.731C136.764,53.819 136.502,53.929 136.275,54.061C136.047,54.195 135.873,54.314 135.753,54.419C135.668,54.49 135.549,54.605 135.394,54.762C135.238,54.921 135.021,55.129 134.742,55.385C135.031,55.742 135.357,56.168 135.718,56.667C136.08,57.165 136.345,57.524 136.51,57.746C136.665,57.954 136.805,58.089 136.928,58.154C137.051,58.216 137.231,58.255 137.466,58.269L137.466,58.619L137.467,58.619Z" style="fill:white;fill-rule:nonzero;"/>
            <path d="M137.617,60.321C137.617,60.145 137.666,60.001 137.763,59.89C137.86,59.78 137.98,59.724 138.125,59.724C138.237,59.724 138.334,59.744 138.416,59.786C138.497,59.829 138.57,59.883 138.633,59.949C138.686,60.002 138.742,60.073 138.802,60.164C138.862,60.255 138.91,60.33 138.945,60.391C139.121,60.295 139.331,60.048 139.577,59.647C139.822,59.246 139.998,58.894 140.107,58.59C139.773,57.756 139.47,57.008 139.199,56.349C138.928,55.689 138.644,55.007 138.347,54.304C138.281,54.14 138.167,54.014 138.009,53.924C137.849,53.834 137.692,53.777 137.532,53.753L137.532,53.403L139.913,53.403L139.913,53.774C139.808,53.777 139.68,53.799 139.533,53.84C139.386,53.881 139.311,53.928 139.311,53.98C139.311,54 139.319,54.036 139.334,54.085C139.35,54.136 139.369,54.186 139.389,54.24C139.523,54.588 139.727,55.091 140.001,55.747C140.275,56.406 140.488,56.931 140.638,57.325C140.798,56.949 140.963,56.558 141.134,56.154C141.305,55.75 141.497,55.274 141.708,54.725C141.733,54.659 141.768,54.566 141.814,54.448C141.861,54.331 141.883,54.23 141.883,54.144C141.883,54.053 141.803,53.966 141.642,53.887C141.482,53.807 141.331,53.76 141.186,53.741L141.186,53.402L143.122,53.402L143.122,53.731C143.015,53.749 142.877,53.81 142.704,53.913C142.532,54.017 142.403,54.164 142.319,54.356C141.9,55.329 141.526,56.215 141.201,57.016C140.874,57.817 140.626,58.406 140.457,58.782C140.235,59.275 140.037,59.662 139.861,59.937C139.687,60.214 139.518,60.433 139.351,60.59C139.189,60.739 139.043,60.839 138.91,60.89C138.778,60.941 138.641,60.966 138.499,60.966C138.224,60.966 138.009,60.902 137.851,60.771C137.696,60.64 137.617,60.491 137.617,60.321Z" style="fill:white;fill-rule:nonzero;"/>
        </g>
    </g>
</svg>
