<?xml version="1.0" encoding="UTF-8" standalone="no"?>
<!DOCTYPE svg PUBLIC "-//W3C//DTD SVG 1.1//EN" "http://www.w3.org/Graphics/SVG/1.1/DTD/svg11.dtd">
<svg width="100%" height="100%" viewBox="0 0 239 100" version="1.1" xmlns="http://www.w3.org/2000/svg" xmlns:xlink="http://www.w3.org/1999/xlink" xml:space="preserve" xmlns:serif="http://www.serif.com/" style="fill-rule:evenodd;clip-rule:evenodd;stroke-linejoin:round;stroke-miterlimit:2;">
    <g transform="matrix(0.46852,0,0,0.46852,-66.034,-88.6819)">
        <g transform="matrix(1,0,0,1,254.477,359.137)">
            <path d="M0,-140.159C-1.23,-140.79 -1.71,-142.3 -1.08,-143.529C-0.45,-144.76 1.06,-145.239 2.28,-144.609C3.51,-143.979 4,-142.47 3.359,-141.239L3.37,-141.239C2.92,-140.38 2.05,-139.88 1.14,-139.88C0.76,-139.88 0.359,-139.97 0,-140.159M8.22,-139.979C7.45,-141.13 7.75,-142.68 8.899,-143.449C10.04,-144.22 11.6,-143.92 12.37,-142.769C13.14,-141.63 12.84,-140.08 11.689,-139.3C11.27,-139.019 10.78,-138.88 10.3,-138.88C9.49,-138.88 8.71,-139.26 8.22,-139.979M-27.42,-140.38C-27.76,-141.72 -26.95,-143.08 -25.61,-143.42C-24.271,-143.76 -22.91,-142.949 -22.57,-141.609C-22.23,-140.269 -23.05,-138.909 -24.38,-138.569C-24.59,-138.519 -24.79,-138.489 -25,-138.489C-26.12,-138.489 -27.13,-139.25 -27.42,-140.38M-17.04,-138.67C-17.91,-139.739 -17.75,-141.319 -16.67,-142.189C-15.601,-143.059 -14.03,-142.889 -13.16,-141.819C-12.29,-140.739 -12.45,-139.17 -13.521,-138.3C-13.99,-137.93 -14.55,-137.739 -15.101,-137.739C-15.83,-137.739 -16.55,-138.059 -17.04,-138.67M-9.62,-134.88C-10.22,-136.13 -9.69,-137.619 -8.45,-138.22C-7.2,-138.809 -5.71,-138.279 -5.11,-137.04C-4.521,-135.79 -5.04,-134.3 -6.29,-133.71C-6.641,-133.54 -7,-133.46 -7.37,-133.46C-8.3,-133.46 -9.19,-133.979 -9.62,-134.88M-34.54,-134.439C-34.771,-135.8 -33.851,-137.09 -32.49,-137.319C-31.13,-137.55 -29.84,-136.63 -29.61,-135.26C-29.38,-133.899 -30.3,-132.609 -31.66,-132.389C-31.8,-132.359 -31.94,-132.349 -32.08,-132.349C-33.28,-132.349 -34.34,-133.22 -34.54,-134.439M24.62,-127.819C23.37,-128.409 22.84,-129.899 23.43,-131.149C24.02,-132.399 25.51,-132.93 26.76,-132.34C28.01,-131.75 28.54,-130.26 27.95,-129.01C27.52,-128.109 26.63,-127.58 25.689,-127.58C25.33,-127.58 24.97,-127.659 24.62,-127.819M-42.29,-127.899C-43.24,-128.899 -43.2,-130.489 -42.2,-131.439C-41.2,-132.389 -39.62,-132.349 -38.67,-131.349C-37.72,-130.349 -37.76,-128.769 -38.76,-127.809C-39.24,-127.349 -39.86,-127.13 -40.48,-127.13C-41.141,-127.13 -41.8,-127.389 -42.29,-127.899M33.05,-121.729C31.96,-122.58 31.77,-124.149 32.62,-125.239C33.47,-126.33 35.04,-126.519 36.13,-125.67C37.21,-124.819 37.41,-123.25 36.56,-122.159C36.069,-121.529 35.33,-121.199 34.59,-121.199C34.05,-121.199 33.51,-121.369 33.05,-121.729M-62.431,-118.949C-63.16,-120.119 -62.8,-121.659 -61.63,-122.389C-60.45,-123.119 -58.91,-122.76 -58.181,-121.58C-57.46,-120.409 -57.82,-118.869 -58.99,-118.139C-59.4,-117.889 -59.86,-117.769 -60.311,-117.769C-61.141,-117.769 -61.96,-118.189 -62.431,-118.949M48.46,-117.47C47.479,-118.449 47.49,-120.029 48.47,-121C49.45,-121.979 51.03,-121.97 52,-120.989C52.979,-120.01 52.97,-118.43 51.99,-117.449C51.5,-116.97 50.87,-116.729 50.229,-116.729C49.59,-116.729 48.95,-116.97 48.46,-117.47M-71.391,-112.55C-72.22,-113.649 -72,-115.22 -70.9,-116.05C-69.8,-116.88 -68.23,-116.67 -67.4,-115.569C-66.57,-114.46 -66.79,-112.889 -67.891,-112.059C-68.34,-111.72 -68.87,-111.559 -69.391,-111.559C-70.15,-111.559 -70.9,-111.899 -71.391,-112.55M75.88,-111.63C75.729,-113 76.729,-114.229 78.1,-114.369C79.479,-114.519 80.71,-113.519 80.85,-112.139C80.99,-110.769 79.99,-109.54 78.62,-109.399C78.53,-109.389 78.45,-109.389 78.359,-109.389C77.1,-109.389 76.01,-110.34 75.88,-111.63M47.38,-109.25C46.42,-110.25 46.45,-111.83 47.45,-112.79C48.439,-113.739 50.03,-113.71 50.979,-112.71C51.939,-111.72 51.91,-110.13 50.91,-109.18C50.42,-108.71 49.8,-108.479 49.18,-108.479C48.52,-108.479 47.87,-108.739 47.38,-109.25M-92.15,-107.25C-92.53,-108.58 -91.76,-109.96 -90.431,-110.34C-89.11,-110.729 -87.72,-109.96 -87.34,-108.63C-86.96,-107.3 -87.73,-105.92 -89.05,-105.54C-89.28,-105.47 -89.521,-105.439 -89.74,-105.439C-90.83,-105.439 -91.83,-106.159 -92.15,-107.25M85.85,-104.869L85.85,-104.88C84.89,-105.869 84.91,-107.449 85.899,-108.409C86.899,-109.369 88.479,-109.349 89.439,-108.349C90.399,-107.369 90.38,-105.779 89.39,-104.819C88.899,-104.349 88.27,-104.109 87.649,-104.119C86.99,-104.119 86.34,-104.369 85.85,-104.869M94.75,-103.639C94.54,-105.01 95.479,-106.279 96.84,-106.489C98.21,-106.699 99.479,-105.76 99.689,-104.399C99.899,-103.04 98.96,-101.76 97.6,-101.55C97.47,-101.529 97.34,-101.519 97.22,-101.519C96,-101.519 94.939,-102.409 94.75,-103.639M54.319,-101.13C53.5,-102.239 53.729,-103.809 54.84,-104.63C55.95,-105.449 57.52,-105.22 58.34,-104.109C59.16,-103 58.93,-101.43 57.819,-100.609C57.37,-100.279 56.85,-100.119 56.33,-100.119C55.569,-100.119 54.81,-100.47 54.319,-101.13M76.02,-101.47C75.87,-102.849 76.859,-104.08 78.24,-104.22C79.609,-104.369 80.84,-103.369 80.99,-102C81.13,-100.63 80.14,-99.399 78.77,-99.25C78.68,-99.239 78.59,-99.239 78.5,-99.239C77.24,-99.239 76.149,-100.189 76.02,-101.47M-99.55,-99.18C-100.69,-99.96 -100.98,-101.519 -100.19,-102.659L-100.2,-102.659C-99.41,-103.79 -97.851,-104.08 -96.72,-103.3C-95.58,-102.51 -95.3,-100.96 -96.08,-99.819C-96.561,-99.119 -97.351,-98.739 -98.141,-98.739C-98.63,-98.739 -99.12,-98.88 -99.55,-99.18M-108.23,-99.3C-109.25,-100.22 -109.33,-101.8 -108.41,-102.83C-107.48,-103.849 -105.9,-103.93 -104.88,-103C-103.851,-102.08 -103.771,-100.5 -104.7,-99.47C-105.19,-98.93 -105.87,-98.649 -106.55,-98.649C-107.15,-98.649 -107.75,-98.859 -108.23,-99.3M99.59,-96.349C98.819,-97.489 99.109,-99.04 100.26,-99.819C101.399,-100.599 102.95,-100.3 103.729,-99.159C104.51,-98.01 104.21,-96.46 103.06,-95.68C102.63,-95.389 102.149,-95.25 101.66,-95.25C100.859,-95.25 100.069,-95.639 99.59,-96.349M69.34,-94.84C68.27,-95.71 68.109,-97.29 68.979,-98.359L68.99,-98.359C69.859,-99.43 71.439,-99.58 72.5,-98.71C73.569,-97.83 73.729,-96.26 72.85,-95.189C72.359,-94.59 71.64,-94.269 70.92,-94.269C70.359,-94.269 69.8,-94.46 69.34,-94.84M59.399,-91.42C58.56,-92.519 58.77,-94.09 59.87,-94.92C60.96,-95.76 62.53,-95.55 63.37,-94.449C64.21,-93.359 64,-91.79 62.899,-90.949C62.45,-90.599 61.91,-90.439 61.39,-90.439C60.63,-90.439 59.89,-90.769 59.399,-91.42M-105.88,-89.279C-106.84,-90.279 -106.82,-91.859 -105.83,-92.819C-104.84,-93.779 -103.25,-93.76 -102.29,-92.769C-101.33,-91.779 -101.351,-90.199 -102.34,-89.239C-102.83,-88.76 -103.46,-88.529 -104.08,-88.529C-104.74,-88.529 -105.391,-88.779 -105.88,-89.279M106.77,-87.5C105.83,-88.51 105.89,-90.09 106.91,-91.029C107.92,-91.97 109.5,-91.909 110.439,-90.889C111.38,-89.88 111.31,-88.3 110.3,-87.359C109.819,-86.92 109.21,-86.699 108.6,-86.699C107.93,-86.699 107.26,-86.97 106.77,-87.5M118.3,-85.689C116.92,-85.729 115.83,-86.88 115.87,-88.25C115.91,-89.639 117.05,-90.72 118.439,-90.689L118.43,-90.689C119.81,-90.649 120.91,-89.5 120.87,-88.119C120.83,-86.769 119.72,-85.689 118.37,-85.689L118.3,-85.689ZM128.54,-82.729C127.17,-82.93 126.22,-84.199 126.42,-85.559C126.609,-86.93 127.88,-87.88 129.25,-87.68C130.609,-87.489 131.56,-86.22 131.37,-84.859C131.189,-83.609 130.12,-82.71 128.89,-82.71C128.78,-82.71 128.66,-82.72 128.54,-82.729M136.64,-83.149C136.069,-84.409 136.62,-85.889 137.88,-86.47C139.13,-87.04 140.609,-86.489 141.189,-85.239C141.76,-83.979 141.21,-82.5 139.96,-81.92C139.62,-81.769 139.27,-81.689 138.92,-81.689C137.97,-81.689 137.06,-82.239 136.64,-83.149M-97.95,-81.569C-98.92,-82.55 -98.92,-84.139 -97.94,-85.109C-96.97,-86.08 -95.38,-86.08 -94.41,-85.099C-93.431,-84.13 -93.44,-82.54 -94.41,-81.569C-94.9,-81.08 -95.54,-80.84 -96.181,-80.84C-96.82,-80.84 -97.46,-81.08 -97.95,-81.569M143.04,-73.239C141.939,-74.069 141.71,-75.639 142.54,-76.739C143.37,-77.849 144.939,-78.069 146.05,-77.239L146.04,-77.239C147.149,-76.409 147.37,-74.84 146.54,-73.739C146.05,-73.08 145.3,-72.739 144.54,-72.739C144.02,-72.739 143.49,-72.899 143.04,-73.239M-95.63,-71.779C-96.86,-72.389 -97.38,-73.889 -96.771,-75.13C-96.16,-76.369 -94.66,-76.88 -93.42,-76.269C-92.181,-75.659 -91.67,-74.17 -92.28,-72.92C-92.71,-72.04 -93.601,-71.529 -94.521,-71.529C-94.9,-71.529 -95.271,-71.609 -95.63,-71.779M-98,-62.79C-98.69,-63.979 -98.29,-65.51 -97.101,-66.21C-95.9,-66.899 -94.37,-66.5 -93.681,-65.309C-92.98,-64.119 -93.391,-62.58 -94.58,-61.889C-94.98,-61.659 -95.41,-61.55 -95.84,-61.55C-96.7,-61.55 -97.53,-61.989 -98,-62.79M150.78,-67.45C149.58,-68.12 149.149,-69.649 149.819,-70.849C150.5,-72.05 152.02,-72.479 153.229,-71.809C154.43,-71.13 154.859,-69.609 154.189,-68.399L154.18,-68.399C153.729,-67.58 152.88,-67.12 152,-67.12C151.59,-67.12 151.17,-67.229 150.78,-67.45M147.78,-58.45C146.58,-59.12 146.149,-60.649 146.819,-61.849C147.5,-63.05 149.02,-63.479 150.229,-62.809C151.43,-62.13 151.859,-60.609 151.189,-59.399L151.18,-59.399C150.729,-58.58 149.88,-58.12 149,-58.12C148.59,-58.12 148.17,-58.229 147.78,-58.45M138.78,-54.58C137.58,-55.25 137.149,-56.779 137.819,-57.979C138.5,-59.18 140.02,-59.609 141.229,-58.939C142.43,-58.26 142.859,-56.739 142.189,-55.529L142.18,-55.529C141.729,-54.71 140.88,-54.25 140,-54.25C139.59,-54.25 139.17,-54.359 138.78,-54.58M-92.5,-53.18L-92.5,-53.17C-93.24,-54.34 -92.891,-55.88 -91.73,-56.619C-90.561,-57.359 -89.021,-57.019 -88.28,-55.849L-88.271,-55.849C-87.54,-54.689 -87.88,-53.139 -89.05,-52.399C-89.46,-52.139 -89.931,-52.01 -90.38,-52.01C-91.21,-52.01 -92.021,-52.42 -92.5,-53.18M130.83,-47.949C130.46,-49.279 131.25,-50.649 132.58,-51.019L132.58,-51.01C133.91,-51.38 135.29,-50.59 135.649,-49.26C136.02,-47.93 135.229,-46.559 133.899,-46.189C133.68,-46.13 133.45,-46.099 133.24,-46.099C132.14,-46.099 131.13,-46.83 130.83,-47.949M-83.74,-44.84C-84.95,-45.5 -85.4,-47.019 -84.74,-48.229C-84.07,-49.449 -82.55,-49.889 -81.34,-49.229C-80.13,-48.559 -79.69,-47.04 -80.351,-45.83C-80.811,-45 -81.66,-44.529 -82.55,-44.529C-82.95,-44.529 -83.36,-44.63 -83.74,-44.84M-74.69,-41.139C-75.48,-42.269 -75.21,-43.83 -74.07,-44.63C-72.94,-45.42 -71.391,-45.139 -70.601,-44.01L-70.59,-44.01C-69.8,-42.88 -70.08,-41.319 -71.21,-40.529C-71.65,-40.22 -72.15,-40.08 -72.641,-40.08C-73.431,-40.08 -74.21,-40.449 -74.69,-41.139M124.85,-41.649C124.689,-43.019 125.68,-44.26 127.05,-44.42C128.42,-44.569 129.66,-43.59 129.819,-42.22L129.819,-42.21C129.97,-40.84 128.99,-39.609 127.609,-39.449C127.52,-39.439 127.42,-39.43 127.33,-39.43C126.069,-39.43 124.99,-40.38 124.85,-41.649M122.53,-30.93C121.8,-32.109 122.16,-33.649 123.33,-34.38C124.51,-35.109 126.05,-34.75 126.78,-33.58C127.51,-32.409 127.149,-30.859 125.97,-30.13C125.56,-29.88 125.109,-29.75 124.66,-29.75C123.819,-29.75 123,-30.17 122.53,-30.93M-60.38,-23.809C-61.38,-24.769 -61.42,-26.349 -60.47,-27.349C-59.521,-28.349 -57.94,-28.389 -56.94,-27.439C-55.94,-26.489 -55.9,-24.909 -56.851,-23.899C-57.34,-23.389 -58,-23.13 -58.66,-23.13C-59.28,-23.13 -59.9,-23.349 -60.38,-23.809M115.14,-23.269C114.01,-24.069 113.75,-25.63 114.55,-26.75C115.35,-27.88 116.91,-28.149 118.04,-27.349C119.16,-26.54 119.43,-24.979 118.62,-23.859C118.14,-23.17 117.37,-22.809 116.59,-22.809C116.08,-22.809 115.58,-22.96 115.14,-23.269M19.689,-18.68C18.33,-18.93 17.43,-20.229 17.68,-21.59C17.93,-22.949 19.229,-23.849 20.59,-23.599C21.95,-23.349 22.85,-22.05 22.6,-20.689C22.38,-19.489 21.33,-18.639 20.14,-18.639C19.99,-18.639 19.84,-18.649 19.689,-18.68M-0.8,-20.069C-0.91,-21.449 0.12,-22.649 1.5,-22.76C2.87,-22.869 4.08,-21.84 4.189,-20.47C4.3,-19.09 3.27,-17.889 1.89,-17.779C1.819,-17.769 1.76,-17.769 1.689,-17.769C0.399,-17.769 -0.69,-18.76 -0.8,-20.069M29.54,-16.899C28.33,-17.569 27.899,-19.09 28.569,-20.3C29.24,-21.5 30.76,-21.939 31.97,-21.269C33.18,-20.599 33.609,-19.069 32.939,-17.869C32.479,-17.04 31.63,-16.58 30.75,-16.58C30.34,-16.58 29.93,-16.68 29.54,-16.899M-51.16,-16.8C-52.36,-17.479 -52.79,-19 -52.101,-20.21C-51.431,-21.409 -49.9,-21.83 -48.7,-21.149C-47.5,-20.47 -47.08,-18.939 -47.75,-17.739C-48.22,-16.93 -49.061,-16.47 -49.931,-16.47C-50.351,-16.47 -50.771,-16.58 -51.16,-16.8M106.229,-17.13C105.72,-18.409 106.34,-19.859 107.62,-20.38C108.899,-20.889 110.359,-20.269 110.87,-18.989C111.39,-17.71 110.77,-16.25 109.49,-15.739C109.18,-15.619 108.87,-15.559 108.56,-15.559C107.56,-15.559 106.63,-16.149 106.229,-17.13M95.2,-16.849C95.189,-18.229 96.3,-19.359 97.68,-19.369C99.06,-19.38 100.189,-18.269 100.2,-16.889C100.22,-15.51 99.109,-14.389 97.729,-14.369L97.71,-14.369C96.33,-14.369 95.22,-15.479 95.2,-16.849M86.49,-11.519C85.439,-12.42 85.319,-14 86.22,-15.05C87.12,-16.099 88.689,-16.22 89.74,-15.319C90.79,-14.42 90.91,-12.84 90.02,-11.8L90.02,-11.79C89.52,-11.22 88.819,-10.92 88.12,-10.92C87.54,-10.92 86.96,-11.119 86.49,-11.519M57.21,-10.809C56.68,-12.08 57.29,-13.55 58.569,-14.069C59.84,-14.599 61.31,-13.989 61.83,-12.71C62.359,-11.439 61.75,-9.97 60.47,-9.449C60.16,-9.319 59.84,-9.26 59.52,-9.26C58.54,-9.26 57.6,-9.84 57.21,-10.809M-1.33,-8.46C-2.181,-9.55 -1.99,-11.119 -0.9,-11.97C0.189,-12.819 1.76,-12.63 2.609,-11.54C3.46,-10.449 3.27,-8.88 2.18,-8.029C1.72,-7.68 1.18,-7.5 0.64,-7.5C-0.101,-7.5 -0.84,-7.83 -1.33,-8.46M68.62,-6.92C67.33,-7.409 66.689,-8.859 67.189,-10.149C67.68,-11.439 69.13,-12.08 70.42,-11.58C71.71,-11.09 72.35,-9.639 71.85,-8.349C71.47,-7.359 70.52,-6.75 69.52,-6.75C69.22,-6.75 68.92,-6.8 68.62,-6.92M46.47,-8.5C46.31,-9.88 47.29,-11.119 48.67,-11.269C50.04,-11.43 51.28,-10.449 51.439,-9.08C51.6,-7.71 50.609,-6.47 49.24,-6.309C49.14,-6.3 49.05,-6.29 48.95,-6.29C47.7,-6.29 46.62,-7.229 46.47,-8.5M79.87,-3.869C78.49,-4 77.49,-5.22 77.63,-6.599C77.76,-7.97 78.979,-8.979 80.359,-8.84L80.35,-8.84C81.729,-8.71 82.729,-7.489 82.6,-6.109C82.479,-4.819 81.39,-3.859 80.12,-3.859C80.04,-3.859 79.95,-3.859 79.87,-3.869M-36.78,-1.04C-37.86,-1.899 -38.04,-3.479 -37.181,-4.55C-36.32,-5.639 -34.74,-5.809 -33.66,-4.949C-32.58,-4.09 -32.41,-2.519 -33.271,-1.439C-33.76,-0.819 -34.49,-0.5 -35.22,-0.5C-35.771,-0.5 -36.32,-0.67 -36.78,-1.04M-8.34,-0.51C-9.55,-1.199 -9.96,-2.72 -9.28,-3.92C-8.601,-5.119 -7.07,-5.54 -5.87,-4.859C-4.67,-4.17 -4.25,-2.649 -4.94,-1.449C-5.4,-0.639 -6.24,-0.18 -7.11,-0.18C-7.53,-0.18 -7.95,-0.29 -8.34,-0.51M-16.3,3.62C-17.63,3.231 -18.391,1.841 -18,0.521C-17.61,-0.809 -16.22,-1.569 -14.9,-1.18C-13.57,-0.79 -12.811,0.601 -13.2,1.92C-13.521,3.011 -14.521,3.721 -15.601,3.721C-15.83,3.721 -16.07,3.691 -16.3,3.62M-28.36,2.91C-28.55,1.54 -27.59,0.28 -26.22,0.101C-24.851,-0.09 -23.601,0.87 -23.41,2.24C-23.22,3.601 -24.181,4.87 -25.55,5.051C-25.66,5.07 -25.771,5.08 -25.891,5.08C-27.12,5.08 -28.19,4.16 -28.36,2.91" style="fill:white;fill-rule:nonzero;"/>
        </g>
        <g transform="matrix(1,0,0,1,183.737,224.358)">
            <path d="M0,141.556C-4.004,141.556 -7.962,139.703 -10.492,136.215C-14.694,130.422 -13.411,122.326 -7.628,118.114L56.336,71.646L-7.628,25.168C-13.411,20.966 -14.694,12.86 -10.492,7.068C-6.29,1.284 1.816,0 7.608,4.202L85.996,61.162C89.349,63.603 91.337,67.497 91.337,71.646C91.337,75.793 89.349,79.689 85.996,82.128L7.608,139.079C5.305,140.751 2.639,141.556 0,141.556" style="fill:white;fill-rule:nonzero;"/>
        </g>
        <g transform="matrix(1,0,0,1,292.06,318.202)">
            <path d="M0,82.914C-5.458,82.914 -10.537,79.435 -12.317,73.959L-30.328,18.535C-32.542,11.73 -28.81,4.419 -22.005,2.214C-15.2,0 -7.889,3.724 -5.685,10.528L12.326,65.952C14.531,72.757 10.809,80.067 4.004,82.272C2.675,82.707 1.329,82.914 0,82.914" style="fill:white;fill-rule:nonzero;"/>
        </g>
        <g transform="matrix(1,0,0,1,359.019,283.047)">
            <path d="M0,25.908L-58.271,25.908C-65.428,25.908 -71.229,20.106 -71.229,12.949C-71.229,5.802 -65.428,0 -58.271,0L0,0C7.157,0 12.959,5.802 12.959,12.949C12.959,20.106 7.157,25.908 0,25.908" style="fill:white;fill-rule:nonzero;"/>
        </g>
        <g transform="matrix(1,0,0,1,274.059,189.309)">
            <path d="M0,82.914C-1.328,82.914 -2.675,82.706 -4.003,82.281C-10.816,80.067 -14.54,72.757 -12.326,65.952L5.685,10.528C7.898,3.723 15.21,0 22.006,2.214C28.811,4.419 32.533,11.729 30.328,18.535L12.318,73.959C10.537,79.435 5.459,82.914 0,82.914" style="fill:white;fill-rule:nonzero;"/>
        </g>
        <g transform="matrix(1,0,0,1,442.421,238.582)">
            <path d="M0,-4.891L0,17.822L-10.541,17.822L-10.541,-22.713L-0.488,-22.713L16.192,0.109L16.192,-22.713L26.734,-22.713L26.734,17.822L16.682,17.822L0,-4.891Z" style="fill:white;fill-rule:nonzero;"/>
        </g>
        <g transform="matrix(1,0,0,1,490.242,226.084)">
            <path d="M0,22.551C0,20.813 -1.25,19.346 -3.314,19.346C-5.434,19.346 -6.792,20.813 -6.792,22.551C-6.792,24.453 -5.434,26.028 -3.314,26.028C-1.304,26.028 0,24.561 0,22.551M0.706,-0.705L-7.063,-0.705L-2.988,-8.693L8.205,-8.693L0.706,-0.705ZM0.706,27.658C-0.924,29.615 -3.532,31.244 -7.336,31.244C-13.095,31.244 -16.572,27.604 -16.572,22.713C-16.572,18.041 -13.095,14.237 -6.9,14.237C-3.912,14.237 -1.63,14.998 -0.055,16.139L-0.055,15.053C-0.055,11.194 -2.174,10.108 -5.923,10.108C-7.498,10.108 -9.4,10.379 -12.606,11.031L-12.715,3.317C-9.346,2.664 -7.118,2.446 -3.695,2.446C4.944,2.446 9.563,6.467 9.563,12.77L9.563,30.321L0.706,30.321L0.706,27.658Z" style="fill:white;fill-rule:nonzero;"/>
        </g>
        <g transform="matrix(1,0,0,1,514.582,228.965)">
            <path d="M0,27.439L-9.672,27.439L-9.672,0.271L-0.488,0.271L-0.488,6.357C0.326,4.347 3.261,0 7.391,0L8.368,0L8.368,10.595C7.934,10.431 7.228,10.378 6.63,10.378C2.555,10.378 0,12.66 0,14.345L0,27.439Z" style="fill:white;fill-rule:nonzero;"/>
        </g>
        <g transform="matrix(1,0,0,1,535.243,242.82)">
            <path d="M0,0C0,3.75 2.717,6.521 6.249,6.521C9.78,6.521 12.552,3.75 12.552,0C12.552,-3.641 9.78,-6.52 6.249,-6.52C2.717,-6.52 0,-3.641 0,0M22.495,0C22.495,8.422 15.54,14.834 6.249,14.834C-2.988,14.834 -9.998,8.422 -9.998,0C-9.998,-8.422 -2.988,-14.834 6.249,-14.834C15.54,-14.834 22.495,-8.422 22.495,0" style="fill:white;fill-rule:nonzero;"/>
        </g>
        <g transform="matrix(1,0,0,1,576.602,234.616)">
            <path d="M0,2.064C-3.423,2.064 -6.085,4.673 -6.085,8.205C-6.085,11.628 -3.423,14.345 0,14.345C3.478,14.345 6.249,11.628 6.249,8.205C6.249,4.728 3.478,2.064 0,2.064M6.684,17.714C4.511,20.757 1.033,22.658 -3.368,22.658C-10.541,22.658 -16.083,16.681 -16.083,8.421C-16.083,0.109 -10.541,-6.249 -3.368,-6.249C0.489,-6.249 3.804,-4.565 6.032,-1.901L6.032,-20.594L15.704,-20.594L15.704,21.789L6.684,21.789L6.684,17.714Z" style="fill:white;fill-rule:nonzero;"/>
        </g>
        <g transform="matrix(1,0,0,1,607.154,228.584)">
            <path d="M0,27.82L-9.672,27.82L-9.672,0.652L-0.543,0.652L-0.543,4.183C0.979,2.283 4.021,0 8.423,0C13.747,0 18.04,3.804 18.04,10.052L18.04,27.82L8.423,27.82L8.423,12.986C8.423,9.781 6.684,8.531 4.293,8.531C2.119,8.531 0,10.162 0,12.498L0,27.82Z" style="fill:white;fill-rule:nonzero;"/>
        </g>
        <g transform="matrix(1,0,0,1,639.075,248.416)">
            <path d="M0,-23.037L-7.771,-23.037L-3.695,-31.025L7.498,-31.025L0,-23.037ZM0.761,7.988L-8.802,7.988L-8.802,-19.18L0.761,-19.18L0.761,7.988Z" style="fill:white;fill-rule:nonzero;"/>
        </g>
        <g transform="matrix(1,0,0,1,446.877,302.385)">
            <path d="M0,1.576C3.478,1.576 6.14,-1.033 6.14,-4.565C6.14,-7.988 3.478,-10.705 0,-10.705C-3.478,-10.705 -6.249,-7.988 -6.249,-4.565C-6.249,-1.086 -3.478,1.576 0,1.576M-5.978,5.543L-5.978,20.594L-15.649,20.594L-15.649,-18.149L-6.629,-18.149L-6.629,-14.127C-4.401,-17.17 -0.979,-19.018 3.423,-19.018C10.541,-19.018 16.138,-13.041 16.138,-4.781C16.138,3.531 10.541,9.889 3.423,9.889C-0.435,9.889 -3.749,8.205 -5.978,5.543" style="fill:white;fill-rule:nonzero;"/>
        </g>
        <g transform="matrix(-1,0,0,1,943.925,-31.575)">
            <rect x="467.181" y="300.596" width="9.563" height="42.383" style="fill:white;"/>
        </g>
        <g transform="matrix(1,0,0,1,496.981,281.084)">
            <path d="M0,22.551C0,20.813 -1.25,19.346 -3.314,19.346C-5.434,19.346 -6.792,20.813 -6.792,22.551C-6.792,24.453 -5.434,26.028 -3.314,26.028C-1.304,26.028 0,24.561 0,22.551M0.706,-0.705L-7.063,-0.705L-2.988,-8.693L8.205,-8.693L0.706,-0.705ZM0.706,27.658C-0.924,29.615 -3.532,31.244 -7.336,31.244C-13.095,31.244 -16.572,27.604 -16.572,22.713C-16.572,18.041 -13.095,14.237 -6.9,14.237C-3.912,14.237 -1.63,14.998 -0.055,16.139L-0.055,15.053C-0.055,11.194 -2.174,10.108 -5.923,10.108C-7.498,10.108 -9.4,10.379 -12.606,11.031L-12.715,3.317C-9.346,2.664 -7.118,2.446 -3.695,2.446C4.944,2.446 9.563,6.467 9.563,12.77L9.563,30.321L0.706,30.321L0.706,27.658Z" style="fill:white;fill-rule:nonzero;"/>
        </g>
        <g transform="matrix(1,0,0,1,521.321,283.584)">
            <path d="M0,27.82L-9.672,27.82L-9.672,0.652L-0.543,0.652L-0.543,4.183C0.979,2.283 4.021,0 8.423,0C13.748,0 18.04,3.804 18.04,10.052L18.04,27.82L8.423,27.82L8.423,12.986C8.423,9.781 6.684,8.531 4.293,8.531C2.119,8.531 0,10.162 0,12.498L0,27.82Z" style="fill:white;fill-rule:nonzero;"/>
        </g>
        <g transform="matrix(1,0,0,1,440.193,352.82)">
            <path d="M0,0C0,3.75 2.717,6.521 6.249,6.521C9.78,6.521 12.552,3.75 12.552,0C12.552,-3.641 9.78,-6.52 6.249,-6.52C2.717,-6.52 0,-3.641 0,0M22.495,0C22.495,8.422 15.54,14.834 6.249,14.834C-2.988,14.834 -9.998,8.422 -9.998,0C-9.998,-8.422 -2.988,-14.834 6.249,-14.834C15.54,-14.834 22.495,-8.422 22.495,0" style="fill:white;fill-rule:nonzero;"/>
        </g>
        <g transform="matrix(1,0,0,1,482.199,332.335)">
            <path d="M0,26.626C3.478,26.626 6.14,23.909 6.14,20.485C6.14,16.954 3.478,14.345 0,14.345C-3.478,14.345 -6.249,17.009 -6.249,20.485C-6.249,23.909 -3.478,26.626 0,26.626M3.423,34.939C-0.979,34.939 -4.401,33.091 -6.629,30.05L-6.629,34.069L-15.649,34.069L-15.649,-8.313L-5.978,-8.313L-5.978,10.38C-3.749,7.716 -0.435,6.032 3.423,6.032C10.541,6.032 16.138,12.39 16.138,20.702C16.138,28.962 10.541,34.939 3.423,34.939" style="fill:white;fill-rule:nonzero;"/>
        </g>
        <g transform="matrix(1,0,0,1,512.061,338.584)">
            <path d="M0,27.82L-9.672,27.82L-9.672,0.652L-0.543,0.652L-0.543,4.183C0.979,2.283 4.021,0 8.423,0C13.748,0 18.04,3.804 18.04,10.052L18.04,27.82L8.423,27.82L8.423,12.986C8.423,9.781 6.684,8.531 4.293,8.531C2.119,8.531 0,10.162 0,12.498L0,27.82Z" style="fill:white;fill-rule:nonzero;"/>
        </g>
        <g transform="matrix(1,0,0,1,543.775,352.82)">
            <path d="M0,0C0,3.75 2.717,6.521 6.249,6.521C9.78,6.521 12.552,3.75 12.552,0C12.552,-3.641 9.78,-6.52 6.249,-6.52C2.717,-6.52 0,-3.641 0,0M22.495,0C22.495,8.422 15.54,14.834 6.249,14.834C-2.988,14.834 -9.998,8.422 -9.998,0C-9.998,-8.422 -2.988,-14.834 6.249,-14.834C15.54,-14.834 22.495,-8.422 22.495,0" style="fill:white;fill-rule:nonzero;"/>
        </g>
        <g transform="matrix(1,0,0,1,588.53,339.236)">
            <path d="M0,27.168L-11.682,27.168L-22.224,0L-11.465,0L-5.759,17.279L0.381,0L10.433,0L0,27.168Z" style="fill:white;fill-rule:nonzero;"/>
        </g>
        <g transform="matrix(1,0,0,1,619.076,339.237)">
            <path d="M0,38.742L-9.998,38.742L-6.194,28.146L-18.528,0L-7.607,0L-1.358,17.115L4.347,0L14.399,0L0,38.742Z" style="fill:white;fill-rule:nonzero;"/>
        </g>
    </g>
</svg>
