<svg xmlns="http://www.w3.org/2000/svg" width="98" height="30" viewBox="0 0 98 30" fill="none">
<g clip-path="url(#clip0_179_44)">
<path d="M17.6264 9.34817C15.9428 6.53993 12.9273 4.65918 9.45954 4.65918C4.15737 4.65918 -0.139648 9.06477 -0.139648 14.5009C-0.139648 19.937 4.15737 24.3426 9.45954 24.3426C12.9022 24.3426 15.9176 22.4877 17.6013 19.6794L8.5549 14.5524L17.6264 9.34817Z" fill="white"/>
<path d="M24.0088 7.82812H28.2555C31.5474 7.82812 34.0603 10.4303 34.0603 14.0629C34.0603 17.6956 31.5474 20.2977 28.2555 20.2977H24.0088V7.82812ZM28.2807 18.5201C30.5674 18.5201 32.2761 16.7166 32.2761 14.0629C32.2761 11.4093 30.5674 9.60582 28.2807 9.60582H25.8432V18.4943H28.2807V18.5201Z" fill="white"/>
<path d="M43.8096 17.7213C43.3824 18.8807 42.1511 20.4781 39.9147 20.4781C37.4018 20.4781 35.5674 18.5973 35.5674 15.8406C35.5674 13.0839 37.4018 11.2031 39.9147 11.2031C42.2516 11.2031 44.086 13.0839 44.086 15.5572C44.086 15.8148 44.0609 16.0467 44.0358 16.2013L44.0106 16.4589H37.3264C37.5274 17.979 38.5326 18.958 39.9398 18.958C40.9701 18.958 41.7491 18.3397 42.0255 17.7213H43.8096ZM42.4275 15.145C42.2265 13.728 41.2967 12.7489 39.9147 12.7489C38.4321 12.7489 37.5777 13.728 37.3013 15.145H42.4275Z" fill="white"/>
<path d="M45.8955 11.4089H47.4535L47.6294 12.3106H47.7048C47.8807 12.1045 48.0817 11.9241 48.3079 11.7696C48.7099 11.5119 49.2628 11.2285 49.9664 11.2285C50.8459 11.2285 51.4238 11.5377 51.8008 11.8468C52.0018 12.053 52.1777 12.2333 52.3285 12.4652H52.4039C52.5798 12.2333 52.8059 12.0272 53.0823 11.8468C53.5598 11.5377 54.2383 11.2285 55.2685 11.2285C57.0778 11.2285 58.3845 12.6455 58.3845 14.6808V20.2973H56.6506V14.6808C56.6506 13.5215 55.947 12.8001 54.9167 12.8001C53.8613 12.8001 53.0069 13.5988 53.0069 14.6808V20.2973H51.2731V14.6808C51.2731 13.5215 50.5695 12.8001 49.5392 12.8001C48.4838 12.8001 47.6294 13.5988 47.6294 14.6808V20.2973H45.8955V11.4089Z" fill="white"/>
<path d="M66.0489 19.3187H65.9735C65.7976 19.5506 65.5966 19.7567 65.3453 19.9113C64.9181 20.1947 64.2647 20.4781 63.3601 20.4781C61.4503 20.4781 60.2441 19.3444 60.2441 17.7213C60.2441 15.9436 61.3749 14.7843 63.8124 14.7843H65.9735V14.6039C65.9735 13.4446 65.2699 12.7232 64.1391 12.7232C62.9329 12.7232 62.4052 13.4446 62.3047 13.9598H60.5708C60.6462 12.4655 61.9529 11.2031 64.1391 11.2031C66.4258 11.2031 67.7074 12.5171 67.7074 14.5782V20.2719H66.2248L66.0489 19.3187ZM65.9484 16.2013H63.8627C62.5309 16.2013 61.9529 16.8196 61.9529 17.6183C61.9529 18.417 62.4806 18.958 63.5109 18.958C65.094 18.958 65.9484 18.0563 65.9484 16.562V16.2013Z" fill="white"/>
<path d="M71.4266 20.8387C71.502 21.6374 72.281 22.4361 73.6882 22.4361C75.0702 22.4361 76.0251 21.4571 76.0251 20.1174V18.7004H75.9498C75.5226 19.1383 74.9195 19.7567 73.261 19.7567C71.0999 19.7567 69.4414 18.0563 69.4414 15.4799C69.4414 12.9035 71.0999 11.2031 73.261 11.2031C74.9446 11.2031 75.6482 12.0018 75.9498 12.3625H76.0251L76.201 11.3835H77.759V20.1174C77.759 22.4619 76.2764 24.0334 73.6882 24.0334C70.8235 24.0334 69.7932 22.0496 69.6927 20.8387H71.4266ZM76.0251 15.4799C76.0251 13.8825 74.9949 12.8005 73.5877 12.8005C72.1804 12.8005 71.1502 13.8568 71.1502 15.4799C71.1502 17.0772 72.1804 18.1593 73.5877 18.1593C74.9949 18.1593 76.0251 17.103 76.0251 15.4799Z" fill="white"/>
<path d="M79.5684 15.8406C79.5684 13.0839 81.4028 11.2031 83.9156 11.2031C86.4285 11.2031 88.2629 13.0839 88.2629 15.8406C88.2629 18.5973 86.4285 20.4781 83.9156 20.4781C81.4028 20.4781 79.5684 18.5973 79.5684 15.8406ZM86.529 15.8406C86.529 13.9856 85.3982 12.8262 83.9156 12.8262C82.433 12.8262 81.3022 14.0114 81.3022 15.8406C81.3022 17.6956 82.433 18.8549 83.9156 18.8549C85.3982 18.8807 86.529 17.6956 86.529 15.8406Z" fill="white"/>
<path d="M91.6551 20.8387C91.7305 21.6374 92.5095 22.4361 93.9167 22.4361C95.2988 22.4361 96.2537 21.4571 96.2537 20.1174V18.7004H96.1783C95.7511 19.1383 95.148 19.7567 93.4895 19.7567C91.3284 19.7567 89.6699 18.0563 89.6699 15.4799C89.6699 12.9035 91.3284 11.2031 93.4895 11.2031C95.1731 11.2031 95.8767 12.0018 96.1783 12.3625H96.2537L96.4296 11.3835H97.9875V20.1174C97.9875 22.4619 96.5049 24.0334 93.9167 24.0334C91.052 24.0334 90.0217 22.0496 89.9212 20.8387H91.6551ZM96.2537 15.4799C96.2537 13.8825 95.2234 12.8005 93.8162 12.8005C92.409 12.8005 91.3787 13.8568 91.3787 15.4799C91.3787 17.0772 92.409 18.1593 93.8162 18.1593C95.2234 18.1593 96.2537 17.103 96.2537 15.4799Z" fill="white"/>
</g>
<defs>
<clipPath id="clip0_179_44">
<rect width="98" height="30" fill="white"/>
</clipPath>
</defs>
</svg>
