<?xml version="1.0" encoding="UTF-8" standalone="no"?>
<!DOCTYPE svg PUBLIC "-//W3C//DTD SVG 1.1//EN" "http://www.w3.org/Graphics/SVG/1.1/DTD/svg11.dtd">
<svg width="100%" height="100%" viewBox="0 0 145 34" version="1.1" xmlns="http://www.w3.org/2000/svg" xmlns:xlink="http://www.w3.org/1999/xlink" xml:space="preserve" xmlns:serif="http://www.serif.com/" style="fill-rule:evenodd;clip-rule:evenodd;stroke-linejoin:round;stroke-miterlimit:2;">
    <g id="Artboard1" transform="matrix(0.140876,0,0,0.0431022,0,0)">
        <rect x="0" y="0" width="1024" height="768" style="fill:none;"/>
        <g transform="matrix(1,0,0,1,1.24051,-1.24745)">
            <g transform="matrix(7.09844,0,0,23.2007,25.2648,63.5251)">
                <path d="M24.641,6.808C22.288,2.96 18.072,0.384 13.224,0.384C5.812,0.384 -0.195,6.419 -0.195,13.867C-0.195,21.315 5.812,27.35 13.224,27.35C18.037,27.35 22.253,24.809 24.606,20.962L11.96,13.938L24.641,6.808Z" style="fill:white;fill-rule:nonzero;"/>
            </g>
            <g transform="matrix(7.09844,0,0,23.2007,25.2648,63.5251)">
                <path d="M33.565,4.726L39.501,4.726C44.103,4.726 47.616,8.291 47.616,13.267C47.616,18.244 44.103,21.809 39.501,21.809L33.565,21.809L33.565,4.726ZM39.536,19.374C42.733,19.374 45.122,16.903 45.122,13.267C45.122,9.632 42.733,7.161 39.536,7.161L36.129,7.161L36.129,19.338L39.536,19.338L39.536,19.374Z" style="fill:white;fill-rule:nonzero;"/>
            </g>
            <g transform="matrix(7.09844,0,0,23.2007,25.2648,63.5251)">
                <path d="M61.246,18.28C60.649,19.868 58.927,22.056 55.801,22.056C52.288,22.056 49.723,19.48 49.723,15.703C49.723,11.926 52.288,9.35 55.801,9.35C59.068,9.35 61.632,11.926 61.632,15.315C61.632,15.668 61.597,15.985 61.562,16.197L61.527,16.55L52.182,16.55C52.463,18.633 53.869,19.974 55.836,19.974C57.276,19.974 58.365,19.127 58.752,18.28L61.246,18.28ZM59.314,14.75C59.033,12.809 57.733,11.467 55.801,11.467C53.728,11.467 52.534,12.809 52.147,14.75L59.314,14.75Z" style="fill:white;fill-rule:nonzero;"/>
            </g>
            <g transform="matrix(7.09844,0,0,23.2007,25.2648,63.5251)">
                <path d="M64.162,9.632L66.34,9.632L66.586,10.867L66.691,10.867C66.937,10.585 67.218,10.338 67.534,10.126C68.096,9.773 68.869,9.385 69.853,9.385C71.082,9.385 71.89,9.808 72.417,10.232C72.698,10.514 72.944,10.761 73.155,11.079L73.26,11.079C73.506,10.761 73.822,10.479 74.209,10.232C74.876,9.808 75.824,9.385 77.265,9.385C79.794,9.385 81.621,11.326 81.621,14.115L81.621,21.809L79.197,21.809L79.197,14.115C79.197,12.526 78.213,11.538 76.773,11.538C75.298,11.538 74.103,12.632 74.103,14.115L74.103,21.809L71.679,21.809L71.679,14.115C71.679,12.526 70.696,11.538 69.255,11.538C67.78,11.538 66.586,12.632 66.586,14.115L66.586,21.809L64.162,21.809L64.162,9.632Z" style="fill:white;fill-rule:nonzero;"/>
            </g>
            <g transform="matrix(7.09844,0,0,23.2007,25.2648,63.5251)">
                <path d="M92.335,20.468L92.23,20.468C91.984,20.786 91.703,21.068 91.351,21.28C90.754,21.668 89.841,22.056 88.576,22.056C85.906,22.056 84.22,20.503 84.22,18.28C84.22,15.844 85.801,14.256 89.209,14.256L92.23,14.256L92.23,14.009C92.23,12.42 91.246,11.432 89.665,11.432C87.979,11.432 87.241,12.42 87.101,13.126L84.677,13.126C84.782,11.079 86.609,9.35 89.665,9.35C92.862,9.35 94.653,11.15 94.653,13.973L94.653,21.774L92.581,21.774L92.335,20.468ZM92.195,16.197L89.279,16.197C87.417,16.197 86.609,17.044 86.609,18.138C86.609,19.233 87.347,19.974 88.787,19.974C91,19.974 92.195,18.738 92.195,16.691L92.195,16.197Z" style="fill:white;fill-rule:nonzero;"/>
            </g>
            <g transform="matrix(7.09844,0,0,23.2007,25.2648,63.5251)">
                <path d="M99.853,22.55C99.958,23.645 101.047,24.739 103.014,24.739C104.946,24.739 106.281,23.398 106.281,21.562L106.281,19.621L106.176,19.621C105.579,20.221 104.736,21.068 102.417,21.068C99.396,21.068 97.077,18.738 97.077,15.209C97.077,11.679 99.396,9.35 102.417,9.35C104.771,9.35 105.754,10.444 106.176,10.938L106.281,10.938L106.527,9.597L108.705,9.597L108.705,21.562C108.705,24.774 106.632,26.927 103.014,26.927C99.01,26.927 97.569,24.209 97.429,22.55L99.853,22.55ZM106.281,15.209C106.281,13.02 104.841,11.538 102.874,11.538C100.906,11.538 99.466,12.985 99.466,15.209C99.466,17.397 100.906,18.88 102.874,18.88C104.841,18.88 106.281,17.433 106.281,15.209Z" style="fill:white;fill-rule:nonzero;"/>
            </g>
            <g transform="matrix(7.09844,0,0,23.2007,25.2648,63.5251)">
                <path d="M111.235,15.703C111.235,11.926 113.799,9.35 117.312,9.35C120.825,9.35 123.389,11.926 123.389,15.703C123.389,19.48 120.825,22.056 117.312,22.056C113.799,22.056 111.235,19.48 111.235,15.703ZM120.965,15.703C120.965,13.162 119.385,11.573 117.312,11.573C115.239,11.573 113.659,13.197 113.659,15.703C113.659,18.244 115.239,19.833 117.312,19.833C119.385,19.868 120.965,18.244 120.965,15.703Z" style="fill:white;fill-rule:nonzero;"/>
            </g>
            <g transform="matrix(7.09844,0,0,23.2007,25.2648,63.5251)">
                <path d="M128.131,22.55C128.237,23.645 129.326,24.739 131.293,24.739C133.225,24.739 134.56,23.398 134.56,21.562L134.56,19.621L134.455,19.621C133.857,20.221 133.014,21.068 130.696,21.068C127.675,21.068 125.356,18.738 125.356,15.209C125.356,11.679 127.675,9.35 130.696,9.35C133.049,9.35 134.033,10.444 134.455,10.938L134.56,10.938L134.806,9.597L136.984,9.597L136.984,21.562C136.984,24.774 134.911,26.927 131.293,26.927C127.288,26.927 125.848,24.209 125.707,22.55L128.131,22.55ZM134.56,15.209C134.56,13.02 133.12,11.538 131.152,11.538C129.185,11.538 127.745,12.985 127.745,15.209C127.745,17.397 129.185,18.88 131.152,18.88C133.12,18.88 134.56,17.433 134.56,15.209Z" style="fill:white;fill-rule:nonzero;"/>
            </g>
        </g>
    </g>
</svg>
