<svg width="8" height="17" viewBox="0 0 15 27" fill="none" xmlns="http://www.w3.org/2000/svg">
    <path d="M5.21838 18.8279V18.6782C5.23443 17.111 5.40024 15.8647 5.71047 14.934C6.0207 14.0086 6.46466 13.2544 7.04233 12.6821C7.62001 12.1098 8.30466 11.5803 9.11233 11.0935C9.59373 10.7993 10.0323 10.4463 10.4174 10.0398C10.8026 9.63328 11.1074 9.16258 11.3321 8.6277C11.5567 8.09281 11.6691 7.50444 11.6691 6.85723C11.6691 6.05491 11.4819 5.35421 11.1021 4.76584C10.7223 4.17747 10.2195 3.71747 9.58838 3.40189C8.95721 3.08096 8.25652 2.92049 7.48094 2.92049C6.80698 2.92049 6.15977 3.05956 5.53396 3.3377C4.90815 3.61584 4.38931 4.05444 3.9721 4.65351C3.55489 5.25258 3.30884 6.03886 3.24466 7.007H0.142334C0.20652 5.61095 0.570241 4.41816 1.2335 3.42328C1.8914 2.4284 2.76861 1.66886 3.85443 1.14468C4.94024 0.620491 6.14908 0.358398 7.48094 0.358398C8.92512 0.358398 10.1821 0.647236 11.2519 1.21956C12.3216 1.79189 13.1507 2.58351 13.7391 3.58375C14.3274 4.58398 14.6216 5.72328 14.6216 7.007C14.6216 7.91095 14.4826 8.72398 14.2098 9.45677C13.937 10.1896 13.5412 10.8421 13.0277 11.4144C12.5142 11.9868 11.8991 12.4949 11.177 12.9389C10.4549 13.3882 9.87721 13.8642 9.43861 14.3616C9.00535 14.8591 8.68977 15.4475 8.49187 16.1268C8.29396 16.8061 8.18698 17.6565 8.17094 18.6728V18.8226H5.21838V18.8279ZM6.79628 26.113C6.18652 26.113 5.66768 25.8937 5.23443 25.4605C4.80117 25.0272 4.58187 24.503 4.58187 23.8986C4.58187 23.2942 4.80117 22.77 5.23443 22.3368C5.66768 21.9035 6.19187 21.6842 6.79628 21.6842C7.4007 21.6842 7.92489 21.9035 8.35814 22.3368C8.7914 22.77 9.0107 23.2942 9.0107 23.8986C9.0107 24.2998 8.90907 24.6689 8.71117 25.0058C8.50791 25.3428 8.24582 25.6102 7.90884 25.8135C7.57721 26.0168 7.2028 26.113 6.79628 26.113Z" fill="white"></path>
</svg>