<?xml version="1.0" encoding="UTF-8"?>
<svg xmlns="http://www.w3.org/2000/svg" xmlns:xlink="http://www.w3.org/1999/xlink" version="1.1" id="Layer_1" x="0px" y="0px" style="enable-background:new 0 0 1500 1100;" xml:space="preserve" viewBox="247.28 237.75 1005.45 624.5">
<style type="text/css">
	.st0{fill:currentColor;}
	.st1{fill:#00986D;}
</style>
<g>
	<g>
		<g>
			<g>
				<path class="st0" d="M363.13,438.76h-66.86c-3.43,0-6.21,2.78-6.21,6.21v123.1c0,3.43,2.78,6.21,6.21,6.21h76.66      c3.79,0,6.69,3.36,6.14,7.11l-3.36,22.92c-0.45,3.05-3.06,5.31-6.14,5.31H257.85c-3.43,0-6.21-2.78-6.21-6.21V262.06      c0-3.43,2.78-6.21,6.21-6.21h109.8c3.43,0,6.21,2.78,6.21,6.21v23.17c0,3.43-2.78,6.21-6.21,6.21h-71.37      c-3.43,0-6.21,2.78-6.21,6.21v99.58c0,3.43,2.78,6.21,6.21,6.21h66.86c3.43,0,6.21,2.78,6.21,6.21v22.92      C369.34,435.98,366.56,438.76,363.13,438.76z"></path>
				<path class="st0" d="M419.62,255.85h111.41c3.43,0,6.21,2.78,6.21,6.21v23.17c0,3.43-2.78,6.21-6.21,6.21h-72.98      c-3.43,0-6.21,2.78-6.21,6.21v101.73c0,3.43,2.78,6.21,6.21,6.21h68.16c3.43,0,6.21,2.78,6.21,6.21v23.17      c0,3.43-2.78,6.21-6.21,6.21h-68.16c-3.43,0-6.21,2.78-6.21,6.21V603.4c0,3.43-2.78,6.21-6.21,6.21h-26.01      c-3.43,0-6.21-2.78-6.21-6.21V262.06C413.41,258.63,416.19,255.85,419.62,255.85z"></path>
				<path class="st0" d="M944.92,509.79c3.43,0,6.21,2.78,6.21,6.21v14.36c0,32.99,11.34,50.66,35.95,50.66      c25.14,0,34.94-18.43,34.94-56.45c0-41.25-9.06-57.13-46.35-86.2c-37.85-29.63-57.11-47.55-57.11-99.7      c0-44.9,13.46-88.08,69.36-87.8c53.25,0.28,66.99,35.86,66.99,80.47v10.32c0,3.43-2.78,6.21-6.21,6.21h-25.76      c-3.43,0-6.21-2.78-6.21-6.21v-9.29c0-29.15-5.66-47.93-29.59-47.93c-23.96,0-30.15,21.01-30.15,48.54      c0,32.52,6.46,44.98,38.85,69.45c49.28,37.21,64.87,58.01,64.87,116.76c0,49.75-14.36,95.16-74.35,95.16      c-57.48,0-73.65-37.6-73.65-84.21V516c0-3.43,2.78-6.21,6.21-6.21L944.92,509.79L944.92,509.79z"></path>
				<path class="st0" d="M1099.22,603.4V262.06c0-3.43,2.78-6.21,6.21-6.21h34.89c2.77,0,5.19,1.81,5.96,4.47      c19.68,68.39,66.55,245.86,72.1,273.65h0.81c-2.09-47.38-2.65-97.16-2.65-154.85V262.06c0-3.43,2.78-6.21,6.21-6.21h23.75      c3.43,0,6.21,2.78,6.21,6.21V603.4c0,3.43-2.78,6.21-6.21,6.21h-33.32c-2.78,0-5.22-1.83-5.97-4.51      c-19.41-69.28-67.87-256.03-74.28-282.97h-0.53c2.37,42.62,3.23,98.74,3.23,162.57v118.7c0,3.43-2.78,6.21-6.21,6.21h-24.01      C1102,609.6,1099.22,606.82,1099.22,603.4z"></path>
			</g>
		</g>
	</g>
	<path class="st1" d="M878.87,301.08l-5.57-5.72c-3.31-3.39-8.74-3.46-12.13-0.14l-130,127.29c-3.37,3.3-8.76,3.26-12.08-0.09   l-30.74-31.04c-3.28-3.31-8.59-3.39-11.97-0.19l-23.72,22.45c-3.48,3.3-3.58,8.81-0.22,12.23l68.85,69.93   c3.61,3.66,9.61,3.35,12.81-0.68l145.35-182.74C882.13,309.02,881.88,304.17,878.87,301.08z"></path>
	<path class="st0" d="M780.27,577.35c-12.94,2.45-26.45,3.27-40.32,2.2c-74.75-5.79-134.71-66.21-139.99-141   c-6.29-89.05,64.38-163.53,152.12-163.53c9.64,0,19.05,0.94,28.19,2.68c3.98,0.76,7.65-2.3,7.65-6.36v-24.67   c0-3.15-2.26-5.9-5.37-6.41c-23.48-3.82-48.39-3.39-73.97,2.34c-72.42,16.22-127.8,72.92-142.37,145.7   c-24.42,122,68.23,229.04,185.87,229.04c10.39,0,20.56-0.89,30.49-2.52c3.1-0.51,5.35-3.25,5.35-6.39v-24.72   C787.92,579.66,784.25,576.6,780.27,577.35z"></path>
</g>
</svg> 
