<svg xmlns="http://www.w3.org/2000/svg" width="86" height="27" viewBox="0 0 86 27" fill="none"><path d="M65.7811 26.5862C64.413 26.5862 63.1942 26.356 62.1247 25.8934C61.0527 25.4307 60.2024 24.7522 59.5713 23.8508C58.9378 22.9518 58.6223 21.8609 58.6223 20.5759C58.6223 19.2909 58.9378 18.181 59.5713 17.3202C60.2024 16.4596 61.0671 15.8123 62.1632 15.3759C63.2592 14.9396 64.5045 14.7215 65.8968 14.7215L71.702 14.7215L71.702 13.4892C71.702 12.3864 71.3671 11.4993 70.6951 10.8305C70.0231 10.164 68.9921 9.82834 67.5998 9.82834C66.2075 9.82834 65.1862 10.1496 64.466 10.7921C63.7433 11.4346 63.2664 12.2689 63.0352 13.295L59.3208 12.1011C59.6316 11.075 60.1277 10.1424 60.8118 9.30811C61.496 8.47382 62.4041 7.80015 63.541 7.2847C64.6755 6.77165 66.0438 6.51514 67.6432 6.51514C70.1194 6.51514 72.0682 7.14565 73.487 8.40189C74.9056 9.66053 75.6163 11.4442 75.6163 13.7553L75.6163 21.789C75.6163 22.5585 75.9776 22.9445 76.7003 22.9445L78.3262 22.9445L78.3262 26.2577L75.3465 26.2577C74.4432 26.2577 73.7085 26.0276 73.14 25.5649C72.5715 25.1022 72.2898 24.2583 72.2898 23.4623L72.2898 23.3473L71.7092 23.3473C71.5021 23.7333 71.1937 24.1816 70.7794 24.6946C70.3675 25.2077 69.7605 25.6512 68.9608 26.0229C68.161 26.3944 67.1036 26.5814 65.7884 26.5814L65.7811 26.5862ZM66.3617 23.3138C67.9612 23.3138 69.2499 22.8583 70.2326 21.9472C71.2131 21.0362 71.7044 19.7848 71.7044 18.193L71.7044 17.807L66.1304 17.807C65.073 17.807 64.2203 18.0323 63.5771 18.4806C62.9315 18.9313 62.6088 19.5906 62.6088 20.4632C62.6088 21.3359 62.9437 22.0287 63.6157 22.5442C64.2854 23.0573 65.2031 23.3138 66.3641 23.3138L66.3617 23.3138Z" fill="white"></path><path d="M9.62092 26.5838C7.6972 26.5838 6.02933 26.1674 4.58592 25.3635C3.14253 24.5595 2.02015 23.4037 1.2188 21.9274C0.417449 20.4509 -0.000122078 18.7497 -0.000122077 16.7899L-0.000122076 16.3401C-0.000122075 14.3492 0.383658 12.648 1.18742 11.1716C1.98877 9.69521 3.07977 8.53948 4.52316 7.73548C5.93519 6.93389 7.60306 6.51514 9.46161 6.51514C11.3202 6.51514 12.894 6.93149 14.2408 7.73548C15.619 8.53708 16.6786 9.66171 17.4486 11.107C18.2185 12.5522 18.6023 14.2224 18.6023 16.1486L18.6023 17.6585L4.04043 17.6585C4.1056 19.3288 4.64868 20.6448 5.7083 21.6403C6.76551 22.6356 8.11477 23.1166 9.68609 23.1166C11.1609 23.1166 12.2833 22.796 13.0532 22.1211C13.8232 21.4464 14.4 20.6759 14.8176 19.8097L18.0882 21.511C17.7359 22.217 17.2217 22.9874 16.5169 23.7914C15.8121 24.5929 14.9456 25.2678 13.8545 25.7823C12.7636 26.3277 11.354 26.5862 9.62092 26.5862L9.62092 26.5838ZM4.07181 14.6052L14.5907 14.6052C14.4943 13.16 13.9824 12.0354 13.0508 11.2338C12.1215 10.4322 10.934 10.0135 9.42782 10.0135C7.92167 10.0135 6.73413 10.4298 5.80485 11.2338C4.87557 12.0354 4.2987 13.16 4.1056 14.6052L4.07422 14.6052L4.07181 14.6052Z" fill="white"></path><path d="M39.2659 26.0966L32.9219 7.12695L37.0992 7.12695L42.1044 23.1213L42.709 23.1213L47.7141 7.12695L51.8915 7.12695L45.5474 26.0966L39.2659 26.0966Z" fill="white"></path><path d="M81.9851 26.2795L81.9851 7.20093L85.9431 7.20093L85.9431 26.2795L81.9851 26.2795Z" fill="white"></path><path d="M85.9286 0.649902L85.9286 4.57177L81.9851 4.57177L81.9851 0.649902L85.9286 0.649902Z" fill="white"></path><path d="M55.0726 22.1802L55.0726 26.0965L51.1562 26.0965L51.1562 22.1802L55.0726 22.1802Z" fill="#34D395"></path><path d="M27.3526 21.5395C27.3526 22.3182 27.7123 22.7075 28.434 22.7075L31.6972 22.7075L31.6972 26.0964L27.1597 26.0964C26.0022 26.0964 25.0804 25.7455 24.3992 25.0437C23.7156 24.3419 23.375 23.407 23.375 22.2389L23.375 0.640381L27.3526 0.640381L27.3526 21.5395Z" fill="white"></path></svg>