<svg width="24" height="10" viewBox="0 0 115 49" fill="none" xmlns="http://www.w3.org/2000/svg"><path d="M57.0715 5.6879V8.34191H60.6366V10.0258H57.0715V12.8324H61.0921V14.561H54.9482V3.95923H61.0921V5.6879H57.0715Z" fill="#003423"></path><path d="M70.9493 6.15967V14.563H68.8098V13.5014C68.5373 13.8655 68.1794 14.1502 67.7401 14.3576C67.3008 14.5651 66.8229 14.6688 66.3063 14.6688C65.6494 14.6688 65.0678 14.5305 64.5614 14.2519C64.055 13.9732 63.6584 13.5645 63.3717 13.0235C63.0829 12.4825 62.9385 11.8378 62.9385 11.0894V6.15967H65.0617V10.7864C65.0617 11.4535 65.2285 11.968 65.562 12.3259C65.8955 12.6859 66.3511 12.8649 66.9266 12.8649C67.5022 12.8649 67.974 12.6859 68.3075 12.3259C68.641 11.968 68.8078 11.4535 68.8078 10.7864V6.15967H70.9473H70.9493Z" fill="#003423"></path><path d="M76.2379 6.41807C76.6772 6.16589 77.1815 6.03979 77.7469 6.03979V8.26876H77.1856C76.5185 8.26876 76.0142 8.42536 75.6766 8.73855C75.3369 9.05174 75.1681 9.59882 75.1681 10.3757V14.5611H73.0449V6.15775H75.1681V7.46137C75.4406 7.01598 75.7986 6.66822 76.2379 6.414V6.41807Z" fill="#003423"></path><path d="M80.7171 14.1605C80.0703 13.8025 79.5619 13.2941 79.1938 12.6352C78.8237 11.9783 78.6406 11.2197 78.6406 10.3594C78.6406 9.49916 78.8298 8.74058 79.2101 8.08368C79.5883 7.42679 80.1069 6.91836 80.7638 6.56042C81.4207 6.20249 82.1549 6.02148 82.9623 6.02148C83.7697 6.02148 84.5039 6.20045 85.1607 6.56042C85.8176 6.92039 86.3362 7.42679 86.7145 8.08368C87.0928 8.74058 87.284 9.49916 87.284 10.3594C87.284 11.2197 87.0887 11.9783 86.7003 12.6352C86.3118 13.2921 85.7851 13.8005 85.1221 14.1605C84.4591 14.5204 83.7188 14.6994 82.8992 14.6994C82.0797 14.6994 81.3618 14.5204 80.715 14.1605H80.7171ZM83.9873 12.568C84.3269 12.3809 84.5954 12.1003 84.7987 11.7261C85.0001 11.3519 85.1018 10.8963 85.1018 10.3615C85.1018 9.5622 84.8923 8.94802 84.4733 8.5189C84.0544 8.08978 83.5399 7.87421 82.9338 7.87421C82.3278 7.87421 81.8193 8.08978 81.4085 8.5189C80.9997 8.94802 80.7943 9.56423 80.7943 10.3615C80.7943 11.1587 80.9936 11.7749 81.3943 12.204C81.7929 12.6352 82.2973 12.8487 82.9033 12.8487C83.2877 12.8487 83.6497 12.7552 83.9873 12.568Z" fill="#003423"></path><path d="M55.1374 21.4066C55.6072 20.583 56.2499 19.9403 57.0634 19.4807C57.8768 19.0211 58.79 18.7913 59.8008 18.7913C60.9844 18.7913 62.0195 19.0943 62.9103 19.7003C63.7991 20.3064 64.4214 21.1463 64.7753 22.2181H62.3327C62.0907 21.7117 61.7491 21.3334 61.3098 21.0812C60.8705 20.8291 60.3621 20.703 59.7845 20.703C59.1683 20.703 58.6192 20.8474 58.1392 21.1361C57.6592 21.4249 57.285 21.8317 57.0166 22.3564C56.7481 22.8811 56.6139 23.4993 56.6139 24.2071C56.6139 24.9148 56.7481 25.5188 57.0166 26.0496C57.285 26.5804 57.6592 26.9892 58.1392 27.278C58.6192 27.5668 59.1683 27.7112 59.7845 27.7112C60.36 27.7112 60.8685 27.5831 61.3098 27.3248C61.7511 27.0665 62.0907 26.6841 62.3327 26.1798H64.7753C64.4214 27.2617 63.8011 28.1037 62.9164 28.7057C62.0318 29.3077 60.9925 29.6086 59.7987 29.6086C58.788 29.6086 57.8748 29.3788 57.0613 28.9192C56.2478 28.4596 55.6052 27.819 55.1354 26.9994C54.6656 26.1798 54.4297 25.2504 54.4297 24.2091C54.4297 23.1678 54.6656 22.2344 55.1354 21.4107L55.1374 21.4066Z" fill="#003423"></path><path d="M68.7209 18.2888V29.513H66.5977V18.2888H68.7209Z" fill="#003423"></path><path d="M70.9581 19.7531C70.71 19.5151 70.5859 19.2203 70.5859 18.8664C70.5859 18.5125 70.71 18.2176 70.9581 17.9797C71.2062 17.7417 71.5174 17.6238 71.8916 17.6238C72.2658 17.6238 72.577 17.7438 72.8251 17.9797C73.0732 18.2176 73.1972 18.5125 73.1972 18.8664C73.1972 19.2203 73.0732 19.5151 72.8251 19.7531C72.577 19.991 72.2658 20.109 71.8916 20.109C71.5174 20.109 71.2062 19.991 70.9581 19.7531ZM72.9369 21.1096V29.5129H70.8137V21.1096H72.9369Z" fill="#003423"></path><path d="M87.9617 21.9372C88.5942 22.5697 88.9094 23.4523 88.9094 24.5831V29.5128H86.7862V24.8719C86.7862 24.215 86.6194 23.7106 86.2859 23.3629C85.9524 23.0131 85.4968 22.8402 84.9213 22.8402C84.3457 22.8402 83.8861 23.0151 83.5485 23.3629C83.2089 23.7106 83.0401 24.215 83.0401 24.8719V29.5128H80.9169V24.8719C80.9169 24.215 80.7501 23.7106 80.4166 23.3629C80.083 23.0131 79.6275 22.8402 79.0519 22.8402C78.4764 22.8402 78.0025 23.0151 77.6629 23.3629C77.3233 23.7106 77.1545 24.215 77.1545 24.8719V29.5128H75.0312V21.1095H77.1545V22.1264C77.427 21.7725 77.7788 21.4939 78.2079 21.2925C78.637 21.0912 79.1109 20.9895 79.6254 20.9895C80.2823 20.9895 80.8701 21.1278 81.3846 21.4064C81.9012 21.685 82.2998 22.0816 82.5825 22.5982C82.855 22.1121 83.2516 21.7237 83.7742 21.4308C84.2949 21.138 84.8582 20.9915 85.4663 20.9915C86.4974 20.9915 87.3292 21.3068 87.9617 21.9393V21.9372Z" fill="#003423"></path><path d="M90.8884 23.0214C91.228 22.3645 91.6877 21.8581 92.2693 21.5042C92.8509 21.1503 93.4997 20.9734 94.2176 20.9734C94.844 20.9734 95.3931 21.0995 95.8629 21.3517C96.3327 21.6038 96.7089 21.9231 96.9936 22.3075V21.1096H99.1331V29.513H96.9936V28.2846C96.7211 28.6792 96.3449 29.0046 95.8629 29.2629C95.3829 29.5211 94.8298 29.6493 94.2013 29.6493C93.4936 29.6493 92.8489 29.4662 92.2673 29.1042C91.6856 28.7402 91.226 28.2277 90.8864 27.5647C90.5467 26.9017 90.3779 26.1411 90.3779 25.2808C90.3779 24.4206 90.5467 23.6782 90.8864 23.0214H90.8884ZM96.6906 23.9853C96.4872 23.6172 96.2147 23.3325 95.871 23.1352C95.5273 22.938 95.1572 22.8383 94.7647 22.8383C94.3722 22.8383 94.0061 22.9339 93.6726 23.1271C93.339 23.3203 93.0685 23.5989 92.8611 23.9691C92.6537 24.3392 92.5499 24.7765 92.5499 25.2808C92.5499 25.7852 92.6537 26.2285 92.8611 26.6088C93.0685 26.9871 93.3411 27.28 93.6807 27.4813C94.0203 27.6847 94.3803 27.7843 94.7647 27.7843C95.1491 27.7843 95.5273 27.6867 95.871 27.4894C96.2147 27.2922 96.4872 27.0095 96.6906 26.6394C96.892 26.2712 96.9936 25.8279 96.9936 25.3134C96.9936 24.7988 96.892 24.3555 96.6906 23.9853Z" fill="#003423"></path><path d="M103.682 22.8547V26.9201C103.682 27.2028 103.751 27.4082 103.887 27.5343C104.024 27.6603 104.253 27.7234 104.577 27.7234H105.563V29.5131H104.229C102.439 29.5131 101.545 28.6426 101.545 26.9038V22.8547H100.544V21.1097H101.545V19.0312H103.684V21.1097H105.565V22.8547H103.684H103.682Z" fill="#003423"></path><path d="M114.847 25.9499H108.704C108.754 26.556 108.966 27.0319 109.34 27.3756C109.714 27.7193 110.174 27.8921 110.721 27.8921C111.51 27.8921 112.071 27.5525 112.405 26.8753H114.695C114.453 27.6847 113.987 28.3497 113.3 28.8703C112.612 29.391 111.768 29.6513 110.766 29.6513C109.956 29.6513 109.23 29.4723 108.59 29.1124C107.947 28.7544 107.447 28.246 107.089 27.5871C106.729 26.9302 106.55 26.1716 106.55 25.3113C106.55 24.4511 106.727 23.6782 107.081 23.0214C107.434 22.3645 107.931 21.8581 108.567 21.5042C109.204 21.1503 109.938 20.9734 110.766 20.9734C111.593 20.9734 112.281 21.1463 112.911 21.49C113.544 21.8337 114.034 22.3218 114.382 22.9542C114.731 23.5867 114.904 24.3128 114.904 25.1303C114.904 25.4334 114.884 25.7059 114.843 25.9499H114.847ZM112.708 24.5243C112.698 23.9772 112.5 23.542 112.116 23.2125C111.732 22.8851 111.262 22.7204 110.705 22.7204C110.178 22.7204 109.737 22.879 109.379 23.1983C109.019 23.5176 108.799 23.9589 108.718 24.5263H112.708V24.5243Z" fill="#003423"></path><path d="M55.1374 36.3585C55.6072 35.5349 56.2499 34.8922 57.0634 34.4326C57.8768 33.973 58.79 33.7432 59.8008 33.7432C60.9844 33.7432 62.0195 34.0462 62.9103 34.6522C63.7991 35.2583 64.4214 36.0982 64.7753 37.17H62.3327C62.0907 36.6636 61.7491 36.2853 61.3098 36.0331C60.8705 35.781 60.3621 35.6549 59.7845 35.6549C59.1683 35.6549 58.6192 35.7993 58.1392 36.0881C57.6592 36.3768 57.285 36.7836 57.0166 37.3083C56.7481 37.833 56.6139 38.4512 56.6139 39.159C56.6139 39.8667 56.7481 40.4707 57.0166 41.0015C57.285 41.5323 57.6592 41.9411 58.1392 42.2299C58.6192 42.5187 59.1683 42.6631 59.7845 42.6631C60.36 42.6631 60.8685 42.535 61.3098 42.2767C61.7511 42.0184 62.0907 41.6361 62.3327 41.1317H64.7753C64.4214 42.2136 63.8011 43.0556 62.9164 43.6576C62.0318 44.2596 60.9925 44.5606 59.7987 44.5606C58.788 44.5606 57.8748 44.3307 57.0613 43.8711C56.2478 43.4115 55.6052 42.7709 55.1354 41.9513C54.6656 41.1317 54.4297 40.2023 54.4297 39.161C54.4297 38.1197 54.6656 37.1863 55.1354 36.3626L55.1374 36.3585Z" fill="#003423"></path><path d="M73.0283 36.3584C73.5245 36.637 73.9109 37.0458 74.1896 37.5868C74.4682 38.1278 74.6065 38.7786 74.6065 39.5351V44.4649H72.4833V39.8239C72.4833 39.1568 72.3165 38.6443 71.983 38.2844C71.6494 37.9264 71.1939 37.7454 70.6183 37.7454C70.0428 37.7454 69.5689 37.9244 69.2293 38.2844C68.8897 38.6443 68.7209 39.1568 68.7209 39.8239V44.4649H66.5977V33.2407H68.7209V37.1089C68.9934 36.7448 69.3574 36.4601 69.813 36.2527C70.2685 36.0452 70.7729 35.9415 71.3301 35.9415C71.9667 35.9415 72.5341 36.0798 73.0283 36.3584Z" fill="#003423"></path><path d="M84.3748 40.8999H78.2309C78.2817 41.5059 78.4932 41.9818 78.8674 42.3255C79.2416 42.6692 79.7013 42.8421 80.2483 42.8421C81.0374 42.8421 81.5987 42.5024 81.9322 41.8252H84.2222C83.9802 42.6346 83.5145 43.2997 82.8271 43.8203C82.1397 44.3409 81.2957 44.6012 80.2931 44.6012C79.4836 44.6012 78.7576 44.4223 78.117 44.0623C77.4743 43.7044 76.974 43.1959 76.6161 42.537C76.2561 41.8801 76.0771 41.1215 76.0771 40.2613C76.0771 39.401 76.2541 38.6282 76.608 37.9713C76.9618 37.3144 77.4581 36.808 78.0946 36.4541C78.7312 36.1003 79.4653 35.9233 80.2931 35.9233C81.1208 35.9233 81.8082 36.0962 82.4386 36.4399C83.0711 36.7836 83.5613 37.2717 83.909 37.9042C84.2588 38.5367 84.4317 39.2627 84.4317 40.0803C84.4317 40.3833 84.4114 40.6558 84.3707 40.8999H84.3748ZM82.2353 39.4742C82.2251 38.9272 82.0278 38.4919 81.6435 38.1625C81.2591 37.835 80.7893 37.6703 80.2321 37.6703C79.7053 37.6703 79.264 37.8289 78.9061 38.1482C78.5461 38.4675 78.3265 38.9088 78.2451 39.4763H82.2353V39.4742Z" fill="#003423"></path><path d="M85.9663 37.9814C86.3202 37.3286 86.8103 36.8242 87.4367 36.4642C88.0631 36.1063 88.781 35.9253 89.5904 35.9253C90.6317 35.9253 91.494 36.1856 92.1773 36.7062C92.8607 37.2269 93.3183 37.957 93.5501 38.8986H91.2601C91.1381 38.5346 90.9347 38.2498 90.646 38.0404C90.3572 37.8329 90.0013 37.7292 89.5762 37.7292C88.9702 37.7292 88.4882 37.9489 88.1363 38.3902C87.7825 38.8295 87.6055 39.4538 87.6055 40.2632C87.6055 41.0727 87.7825 41.6807 88.1363 42.1221C88.4902 42.5613 88.9702 42.781 89.5762 42.781C90.4365 42.781 90.9978 42.3966 91.2601 41.6279H93.5501C93.3183 42.5369 92.8566 43.2609 92.1692 43.7978C91.4818 44.3348 90.6215 44.6012 89.5904 44.6012C88.781 44.6012 88.0631 44.4222 87.4367 44.0622C86.8103 43.7043 86.3182 43.1979 85.9663 42.5451C85.6125 41.8922 85.4355 41.1316 85.4355 40.2632C85.4355 39.3948 85.6125 38.6322 85.9663 37.9794V37.9814Z" fill="#003423"></path><path d="M100.087 44.4649L97.2355 40.8855V44.4649H95.1123V33.2407H97.2355V39.6266L100.056 36.0615H102.816L99.1147 40.2774L102.847 44.4628H100.087V44.4649Z" fill="#003423"></path><path d="M14.904 29.4153H11.5361C12.9821 32.5106 15.8151 34.7436 19.368 35.4331C17.9688 34.0908 16.0937 31.9818 14.9019 29.4153H14.904Z" fill="#003423"></path><path d="M0.356445 0.280029V48.28H48.3565V0.280029H0.356445ZM21.6719 37.3447C14.2143 37.3447 8.65812 31.9309 8.65812 24.6176C8.65812 17.3043 14.2163 11.8906 21.6719 11.8906C25.2208 11.8906 28.4117 13.0376 30.6 15.3682L29.453 16.5519C27.5189 14.6503 25.2065 13.7697 22.6237 13.6091V20.8634H26.1319V22.6225H22.6237V27.656H26.1319V29.4152H22.6237V35.6242C25.2065 35.4574 27.5189 34.5483 29.453 32.6468L30.6 33.8284C28.4137 36.159 25.2228 37.3426 21.6719 37.3426V37.3447ZM44.2015 13.3284L33.4025 29.8768C33.1645 30.2409 32.7191 30.2694 32.4507 29.9379L27.3359 23.6048C27.0857 23.2957 27.0938 22.7954 27.3521 22.4965L29.1154 20.4627C29.3675 20.1739 29.7621 20.18 30.0041 20.481L32.288 23.2916C32.5341 23.5947 32.9347 23.5987 33.1849 23.2998L42.843 11.7726C43.0952 11.4716 43.4979 11.4777 43.744 11.7848L44.1588 12.3034C44.3825 12.5841 44.4009 13.0213 44.2015 13.3284Z" fill="#003423"></path><path d="M13.7485 24.5303C13.7485 23.8795 13.8136 23.2429 13.9295 22.6206H10.6613C10.5515 23.2653 10.4844 23.9303 10.4844 24.6177C10.4844 25.6814 10.6328 26.6962 10.8932 27.6561H14.2285C13.9275 26.6596 13.7485 25.6142 13.7485 24.5303Z" fill="#003423"></path><path d="M19.1322 13.8591C15.3088 14.6848 12.3477 17.3002 11.1152 20.8612H14.4058C15.4511 17.894 17.5377 15.4271 19.1301 13.8591H19.1322Z" fill="#003423"></path><path d="M20.8628 34.4101V29.4153H16.8828C18.042 31.5527 19.6934 33.316 20.8628 34.4101Z" fill="#003423"></path><path d="M15.5098 24.5302C15.5098 25.6101 15.7295 26.6595 16.0874 27.656H20.8626V22.6226H15.7315C15.5912 23.2449 15.5078 23.8814 15.5078 24.5322L15.5098 24.5302Z" fill="#003423"></path><path d="M16.2969 20.8612H20.8626V14.6482C19.4776 15.9437 17.4154 18.1787 16.2969 20.8612Z" fill="#003423"></path></svg>
