<svg width="100%" height="100%" viewBox="0 0 28 28" version="1.1" xmlns="http://www.w3.org/2000/svg" xmlns:xlink="http://www.w3.org/1999/xlink" xml:space="preserve" xmlns:serif="http://www.serif.com/" style="fill-rule:evenodd;clip-rule:evenodd;stroke-linejoin:round;stroke-miterlimit:2;">
  <g transform="matrix(1,0,0,1,-0.106344,-0.009432)">
    <path d="M27.685,14.009C27.685,6.541 21.575,0.431 14.106,0.431C6.638,0.431 0.528,6.541 0.528,14.009C0.528,20.799 5.45,26.4 11.9,27.418L11.9,17.913L8.505,17.913L8.505,14.009L11.9,14.009L11.9,10.954C11.9,7.56 13.937,5.692 16.992,5.692C18.519,5.692 20.047,6.032 20.047,6.032L20.047,9.427L18.35,9.427C16.652,9.427 16.143,10.445 16.143,11.463L16.143,14.009L19.877,14.009L19.198,17.913L15.973,17.913L15.973,27.588C22.763,26.57 27.685,20.799 27.685,14.009Z" style="fill:rgb(17,24,39);fill-rule:nonzero;"></path>
  </g>
</svg>
