<svg width="100%" height="100%" viewBox="0 0 28 28" version="1.1" xmlns="http://www.w3.org/2000/svg" xmlns:xlink="http://www.w3.org/1999/xlink" xml:space="preserve" xmlns:serif="http://www.serif.com/" style="fill-rule:evenodd;clip-rule:evenodd;stroke-linejoin:round;stroke-miterlimit:2;">
  <g transform="matrix(1,0,0,1,-0.106344,-0.009432)">
    <path d="M12.34 16.36c-.26 0-.43-.09-.6-.26-1.07-1.07-1.69-2.5-1.69-4.02s.62-2.95 1.69-4.02l5.06-5.06c1.07-1.07 2.5-1.69 4.02-1.69s2.95.62 4.02 1.69c2.23 2.23 2.23 5.85 0 8.08l-2.31 2.31c-.36.36-.9.36-1.26 0s-.36-.9 0-1.26l2.31-2.31c1.51-1.51 1.51-4 0-5.51-.71-.71-1.69-1.15-2.76-1.15s-2.05.44-2.76 1.15l-5.06 5.06c-.71.71-1.15 1.69-1.15 2.76s.44 2.05 1.15 2.76c.36.36.36.9 0 1.26-.18.17-.34.26-.6.26z"/>
    <path d="M7.47 25.54c-1.42 0-2.95-.53-4.02-1.69-1.07-1.07-1.69-2.5-1.69-4.02s.62-2.95 1.69-4.02l2.31-2.31c.36-.36.9-.36 1.26 0s.36.9 0 1.26l-2.31 2.31c-.71.71-1.15 1.69-1.15 2.76s.44 2.05 1.15 2.76c1.51 1.51 4 1.51 5.51 0l5.06-5.06c.71-.71 1.15-1.69 1.15-2.76s-.44-2.05-1.15-2.76c-.36-.36-.36-.9 0-1.26s.9-.36 1.26 0c1.07 1.07 1.69 2.5 1.69 4.02s-.62 2.95-1.69 4.02l-5.06 5.06c-1.07 1.07-2.6 1.69-4.02 1.69z" style="fill-rule:nonzero;"/>
  </g>
</svg>
