<svg width="100%" height="100%" viewBox="0 0 5 26" fill="none" xmlns="http://www.w3.org/2000/svg">
    <path d="M2.38458 25.9392C1.77482 25.9392 1.25598 25.7199 0.822722 25.2866C0.389467 24.8534 0.170166 24.3292 0.170166 23.7248C0.170166 23.1204 0.389467 22.5962 0.822722 22.1629C1.25598 21.7297 1.78016 21.5104 2.38458 21.5104C2.989 21.5104 3.51319 21.7297 3.94644 22.1629C4.3797 22.5962 4.599 23.1204 4.599 23.7248C4.599 24.1259 4.49737 24.495 4.29946 24.832C4.09621 25.169 3.82877 25.4364 3.49714 25.6397C3.16551 25.8429 2.79109 25.9392 2.38458 25.9392ZM4.05877 0.532227L3.81272 18.6541H0.956443L0.710397 0.532227H4.05877Z" fill="white"/>
</svg>