<svg width="69" height="33" viewBox="0 0 69 33" fill="none" xmlns="http://www.w3.org/2000/svg">
    <path d="M31.8608 7.85225C28.9194 3.14603 23.6746 0 17.6725 0C8.4592 0 0.994141 7.38523 0.994141 16.5C0.994141 25.6148 8.4592 33 17.6725 33C23.6591 33 28.8934 29.8694 31.84 25.1837L16.1214 16.5718L31.8608 7.85225Z" fill="#111827"></path>
    <path d="M52.3312 0.0253906C44.9699 0.0253906 38.7395 4.75214 36.5347 11.3008L27.0205 16.5716L36.5658 21.8013C38.7965 28.3038 45.0062 32.9946 52.3312 32.9946C61.5341 32.9946 68.9888 25.6145 68.9888 16.5151C68.9888 7.41575 61.5341 0.0253906 52.3312 0.0253906ZM61.2955 20.082H43.4602V11.9269L48.6427 15.6734L52.2637 11.9269L55.9781 15.8018L61.2903 11.9269V20.082H61.2955Z" fill="#111827"></path>
</svg>
