<svg width="100%" height="100%" viewBox="0 0 17 17" fill="none" xmlns="http://www.w3.org/2000/svg">
    <path fill-rule="evenodd" clip-rule="evenodd" d="M8.54664 1.77285L13.9073 7.12848C13.9542 7.17501 13.9914 7.23037 14.0168 7.29136C14.0422 7.35236 14.0553 7.41778 14.0553 7.48386C14.0553 7.54993 14.0422 7.61535 14.0168 7.67635C13.9914 7.73734 13.9542 7.7927 13.9073 7.83923L12.9062 8.84028L12.1955 8.12953L12.8462 7.48386L7.8409 2.47859H4.0419V3.47964H3.04085V2.47859C3.04085 2.2131 3.14632 1.95847 3.33405 1.77074C3.52178 1.58301 3.7764 1.47754 4.0419 1.47754H7.8409C8.10596 1.47866 8.35977 1.58486 8.54664 1.77285ZM8.04611 15.4923C7.98024 15.4927 7.91494 15.48 7.85396 15.4551C7.79297 15.4302 7.73751 15.3935 7.69074 15.3471L2.33511 9.98649C2.14711 9.79962 2.04091 9.54581 2.03979 9.28075V5.48175C2.03979 5.21625 2.14526 4.96163 2.333 4.7739C2.52073 4.58617 2.77535 4.4807 3.04085 4.4807H6.83984C7.10491 4.48181 7.35871 4.58802 7.54559 4.77601L12.9062 10.1316C12.9531 10.1782 12.9904 10.2335 13.0158 10.2945C13.0412 10.3555 13.0543 10.4209 13.0543 10.487C13.0543 10.5531 13.0412 10.6185 13.0158 10.6795C12.9904 10.7405 12.9531 10.7959 12.9062 10.8424L8.40148 15.3471C8.35472 15.3935 8.29925 15.4302 8.23827 15.4551C8.17728 15.48 8.11198 15.4927 8.04611 15.4923ZM3.04085 5.48175V9.28075L8.04611 14.286L11.8451 10.487L6.83984 5.48175H3.04085ZM5.04295 8.48491C5.59582 8.48491 6.04401 8.03672 6.04401 7.48386C6.04401 6.93099 5.59582 6.4828 5.04295 6.4828C4.49009 6.4828 4.0419 6.93099 4.0419 7.48386C4.0419 8.03672 4.49009 8.48491 5.04295 8.48491Z" fill="#111827"/>
</svg>