<svg width="100%" height="100%" viewBox="0 0 28 28" version="1.1" xmlns="http://www.w3.org/2000/svg" xmlns:xlink="http://www.w3.org/1999/xlink" xml:space="preserve" xmlns:serif="http://www.serif.com/" style="fill-rule:evenodd;clip-rule:evenodd;stroke-linejoin:round;stroke-miterlimit:2;">
  <g transform="matrix(1,0,0,1,0.58935,0.158668)">
    <path d="M0,13.841C0,6.435 6.004,0.431 13.411,0.431C20.817,0.431 26.821,6.435 26.821,13.841C26.821,21.248 20.817,27.252 13.411,27.252C6.004,27.252 0,21.248 0,13.841ZM18.523,10.07C19.11,9.986 19.613,9.902 20.116,9.65C19.781,10.237 19.278,10.74 18.691,11.075C18.859,15.015 16.009,19.289 10.896,19.289C9.387,19.289 7.963,18.787 6.705,18.032C8.13,18.2 9.639,17.781 10.645,17.026C9.387,17.026 8.382,16.188 8.046,15.099C8.465,15.182 8.885,15.099 9.304,15.015C8.046,14.68 7.124,13.506 7.124,12.249C7.543,12.416 7.963,12.584 8.382,12.584C7.208,11.746 6.789,10.153 7.543,8.896C8.968,10.573 10.98,11.662 13.243,11.746C12.824,10.07 14.165,8.393 15.925,8.393C16.68,8.393 17.434,8.729 17.937,9.231C18.607,9.064 19.194,8.896 19.697,8.561C19.529,9.231 19.11,9.734 18.523,10.07Z" style="fill:rgb(17,24,39);"></path>
  </g>
</svg>
