<svg xmlns="http://www.w3.org/2000/svg" xmlns:xlink="http://www.w3.org/1999/xlink" xmlns:serif="http://www.serif.com/" width="100%" height="100%" viewBox="0 0 40 20" version="1.1" xml:space="preserve" style="fill-rule:evenodd;clip-rule:evenodd;stroke-linejoin:round;stroke-miterlimit:2;">
    <g transform="matrix(0.339114,0,0,0.339114,-93.516,-122.501)">
        <g transform="matrix(0.24,0,0,0.24,209.545,140.741)">
            <path d="M528.366,1008.02C542.967,958.703 588.647,922.678 642.676,922.678C708.46,922.678 761.868,976.086 761.868,1041.87C761.868,1107.65 708.46,1161.06 642.676,1161.06C588.035,1161.06 541.932,1124.21 527.882,1074.03L466.427,1042.13L528.366,1008.02Z"/>
        </g>
        <g transform="matrix(0.250195,0,0,0.250195,206.676,129.992)">
            <path d="M494.718,1100.36C474.764,1134.08 438.02,1156.71 396.032,1156.71C332.791,1156.71 281.448,1105.37 281.448,1042.13C281.448,978.888 332.791,927.545 396.032,927.545C437.084,927.545 473.123,949.181 493.358,981.661L389.17,1041.94L494.718,1100.36Z"/>
        </g>
        <g transform="matrix(1,0,0,1,-73.0117,0)">
            <g transform="matrix(0.24,0,0,0.24,0,0)">
                <path d="M1719.52,1628.29C1719.52,1572.3 1764.97,1526.85 1820.95,1526.85C1876.94,1526.85 1922.39,1572.3 1922.39,1628.29L1719.52,1628.29Z" style="fill:rgb(0,90,186);"/>
            </g>
            <g transform="matrix(-0.24,2.93915e-17,-2.93915e-17,-0.24,874.058,781.579)">
                <path d="M1719.52,1628.29C1719.52,1572.3 1764.97,1526.85 1820.95,1526.85C1876.94,1526.85 1922.39,1572.3 1922.39,1628.29L1719.52,1628.29Z" style="fill:rgb(254,212,0);"/>
            </g>
        </g>
    </g>
</svg>
